<svg viewBox="61.634 38.832 946.3 878.021" width="946.3" height="878.021" xmlns="http://www.w3.org/2000/svg">
    <defs></defs>
    <path d="M 836.804 39.493 C 836.804 39.89 836.339 40.395 835.769 40.616 C 835.2 40.832 833.768 41.951 832.593 43.098 L 830.452 45.187 L 830.235 66.839 C 830.063 84.259 830.191 88.602 830.905 89.063 C 831.627 89.529 831.603 89.757 830.789 90.29 C 829.95 90.844 829.999 90.952 831.089 90.96 C 832.1 90.968 832.212 91.149 831.591 91.774 C 830.476 92.889 830.588 94.313 831.791 94.313 C 832.341 94.313 832.718 94.642 832.625 95.043 C 832.441 95.841 833.183 96.334 836.968 97.934 C 843.14 100.537 844.704 101.142 852.175 103.813 C 854.196 104.539 856.001 105.301 856.185 105.509 C 856.37 105.718 855.973 105.69 855.303 105.449 C 854.208 105.056 854.224 105.188 855.472 106.773 C 856.703 108.337 856.855 109.459 856.867 116.959 C 856.887 126.752 857.545 128.348 861.72 128.737 C 864.25 128.973 868.806 125.216 867.855 123.68 C 867.643 123.335 867.807 123.054 868.216 123.054 C 868.625 123.054 868.778 122.753 868.549 122.384 C 868.324 122.015 868.445 121.715 868.826 121.715 C 869.203 121.715 869.351 121.294 869.151 120.78 C 868.954 120.263 869.371 118.382 870.085 116.602 C 871.785 112.339 874.087 103.797 874.685 99.534 C 875.318 95.031 871.428 89.107 867.731 88.943 C 867.446 88.931 866.011 88.337 864.539 87.628 C 863.071 86.918 861.523 86.328 861.106 86.316 C 859.125 86.256 850.904 81.536 850.487 80.221 C 850.238 79.435 850.25 71.932 850.519 63.542 C 851.076 46.114 850.563 43.716 845.61 40.58 C 843.044 38.959 836.804 38.185 836.804 39.493 M 806.551 68.042 C 803.419 68.856 802.164 75.533 802.023 92.103 C 801.971 98.058 801.682 103.019 801.382 103.131 C 801.081 103.244 800.732 107.318 800.608 112.186 C 800.479 117.055 800.114 121.041 799.798 121.045 C 799.477 121.045 799.372 121.634 799.561 122.352 C 799.745 123.07 799.557 123.8 799.136 123.972 C 798.598 124.193 798.643 124.478 799.284 124.927 C 800.05 125.464 800.05 125.613 799.284 125.869 C 798.534 126.122 798.526 126.367 799.236 127.225 C 799.802 127.914 799.854 128.352 799.388 128.508 C 798.995 128.636 798.438 130.252 798.145 132.097 C 797.853 133.942 797.111 136.468 796.489 137.711 C 795.871 138.951 795.366 140.298 795.366 140.699 C 795.366 141.104 794.717 142.784 793.918 144.441 C 793.022 146.301 792.129 148.163 791.24 150.027 C 790.562 151.443 789.603 153.4 789.106 154.37 C 788.609 155.34 787.033 158.468 785.601 161.316 C 784.174 164.167 782.81 166.497 782.582 166.497 C 782.349 166.497 781.808 167.323 781.378 168.334 C 780.38 170.688 777.621 173.848 776.57 173.848 C 776.125 173.848 775.941 174.032 776.169 174.261 C 776.57 174.662 771.453 181.989 770.467 182.426 C 770.19 182.55 769.965 183.059 769.965 183.565 C 769.965 184.066 769.496 184.74 768.919 185.064 C 768.341 185.385 767.367 186.416 766.745 187.354 C 764.179 191.252 746.554 208.604 745.162 208.604 C 744.849 208.604 743.494 209.671 742.15 210.979 C 740.807 212.282 738.617 213.938 737.29 214.66 C 735.963 215.382 734.423 216.232 733.873 216.553 C 728.307 219.793 720.503 220.792 701.96 220.643 C 696.217 220.595 691.766 220.824 691.766 221.169 C 691.766 221.501 690.262 221.63 688.425 221.453 C 686.364 221.257 685.081 221.397 685.081 221.826 C 685.081 222.203 684.511 222.368 683.813 222.183 C 681.68 221.626 669.814 223.96 667.323 225.431 C 666.032 226.193 664.793 226.634 664.568 226.41 C 664.348 226.189 663.081 226.566 661.757 227.248 C 660.434 227.93 658.148 229.053 656.676 229.742 C 655.204 230.432 652.907 231.655 651.571 232.461 C 650.232 233.267 648.952 233.745 648.728 233.52 C 648.503 233.295 648.323 233.612 648.323 234.226 C 648.323 234.839 647.962 235.341 647.521 235.341 C 647.084 235.341 645.957 236.059 645.014 236.937 C 644.076 237.815 641.221 239.92 638.674 241.617 C 636.124 243.309 634.451 244.697 634.957 244.697 C 635.466 244.697 634.865 245.523 633.629 246.533 C 632.218 247.708 630.89 248.98 629.655 250.339 C 628.709 251.422 627.109 253.142 626.098 254.161 C 625.088 255.179 624.261 256.278 624.261 256.603 C 624.261 257.1 621.514 261.72 618.398 266.464 C 617.933 267.174 617.115 268.698 616.586 269.845 C 615.511 272.175 613.883 273.133 613.089 271.902 C 612.804 271.461 612.363 263.878 612.11 255.055 C 611.549 235.457 610.968 232.072 607.775 229.734 C 605.321 227.938 598.034 228.026 594.365 229.899 C 592.885 230.653 591.474 231.07 591.221 230.821 C 590.972 230.573 590.985 230.962 591.245 231.683 C 591.51 232.409 591.474 232.774 591.173 232.501 C 590.696 232.068 586.164 237.967 586.164 239.022 C 586.164 239.239 585.105 240.506 583.814 241.833 C 582.218 243.477 581.589 244.644 581.853 245.479 C 582.07 246.152 581.982 246.702 581.665 246.702 C 581.344 246.702 581.055 247.379 581.023 248.206 C 580.987 249.032 580.47 251.366 579.872 253.387 C 578.854 256.84 578.228 260.148 576.772 269.761 C 575.798 276.181 576.01 300.05 577.105 307.389 C 577.638 310.954 578.38 315.979 578.761 318.553 C 579.138 321.124 579.728 324.584 580.073 326.237 C 580.522 328.39 580.478 329.381 579.92 329.734 C 579.363 330.091 579.391 330.231 580.025 330.239 C 580.602 330.243 580.758 330.712 580.482 331.586 C 580.197 332.485 580.41 333.062 581.123 333.339 C 581.809 333.604 582.05 334.197 581.793 335.007 C 581.572 335.697 581.705 336.262 582.086 336.262 C 582.467 336.262 582.607 336.715 582.395 337.265 C 582.182 337.818 582.334 338.267 582.727 338.267 C 583.124 338.267 583.273 338.721 583.064 339.27 C 582.852 339.823 583.028 340.273 583.457 340.273 C 583.886 340.273 584.051 340.573 583.822 340.942 C 583.598 341.311 583.73 341.612 584.119 341.612 C 584.508 341.612 584.825 342.069 584.825 342.627 C 584.825 343.188 585.559 344.764 586.457 346.136 C 587.351 347.507 588.29 349.464 588.538 350.483 C 588.787 351.505 589.585 352.66 590.315 353.049 C 591.197 353.522 591.518 354.2 591.285 355.102 C 591.089 355.84 591.101 356.277 591.309 356.069 C 591.518 355.86 593.046 356.883 594.702 358.343 C 599.534 362.598 604.704 365.124 608.052 364.875 C 609.616 364.755 610.891 364.887 610.891 365.164 C 610.891 365.445 611.344 365.673 611.894 365.673 C 612.447 365.673 612.896 365.433 612.896 365.136 C 612.896 364.843 613.951 364.727 615.238 364.875 C 616.67 365.044 617.576 364.863 617.576 364.41 C 617.576 364.001 617.977 363.668 618.471 363.668 C 618.96 363.668 620.981 362.088 622.958 360.159 C 624.935 358.226 627.165 356.33 627.911 355.941 C 628.744 355.537 629.226 354.645 629.106 353.727 C 629.014 352.901 629.206 352.391 629.531 352.592 C 629.86 352.792 630.092 352.584 630.052 352.131 C 629.924 350.695 631.676 343.653 632.25 343.3 C 632.551 343.116 632.992 341.532 633.236 339.779 C 633.477 338.031 634.247 333.591 634.945 329.914 C 635.647 326.237 636.545 317.137 636.946 309.694 C 637.343 302.251 637.888 295.603 638.149 294.921 C 638.815 293.2 642.488 289.138 643.851 288.617 C 644.473 288.376 644.978 287.871 644.978 287.494 C 644.978 287.113 645.407 286.804 645.925 286.804 C 646.446 286.804 646.975 286.579 647.096 286.303 C 647.501 285.392 657.418 278.114 658.256 278.114 C 658.709 278.114 659.784 277.408 660.65 276.542 C 661.517 275.676 662.631 274.769 663.125 274.529 C 663.622 274.288 664.825 273.566 665.803 272.929 C 669.02 270.819 673.88 268.088 674.417 268.088 C 674.706 268.088 675.047 267.84 675.167 267.531 C 675.368 267.034 681.644 263.236 686.296 260.802 C 687.282 260.284 688.273 259.587 688.493 259.246 C 688.718 258.909 689.32 258.704 689.833 258.797 C 690.912 258.989 694.441 257.401 694.441 256.723 C 694.441 256.471 695.644 255.721 697.111 255.055 C 698.583 254.393 699.786 253.615 699.786 253.331 C 699.786 253.042 700.464 252.597 701.29 252.336 C 702.116 252.079 702.942 251.65 703.127 251.382 C 703.925 250.219 709.158 248.085 710.217 248.494 C 711.027 248.803 711.215 248.691 710.858 248.105 C 710.53 247.576 710.846 247.151 711.749 246.914 C 712.523 246.71 713.152 246.249 713.152 245.884 C 713.152 245.519 713.605 245.394 714.155 245.607 C 714.708 245.819 715.157 245.743 715.157 245.438 C 715.157 244.793 721.666 240.771 725.52 239.038 C 732.722 235.802 738.553 232.594 738.553 231.872 C 738.553 231.575 739.155 231.33 739.889 231.33 C 740.622 231.33 741.224 231.058 741.224 230.725 C 741.224 230.396 742.158 229.799 743.301 229.398 C 744.444 229.001 747.151 227.465 749.317 225.985 C 751.482 224.509 753.255 223.45 753.255 223.639 C 753.255 223.823 753.836 223.45 754.546 222.809 C 756.675 220.876 757.858 219.965 758.247 219.965 C 758.448 219.965 760.762 218.161 763.389 215.955 C 766.015 213.75 768.437 211.945 768.77 211.945 C 769.103 211.945 769.191 211.644 768.963 211.279 C 768.734 210.91 768.818 210.61 769.147 210.61 C 769.476 210.61 771.301 209.098 773.198 207.249 C 775.094 205.4 776.65 204.093 776.65 204.342 C 776.65 204.594 777.212 204.153 777.898 203.359 C 778.583 202.569 779.409 201.919 779.734 201.915 C 780.059 201.915 780.994 200.937 781.812 199.746 C 782.626 198.551 786.387 194.629 790.165 191.024 C 796.918 184.561 803.699 178.129 810.509 171.726 C 812.372 169.923 814.201 168.085 815.995 166.212 C 818.337 163.794 820.518 161.817 820.843 161.817 C 821.164 161.817 821.429 161.508 821.429 161.127 C 821.429 160.065 829.654 152.393 830.183 152.962 C 830.869 153.7 831.25 159.146 830.616 159.146 C 830.315 159.146 830.396 159.748 830.789 160.482 C 831.274 161.388 831.282 161.817 830.813 161.817 C 830.368 161.817 830.119 165.182 830.119 171.217 C 830.119 177.309 830.356 180.465 830.789 180.2 C 831.154 179.971 831.454 180.104 831.454 180.493 C 831.454 180.882 831.154 181.203 830.789 181.203 C 830.42 181.203 830.121 181.5 830.119 181.868 C 830.119 182.237 830.343 182.49 830.62 182.434 C 830.897 182.373 831.659 182.562 832.317 182.847 C 833.09 183.184 833.933 182.987 834.711 182.285 C 835.368 181.688 836.106 181.399 836.351 181.64 C 836.595 181.884 837.357 181.435 838.047 180.641 C 838.737 179.847 839.772 179.197 840.349 179.197 C 840.93 179.197 841.592 178.893 841.821 178.52 C 842.053 178.147 843.349 177.272 844.7 176.579 C 846.056 175.885 847.84 174.726 848.666 174.004 L 850.17 172.689 L 850.17 143.342 C 850.17 110.334 850.266 111.015 845.622 111.031 C 844.239 111.035 841.48 111.89 839.35 112.968 C 837.261 114.027 835.38 114.725 835.176 114.516 C 834.967 114.312 834.799 114.492 834.799 114.921 C 834.799 115.35 834.213 115.699 833.5 115.699 C 832.786 115.699 832.016 116.004 831.787 116.373 C 829.477 120.115 824.104 118.262 824.104 113.726 C 824.104 112.607 823.871 111.689 823.586 111.689 C 823.297 111.689 823.181 110.486 823.322 109.018 C 823.466 107.482 823.285 106.343 822.896 106.343 C 822.524 106.343 822.303 105.818 822.407 105.172 C 822.511 104.531 822.359 103.705 822.07 103.336 C 821.772 102.947 821.58 102.486 821.513 102 C 821.3 97.136 818.642 76.6 817.884 73.929 C 817.467 72.457 817.162 70.857 817.206 70.376 C 817.25 69.89 817.134 69.646 816.945 69.834 C 816.757 70.023 815.514 69.59 814.182 68.876 C 811.836 67.642 809.108 67.344 806.551 68.042 M 410.736 110.522 C 410.588 110.979 410.259 123.628 410.011 138.622 C 409.549 166.236 409.277 168.883 407.031 167.496 C 406.718 167.303 406.273 167.447 406.044 167.824 C 405.812 168.197 405.038 168.502 404.324 168.502 C 403.614 168.502 403.029 168.783 403.029 169.124 C 403.029 169.709 400.326 170.888 399.76 170.547 C 399.62 170.463 399.319 170.648 399.095 170.956 C 398.87 171.265 397.029 172.095 395.008 172.797 C 392.987 173.499 390.729 174.437 389.995 174.886 C 388.942 175.454 387.819 175.883 386.655 176.162 C 385.552 176.418 384.104 177.116 383.439 177.718 C 382.46 178.6 382.123 178.64 381.682 177.926 C 381.353 177.393 381.037 177.317 380.888 177.734 C 380.748 178.115 380.186 178.524 379.637 178.644 C 379.084 178.764 378.237 179.394 377.752 180.044 C 377.267 180.693 376.621 181.07 376.321 180.882 C 375.35 180.284 369.631 183.22 368.545 184.88 C 367.33 186.733 368.793 190.209 371.091 190.939 C 371.749 191.148 372.282 191.589 372.282 191.918 C 372.282 192.251 372.735 192.347 373.285 192.138 C 373.838 191.926 374.287 192.102 374.287 192.531 C 374.287 192.961 374.588 193.125 374.957 192.896 C 375.326 192.672 375.627 192.82 375.627 193.233 C 375.627 193.642 375.928 193.791 376.301 193.562 C 376.669 193.333 377.139 193.586 377.343 194.119 C 377.56 194.681 378.245 194.95 378.975 194.761 C 379.669 194.577 381.081 195.002 382.107 195.696 C 383.138 196.393 385.785 197.841 387.99 198.912 C 390.196 199.982 392.149 201.069 392.333 201.322 C 392.518 201.575 393.404 201.887 394.306 202.02 C 395.205 202.148 396.673 202.926 397.563 203.748 C 398.457 204.566 399.424 205.091 399.712 204.911 C 400.001 204.735 401.164 205.116 402.299 205.761 C 404.428 206.972 404.994 208.809 403.522 209.739 C 402.479 210.405 399.019 215.683 399.019 216.609 C 399.019 217.23 398.096 217.563 396.869 217.379 C 396.608 217.343 396.548 217.72 396.741 218.217 C 397.138 219.248 394.062 224.144 393.42 223.502 C 393.192 223.274 393.003 223.567 393.003 224.152 C 392.943 224.876 392.647 225.561 392.161 226.101 C 391.42 226.957 390.744 227.867 390.14 228.824 C 389.49 229.835 388.444 230.665 387.806 230.673 C 386.92 230.681 386.859 230.813 387.545 231.246 C 388.219 231.671 388.079 231.904 386.976 232.193 C 386.174 232.405 385.696 232.87 385.917 233.227 C 386.142 233.584 385.532 235.397 384.57 237.254 C 381.133 243.874 383.391 245.571 393.264 243.79 C 400.992 242.395 407.829 241.356 409.265 241.356 C 410.199 241.356 410.38 242.102 410.38 245.884 C 410.38 251.045 411.121 252.509 414.891 254.798 C 416.271 255.637 417.594 256.607 417.835 256.956 C 418.071 257.305 418.765 257.401 419.37 257.168 C 419.98 256.932 420.313 257.008 420.112 257.329 C 419.912 257.654 420.874 258.127 422.25 258.384 C 423.625 258.64 426.404 259.615 428.426 260.545 C 444.888 268.124 444.643 267.812 444.996 281.916 C 445.273 292.888 445.714 293.89 449.411 291.901 C 451.448 290.806 454.316 287.077 453.979 285.97 C 453.895 285.693 454.143 285.469 454.532 285.469 C 454.921 285.469 455.054 285.168 454.829 284.799 C 454.6 284.43 454.733 284.129 455.122 284.129 C 455.511 284.129 455.783 283.905 455.727 283.628 C 455.591 282.974 457.524 278.984 459.204 276.446 C 460.004 275.215 460.717 273.93 461.338 272.6 C 461.779 271.589 462.533 270.763 463.014 270.763 C 463.908 270.763 464.49 269.769 464.79 267.715 C 464.883 267.086 465.456 266.203 466.066 265.758 C 466.675 265.313 466.984 264.764 466.755 264.535 C 466.531 264.307 466.836 263.372 467.437 262.454 C 468.039 261.536 468.528 260.361 468.528 259.839 C 468.528 259.322 468.957 258.54 469.482 258.103 C 470.008 257.67 471.247 255.753 472.233 253.844 C 473.22 251.939 474.415 249.926 474.896 249.377 C 475.373 248.823 476.853 246.072 478.185 243.257 C 479.516 240.442 481.012 237.799 481.513 237.386 C 482.676 236.419 483.406 232.586 482.848 230.368 C 482.331 228.303 475.742 227.866 472.298 229.662 C 471.243 230.212 469.815 230.661 469.121 230.661 C 468.428 230.661 467.858 231.038 467.85 231.495 C 467.842 232.052 467.626 231.996 467.193 231.33 C 466.759 230.661 466.543 230.605 466.535 231.162 C 466.527 231.643 465.673 231.996 464.518 231.996 C 463.415 231.996 462.513 232.289 462.513 232.646 C 462.513 233.003 462.063 233.119 461.51 232.906 C 460.925 232.682 460.503 232.898 460.495 233.432 C 460.487 234.326 454.889 236.917 450.63 237.995 C 449.427 238.3 448.012 238.906 447.482 239.343 C 446.343 240.289 442.489 239.62 442.409 238.461 C 442.104 234.162 442.229 228.624 442.638 228.487 C 442.915 228.395 443.215 226.001 443.304 223.17 C 443.496 217.034 442.57 215.783 438.118 216.164 C 433.198 216.581 432.696 215.731 432.865 207.293 C 432.945 203.247 433.166 199.686 433.358 199.381 C 433.547 199.076 433.771 197.416 433.863 195.696 C 434.04 192.267 434.168 192.146 436.073 193.586 C 440.649 197.047 449.872 193.47 450.823 187.864 L 451.268 185.213 L 458.214 185.213 C 464.81 185.213 473.096 187.178 474.519 189.079 C 474.716 189.343 476.147 190.422 477.699 191.473 C 480.346 193.269 484.529 197.909 483.498 197.909 C 483.241 197.909 483.663 198.459 484.433 199.128 C 485.207 199.798 487.131 202.441 488.715 204.999 C 493.564 212.851 497.289 215.927 499.952 214.279 C 501.925 213.06 500.173 217.026 497.602 219.597 C 494.659 222.54 493.014 229.325 495.244 229.325 C 495.601 229.325 495.733 229.734 495.541 230.24 C 495.344 230.745 495.649 231.334 496.219 231.551 C 496.802 231.753 497.093 232.406 496.852 232.975 C 496.624 233.568 496.816 234.001 497.309 234.001 C 497.779 234.001 497.975 234.186 497.755 234.41 C 497.53 234.635 497.931 235.906 498.645 237.242 C 499.359 238.573 499.944 240.005 499.944 240.426 C 499.944 241.284 502.21 246.83 503.622 249.425 C 504.135 250.371 504.664 252.476 504.792 254.105 C 504.937 255.889 505.338 257 505.803 256.904 C 506.24 256.812 506.413 257.18 506.196 257.738 C 505.988 258.283 506.18 258.732 506.625 258.732 C 507.074 258.732 507.275 259.157 507.074 259.679 C 506.874 260.2 507.102 260.778 507.576 260.958 C 508.053 261.143 508.787 262.654 509.208 264.319 C 509.625 265.979 510.27 267.527 510.635 267.755 C 511.004 267.984 511.305 268.702 511.305 269.347 C 511.305 271.192 514.144 273.438 516.478 273.438 C 518.592 273.438 521.72 270.595 520.962 269.368 C 520.765 269.055 521.194 267.358 521.912 265.602 C 522.63 263.845 524.186 259.25 525.373 255.392 C 526.56 251.53 527.791 248.085 528.108 247.736 C 528.425 247.387 528.681 246.425 528.681 245.599 C 528.681 244.769 529.022 243.249 529.435 242.222 L 530.727 239.014 C 531.023 238.28 531.453 236.251 531.685 234.503 C 531.918 232.758 532.427 231.33 532.816 231.33 C 533.289 231.33 533.273 231.026 532.764 230.412 C 532.343 229.907 532.158 229.081 532.351 228.571 C 532.924 227.056 530.939 218.121 529.768 216.95 C 529.171 216.352 528.681 215.638 528.681 215.366 C 528.681 215.093 528.148 214.287 527.498 213.577 C 525.08 210.93 519.995 204.458 519.995 204.025 C 519.995 203.78 519.314 202.83 518.479 201.915 C 516.422 199.65 512.332 193.831 511.79 192.395 C 511.546 191.753 511.036 191.228 510.659 191.228 C 510.271 191.219 509.963 190.899 509.97 190.51 C 509.97 190.117 509.593 189.403 509.132 188.93 C 507.014 186.737 505.29 184.479 505.29 183.901 C 505.29 183.557 504.905 183.031 504.432 182.738 C 503.237 181.997 498.368 175.187 499.034 175.187 C 499.331 175.187 498.897 174.714 498.071 174.136 C 497.245 173.559 495.413 171.526 493.997 169.625 C 488.399 162.098 483.787 160.887 457.167 159.94 C 449.997 159.688 444.262 159.327 444.418 159.146 C 444.579 158.962 443.36 156.856 441.715 154.466 C 440.075 152.076 437.465 147.509 435.917 144.312 C 434.369 141.116 432.845 138.341 432.528 138.145 C 432.207 137.948 432.103 136.986 432.291 136.003 C 432.5 134.908 432.372 134.375 431.963 134.628 C 430.812 135.341 421.849 119.613 420.706 114.869 C 420.461 113.863 419.996 113.201 419.667 113.405 C 419.338 113.61 418.789 113.049 418.452 112.154 C 417.538 109.748 411.406 108.449 410.736 110.522 M 486.594 115.868 C 484.011 118.057 481.898 120.119 481.898 120.447 C 481.898 120.78 481.609 121.049 481.256 121.049 C 480.904 121.049 479.352 122.252 477.808 123.72 C 476.26 125.192 474.728 126.395 474.395 126.395 C 474.066 126.395 473.982 126.695 474.21 127.064 C 474.439 127.429 474.323 127.73 473.954 127.73 C 473.589 127.73 471.724 129.23 469.815 131.059 C 467.91 132.887 466.086 134.223 465.769 134.026 C 465.448 133.83 465.187 134.006 465.187 134.423 C 465.187 135.522 463.431 137.106 462.821 136.557 C 462.533 136.296 462.497 136.432 462.741 136.853 C 462.994 137.298 461.594 138.991 459.445 140.848 C 455.062 144.633 453.574 147.128 454.151 149.746 C 454.64 151.976 456.076 152.2 474.21 152.882 C 488.756 153.428 487.805 154.414 492.012 134.415 C 494.057 124.69 494.711 122.384 495.421 122.384 C 495.781 122.384 495.902 121.931 495.689 121.382 C 495.481 120.832 495.613 120.379 495.986 120.379 C 496.395 120.379 496.584 118.715 496.467 116.201 L 496.267 112.026 L 493.78 111.954 C 491.663 111.894 490.588 112.479 486.594 115.868 M 921.352 129.863 C 919.146 130.196 915.088 131.067 912.329 131.796 C 909.574 132.53 906.341 133.192 905.154 133.268 C 903.963 133.348 902.832 133.822 902.64 134.323 C 902.395 134.952 902.03 135.029 901.461 134.567 C 900.422 133.729 897.739 134.676 897.206 136.067 C 896.99 136.625 896.528 136.901 896.176 136.685 C 895.823 136.468 895.029 136.733 894.407 137.278 C 893.572 137.939 892.624 138.44 891.608 138.758 C 890.69 139.031 889.486 139.648 888.933 140.13 C 888.384 140.611 887.181 141.333 886.262 141.73 C 884.946 142.338 883.663 143.019 882.42 143.767 C 881.225 144.489 880.247 144.966 880.247 144.822 C 880.247 144.681 877.849 146.943 874.917 149.85 C 871.99 152.758 869.283 155.136 868.902 155.136 C 868.525 155.136 868.216 155.754 868.216 156.511 C 868.216 157.318 867.919 157.703 867.502 157.446 C 867.109 157.205 866.628 157.614 866.436 158.364 C 866.239 159.11 865.686 159.872 865.2 160.057 C 864.418 160.357 862.959 163.144 857.978 173.848 C 854.261 181.832 856.775 203.227 862.249 210.184 C 862.959 211.087 863.536 212.113 863.536 212.47 C 863.536 212.827 863.985 213.493 864.531 213.946 C 865.08 214.399 865.333 215.085 865.096 215.466 C 864.848 215.871 864.992 215.963 865.441 215.687 C 865.862 215.426 866.211 215.494 866.211 215.839 C 866.211 216.862 871.629 221.971 872.712 221.971 C 873.317 221.971 873.558 222.36 873.325 222.969 C 872.916 224.036 875.415 226.823 876.293 226.282 C 876.577 226.105 877.003 226.27 877.239 226.651 C 877.476 227.031 877.945 227.168 878.29 226.955 C 878.631 226.743 878.911 226.855 878.911 227.2 C 878.911 227.545 879.838 228.21 880.973 228.68 C 882.108 229.149 883.391 229.863 883.828 230.264 C 884.269 230.665 886.054 231.659 887.798 232.469 C 889.543 233.283 892.322 234.603 893.974 235.409 C 895.63 236.215 897.174 236.684 897.407 236.448 C 897.643 236.211 898.165 236.271 898.566 236.58 C 904.372 241.023 951.549 240.999 957.528 236.544 C 957.941 236.235 958.735 236.159 959.297 236.375 C 959.858 236.592 960.516 236.448 960.756 236.055 C 961.001 235.662 961.915 235.341 962.79 235.341 C 963.668 235.341 964.57 235.04 964.795 234.671 C 965.023 234.302 965.657 234.001 966.198 234.001 C 966.744 234.001 967.838 233.4 968.624 232.666 C 969.414 231.932 970.529 231.318 971.103 231.306 C 971.68 231.294 972.731 230.845 973.445 230.304 C 974.159 229.766 975.149 229.325 975.646 229.325 C 976.513 229.325 979.821 227.224 981.702 225.48 C 982.199 225.022 982.925 224.645 983.322 224.645 C 983.715 224.645 984.669 224.04 985.443 223.302 C 994.703 214.451 997.879 211.279 997.47 211.279 C 997.197 211.279 997.586 210.602 998.332 209.775 C 999.074 208.945 1000.357 206.844 1001.18 205.1 C 1002.002 203.355 1002.948 201.759 1003.285 201.55 C 1003.622 201.342 1003.894 200.724 1003.894 200.179 C 1003.894 199.63 1004.496 197.937 1005.234 196.417 C 1005.968 194.893 1006.569 192.804 1006.569 191.769 C 1006.569 190.735 1006.87 189.889 1007.239 189.889 C 1008.326 189.889 1008.069 180.601 1006.95 179.482 C 1005.454 177.986 1004.937 178.255 1000.598 182.771 C 998.356 185.108 995.477 187.583 994.194 188.273 C 992.914 188.962 991.864 189.776 991.864 190.081 C 991.864 190.386 991.563 190.45 991.198 190.226 C 990.829 189.997 990.528 190.129 990.528 190.518 C 990.528 190.907 990.151 191.224 989.694 191.224 C 989.233 191.224 987.653 191.806 986.185 192.519 C 979.805 195.615 976.773 196.582 969.976 197.701 C 967.955 198.033 966.968 197.167 968.376 196.301 C 968.689 196.105 969.771 193.682 970.782 190.915 C 974.086 181.848 972.51 171.397 966.812 164.628 C 965.821 163.449 965.224 162.487 965.484 162.487 C 968.119 162.487 953.281 153.728 950.258 153.5 C 948.85 153.396 950.346 152.128 951.878 152.128 C 952.86 152.132 953.53 152 953.369 151.84 C 952.828 151.298 957.127 149.834 958.126 150.219 C 958.671 150.428 959.116 150.34 959.116 150.027 C 959.116 149.71 960.391 149.433 961.955 149.409 C 978.361 149.149 982.187 149.249 982.897 149.955 C 983.575 150.632 987.304 150.572 988.415 149.871 C 990.821 148.343 989.02 146.093 980.868 140.43 C 979.546 139.514 978.255 138.554 976.998 137.551 C 976.188 136.885 974.977 136.484 974.299 136.665 C 973.609 136.845 972.911 136.569 972.707 136.039 C 972.506 135.518 972.073 135.257 971.744 135.462 C 971.416 135.666 971.147 135.494 971.147 135.085 C 971.147 134.672 970.846 134.523 970.477 134.748 C 970.108 134.977 969.807 134.876 969.807 134.523 C 969.807 134.174 969.134 133.87 968.304 133.842 C 965.801 133.769 961.498 132.951 960.784 132.418 C 960.131 131.925 955.792 131.083 947.029 129.739 C 941.808 128.941 927.014 129.013 921.352 129.863 M 166.244 152.293 C 165.242 154.246 161.34 170.768 160.722 175.688 C 160.482 177.617 160.085 179.077 159.844 178.929 C 159.603 178.78 159.415 179.907 159.427 181.435 C 159.435 182.959 159.246 184.511 159.006 184.876 C 158.525 185.614 157.418 193.213 157.654 194.168 C 157.735 194.496 157.598 195.25 157.346 195.84 C 157.097 196.425 156.792 197.809 156.668 198.912 C 156.235 202.778 155.597 207.614 155.349 208.937 C 155.208 209.675 154.956 211.728 154.787 213.505 C 154.477 216.087 154.037 218.651 153.468 221.189 C 152.074 227.546 150.832 233.937 149.742 240.353 C 149.462 242.134 149.016 242.956 148.403 242.82 C 147.629 242.647 147.625 242.788 148.391 243.706 C 149.141 244.612 149.145 244.893 148.407 245.35 C 147.918 245.651 147.701 246.381 147.926 246.97 C 148.15 247.556 148.01 248.037 147.613 248.037 C 147.2 248.037 147.023 248.759 147.204 249.709 C 147.38 250.628 147.268 251.382 146.951 251.382 C 146.081 251.382 146.261 255.011 147.176 255.925 C 147.693 256.443 147.721 256.727 147.264 256.727 C 146.863 256.727 146.346 258.861 146.089 261.572 C 145.697 265.106 145.132 268.619 144.397 272.099 C 143.214 277.556 142.307 282.244 140.908 290.145 C 140.288 293.472 139.62 296.79 138.903 300.098 C 138.157 303.547 137.503 307.834 137.447 309.622 C 137.395 311.407 137.09 312.871 136.773 312.871 C 136.452 312.871 136.348 313.472 136.541 314.206 C 136.733 314.94 136.597 315.722 136.24 315.946 C 135.883 316.167 135.751 316.769 135.947 317.282 C 136.144 317.795 135.979 318.216 135.578 318.216 C 135.097 318.216 135.129 318.557 135.678 319.219 C 136.176 319.82 136.236 320.221 135.819 320.221 C 135.442 320.221 135.213 320.975 135.313 321.894 C 135.414 322.812 135.313 323.566 135.085 323.566 C 134.86 323.566 134.6 325.747 134.499 328.41 C 134.403 331.077 134.054 334.157 133.721 335.26 C 133.388 336.363 132.771 339.37 132.346 341.945 C 131.752 345.369 131.065 348.776 130.285 352.163 C 129.575 355.207 128.997 358.431 128.997 359.321 C 128.997 360.211 128.408 363.472 127.686 366.564 C 126.964 369.656 126.258 373.654 126.118 375.446 C 125.978 377.239 125.693 379.156 125.48 379.709 C 125.268 380.259 124.907 382.364 124.682 384.385 C 124.057 389.963 123.547 392.422 123.074 392.133 C 122.838 391.993 122.549 393.986 122.433 396.564 C 122.316 399.143 121.935 401.994 121.59 402.904 C 121.245 403.811 120.792 406.558 120.58 409.008 C 120.367 411.454 119.617 415.765 118.916 418.584 C 118.21 421.404 117.632 424.62 117.632 425.731 C 117.632 426.842 117.303 427.956 116.902 428.205 C 116.501 428.454 116.309 429.372 116.477 430.25 C 116.642 431.124 116.485 431.842 116.124 431.842 C 115.767 431.842 115.631 432.444 115.824 433.178 C 116.016 433.912 115.876 434.513 115.515 434.513 C 115.154 434.513 114.941 435.652 115.042 437.04 C 115.142 438.427 115.07 439.859 114.881 440.216 C 114.697 440.573 114.597 441.539 114.661 442.369 C 114.725 443.195 114.528 443.873 114.22 443.873 C 113.915 443.873 113.827 444.294 114.023 444.807 C 114.22 445.321 114.111 445.91 113.782 446.111 C 113.454 446.315 113.257 447.927 113.349 449.688 C 113.438 451.452 112.936 455.202 112.23 458.017 C 111.525 460.836 110.951 463.832 110.951 464.67 C 110.951 465.512 110.374 468.769 109.672 471.913 C 108.797 475.893 107.987 479.888 107.242 483.895 C 106.504 487.925 105.65 490.612 104.848 491.414 C 104.158 492.1 103.596 493.359 103.596 494.209 C 103.596 495.056 103.071 496.335 102.429 497.049 C 101.784 497.763 101.254 498.645 101.246 499.014 C 101.23 499.884 97.541 507.463 96.623 508.514 C 94.67 510.744 94.353 511.265 94.726 511.642 C 94.95 511.863 94.79 512.047 94.373 512.047 C 93.956 512.047 93.787 512.496 94 513.05 C 94.229 513.643 94.004 514.052 93.451 514.052 C 92.937 514.052 92.472 514.702 92.412 515.496 C 92.352 516.29 91.911 517.188 91.433 517.489 C 90.956 517.794 90.78 518.046 91.04 518.05 C 91.301 518.058 90.796 519.338 89.918 520.902 C 89.039 522.466 87.523 525.321 86.553 527.25 C 85.582 529.183 84.528 530.759 84.211 530.759 C 83.637 530.759 82.851 532.575 82.944 533.694 C 82.972 534.019 82.611 534.524 82.142 534.813 C 81.672 535.102 81.175 536.185 81.039 537.215 C 80.898 538.246 80.55 539.244 80.257 539.437 C 79.968 539.625 78.729 541.663 77.502 543.96 C 76.275 546.258 75.028 548.139 74.731 548.139 C 74.434 548.139 74.189 548.492 74.189 548.921 C 74.189 549.35 73.768 550.176 73.251 550.758 C 72.734 551.339 71.005 554.311 69.409 557.363 C 66.209 563.474 65.708 564.357 63.951 566.959 C 63.294 567.938 62.704 569.365 62.648 570.131 C 62.592 570.901 62.231 571.535 61.85 571.543 C 61.469 571.547 61.605 571.844 62.159 572.201 C 62.945 572.71 62.965 572.85 62.243 572.858 C 61.509 572.866 61.489 573.063 62.151 573.861 C 62.604 574.41 62.812 575.288 62.608 575.818 C 62.058 577.249 65.046 578.882 68.226 578.882 C 72.036 578.882 75.248 576.989 83.882 569.642 L 92.737 562.119 C 93.563 561.417 94.241 561.02 94.241 561.237 C 94.241 561.449 96.378 559.472 98.993 556.845 C 101.724 554.098 104.13 552.21 104.643 552.406 C 105.65 552.791 108.946 549.226 108.946 547.754 C 108.946 547.229 109.171 546.796 109.447 546.792 C 111.059 546.768 115.627 541.358 115.627 539.477 C 115.627 538.358 115.294 537.444 114.889 537.444 C 114.48 537.444 114.32 536.995 114.532 536.449 C 114.741 535.904 114.697 535.511 114.436 535.583 C 113.522 535.832 108.946 533.995 108.946 533.381 C 108.946 533.045 108.517 532.764 107.992 532.764 C 106.468 532.764 102.931 529.427 102.931 527.988 C 102.931 527.262 103.203 526.841 103.54 527.049 C 103.877 527.258 104.27 527.073 104.415 526.636 C 104.711 525.75 127.658 525.365 127.658 526.247 C 127.658 526.524 128.111 526.749 128.66 526.749 C 129.214 526.749 129.663 526.516 129.663 526.227 C 129.663 525.938 130.425 525.642 131.359 525.566 C 132.29 525.489 133.982 524.896 135.117 524.25 C 136.252 523.604 137.752 522.774 138.445 522.409 C 139.139 522.045 139.572 521.391 139.404 520.954 C 139.239 520.521 139.532 519.807 140.057 519.37 C 140.583 518.937 140.86 518.331 140.675 518.03 C 140.487 517.729 140.643 517.296 141.016 517.064 C 141.389 516.835 141.694 516.17 141.694 515.588 C 141.694 515.007 143.153 511.49 144.938 507.776 C 146.723 504.059 148.599 500.04 149.113 498.845 C 149.622 497.65 150.284 496.672 150.576 496.672 C 150.869 496.672 151.05 496.299 150.973 495.838 C 150.901 495.376 151.186 494.157 151.611 493.123 C 154.286 486.638 155.405 484.156 156.187 482.989 C 156.672 482.263 157.069 481.152 157.069 480.519 C 157.069 479.881 157.474 479.123 157.971 478.826 C 159.222 478.088 160.558 475.397 160.069 474.603 C 159.844 474.242 160.121 473.95 160.682 473.95 C 161.284 473.95 161.556 473.565 161.344 473.015 C 161.147 472.498 161.308 471.88 161.701 471.636 C 162.094 471.395 162.415 470.617 162.415 469.911 C 162.415 469.206 163.301 466.739 164.384 464.437 C 169.356 453.866 170.082 452.194 169.93 451.725 C 169.842 451.448 170.086 451.224 170.475 451.224 C 170.864 451.224 170.996 450.923 170.768 450.554 C 170.543 450.189 170.676 449.888 171.065 449.888 C 172.765 449.888 171.875 442.149 170.062 441.178 C 168.225 440.196 163.738 441.996 161.268 444.707 C 160.682 445.349 159.916 445.878 159.567 445.878 C 159.218 445.878 157.767 446.8 156.339 447.927 C 154.915 449.058 153.444 449.792 153.071 449.559 C 152.694 449.331 152.389 449.539 152.389 450.025 C 152.389 450.51 151.186 451.653 149.714 452.559 C 148.246 453.469 147.043 454.444 147.043 454.725 C 147.043 455.005 146.735 455.234 146.362 455.234 C 145.985 455.234 144.513 455.968 143.093 456.866 C 140.487 458.51 139.059 458.47 140.455 456.79 C 140.912 456.237 141.048 454.729 140.799 452.916 C 140.559 451.16 140.671 449.772 141.076 449.523 C 141.537 449.235 141.529 448.822 141.048 448.24 C 140.645 447.712 140.521 447.023 140.715 446.387 C 140.928 445.842 141.176 443.171 141.273 440.456 C 141.369 437.741 141.97 431.157 142.608 425.827 C 145.924 398.1 147.432 384.233 148.459 372.022 C 149.433 360.456 149.558 359.397 150.083 358.082 C 150.356 357.4 150.612 353.867 150.649 350.23 C 150.689 346.597 150.913 343.617 151.15 343.617 C 151.39 343.617 151.535 342.562 151.475 341.275 C 151.414 339.988 151.519 338.937 151.707 338.937 C 151.9 338.937 152.104 337.81 152.168 336.431 C 152.81 322.295 153.155 317.382 154.017 310.196 C 154.567 305.604 155.485 297.179 156.054 291.484 C 158.256 269.544 159.295 261.407 159.884 261.407 C 160.221 261.407 160.446 259.374 160.381 256.896 C 160.313 254.413 160.417 251.931 160.61 251.382 C 161.4 249.1 162.17 243.429 161.645 243.758 C 161.332 243.951 161.079 243.79 161.079 243.401 C 161.079 243.008 161.368 242.691 161.721 242.691 C 162.082 242.691 162.362 239.884 162.366 236.175 C 162.374 229.005 162.451 227.817 163.646 216.625 C 165.394 200.199 166.409 190.021 166.774 185.213 C 166.982 182.454 167.447 177.641 167.808 174.517 C 169.216 162.23 169.801 153.997 169.348 152.814 C 168.947 151.767 166.71 151.394 166.244 152.293 M 504.628 163.971 C 501.536 165.623 502.426 169.356 507.13 174.485 C 508.326 175.789 509.472 177.385 509.681 178.026 C 509.89 178.668 510.339 179.197 510.684 179.197 C 511.024 179.197 511.305 179.63 511.305 180.164 C 511.305 180.697 511.726 181.375 512.24 181.668 C 512.753 181.964 514.585 184.082 516.306 186.38 C 520.517 191.998 528.092 191.814 532.423 185.995 C 532.828 185.449 533.506 185.221 533.927 185.481 C 534.352 185.746 534.697 185.662 534.697 185.297 C 534.697 184.631 536.802 183.721 538.755 183.544 C 539.333 183.492 540.439 182.867 541.213 182.157 C 543.784 179.803 544.658 179.197 545.48 179.197 C 545.925 179.197 546.84 178.696 547.518 178.087 C 549.687 176.122 556.717 172.412 557.431 172.853 C 558.121 173.278 558.718 169.866 558.317 167.8 C 558.036 166.353 557.663 166.116 555.867 166.248 C 554.7 166.333 551.584 166.132 548.941 165.803 C 546.294 165.474 538.326 164.889 531.228 164.508 C 524.13 164.127 515.616 163.65 512.308 163.445 C 507.973 163.181 505.827 163.329 504.628 163.971 M 757.265 242.23 C 757.265 242.531 756.74 242.724 756.098 242.655 C 755.541 242.587 754.978 242.602 754.426 242.699 C 753.821 242.846 753.207 242.955 752.589 243.024 C 752.079 243.069 751.575 243.166 751.085 243.313 C 750.993 243.381 749.561 243.562 747.909 243.714 C 744.176 244.059 739.889 245.378 739.889 246.18 C 739.889 246.509 739.608 246.609 739.267 246.397 C 738.661 246.024 729.863 248.591 729.193 249.336 C 728.556 250.046 725.865 251.382 725.071 251.382 C 724.63 251.382 723.523 252.055 722.612 252.885 C 721.077 254.285 720.992 254.297 721.446 253.054 C 721.863 251.895 721.678 251.943 720.046 253.423 C 719.011 254.361 716.962 255.933 715.494 256.92 C 714.023 257.906 711.167 260.244 709.142 262.117 C 707.121 263.986 705.316 265.57 705.132 265.634 C 702.561 266.536 695.664 278.98 693.675 286.303 C 693.197 288.047 692.564 289.479 692.263 289.479 C 691.958 289.479 691.758 292.787 691.814 296.83 C 691.87 300.872 692.131 304.18 692.395 304.18 C 692.664 304.18 692.917 304.557 692.961 305.019 C 693.161 307.096 695.13 313.015 696.073 314.354 C 696.646 315.172 697.111 316.211 697.111 316.668 C 697.111 318.04 703.375 326.89 704.631 327.291 C 705.276 327.496 705.802 328.025 705.802 328.462 C 705.802 328.9 706.403 329.633 707.137 330.095 C 707.875 330.552 708.476 331.394 708.476 331.963 C 708.476 332.533 708.753 332.83 709.094 332.617 C 709.435 332.408 710.71 333.158 711.933 334.285 C 714.901 337.02 725.063 343.773 726.434 343.926 C 727.032 343.99 727.974 344.239 728.528 344.471 C 731.752 345.847 737.025 347.627 737.883 347.631 C 738.433 347.631 739.744 348.08 740.795 348.63 C 741.842 349.175 744.4 349.929 746.473 350.302 C 748.551 350.671 752.352 351.413 754.927 351.95 C 767.856 354.641 790.967 352.119 804.726 346.52 C 806.013 345.995 807.818 345.466 808.736 345.345 C 811.347 345.005 815.698 342.679 819.76 339.45 C 823.851 336.198 829.429 332.457 829.734 332.761 C 829.946 332.97 830.123 332.717 830.127 332.196 C 830.131 331.679 831.639 329.597 833.471 327.576 C 839.33 321.12 841.937 314.206 838.512 314.206 C 837.614 314.206 836.696 314.507 836.467 314.876 C 836.243 315.245 835.388 315.545 834.574 315.545 C 833.756 315.545 832.497 315.958 831.771 316.464 C 830.504 317.346 825.331 318.601 823.602 318.441 C 823.141 318.401 822.768 318.589 822.768 318.862 C 822.768 319.479 806.747 319.776 805.207 319.187 C 803.92 318.693 804.782 316.215 806.25 316.207 C 806.695 316.207 807.774 315.152 808.648 313.869 C 809.526 312.586 810.509 311.535 810.838 311.535 C 811.167 311.535 811.736 310.705 812.105 309.694 C 812.47 308.684 813.023 307.256 813.332 306.522 C 814.756 303.13 815.518 299.849 815.85 295.675 C 816.211 291.107 815.75 288.452 813.067 279.71 C 812.739 278.639 812.967 278.21 814.026 277.937 C 814.788 277.737 815.413 277.877 815.413 278.25 C 815.413 278.639 816.127 278.752 817.086 278.511 C 818.024 278.274 818.758 278.379 818.758 278.752 C 818.758 279.112 819.167 279.253 819.672 279.06 C 820.178 278.864 821.08 279.197 821.677 279.794 C 822.343 280.464 823.277 280.717 824.1 280.456 C 824.902 280.203 825.439 280.336 825.439 280.785 C 825.439 281.198 825.76 281.338 826.149 281.097 C 826.538 280.857 828.034 281.442 829.473 282.397 C 830.917 283.351 832.256 284.129 832.449 284.129 C 832.645 284.129 834.306 285.184 836.134 286.471 C 840.084 289.246 842.819 289.583 842.819 287.297 C 842.819 285.593 840.449 278.752 839.659 278.162 C 839.375 277.953 838.396 276.353 837.486 274.605 C 836.575 272.86 835.565 271.433 835.24 271.433 C 834.919 271.433 834.827 270.98 835.039 270.43 C 835.272 269.817 835.039 269.428 834.442 269.428 C 833.901 269.428 833.459 269.147 833.459 268.81 C 833.459 268.257 830.925 265.578 828.635 263.717 C 822.648 258.841 817.531 255.316 813.408 253.234 C 810.653 251.839 808.059 250.427 807.65 250.094 C 807.236 249.762 805.885 249.18 804.642 248.803 C 801.981 247.949 799.334 247.053 796.702 246.116 C 793.574 245.013 789.664 244.007 788.007 243.874 C 786.347 243.746 784.695 243.461 784.33 243.245 C 783.965 243.028 781.864 242.792 779.658 242.716 C 774.068 242.527 773.976 242.515 773.976 242.078 C 773.976 241.865 770.218 241.689 765.622 241.689 C 761.027 241.689 757.265 241.934 757.265 242.23 M 534.38 282.505 C 531.717 285.38 529.331 293.461 529.115 300.339 C 529.062 302.083 528.83 303.515 528.597 303.515 C 527.964 303.515 526.464 313.989 526.977 314.82 C 527.226 315.221 527.073 315.545 526.644 315.545 C 526.191 315.545 526.047 316.011 526.295 316.66 C 526.532 317.274 526.444 317.952 526.099 318.164 C 525.754 318.377 525.369 319.155 525.241 319.889 C 525.112 320.622 524.723 321.428 524.382 321.677 C 524.01 321.946 524.09 322.527 524.579 323.121 C 525.088 323.73 525.156 324.268 524.759 324.516 C 524.403 324.733 523.584 326.341 522.939 328.081 C 522.111 330.187 521.086 332.211 519.879 334.125 C 518.84 335.705 517.99 337.301 517.99 337.674 C 517.99 338.043 517.721 338.183 517.397 337.983 C 517.072 337.778 516.43 338.063 515.977 338.612 C 515.524 339.158 515.408 339.607 515.716 339.607 C 516.025 339.607 515.612 340.072 514.794 340.645 C 513.98 341.219 513.31 341.997 513.31 342.378 C 513.31 343.28 510.551 345.57 509.428 345.598 C 508.947 345.61 508.739 345.923 508.967 346.288 C 509.36 346.926 509.047 347.082 507.126 347.218 C 506.669 347.25 505.534 348.032 504.608 348.955 C 502.932 350.627 502.523 350.88 500.61 351.425 C 498.416 352.051 491.651 355.628 492.589 355.668 C 493.143 355.688 492.69 356.121 491.587 356.626 C 490.484 357.132 489.923 357.569 490.34 357.597 C 490.873 357.637 490.809 358.491 490.123 360.484 C 489.501 362.289 489.301 364.35 489.57 366.163 C 489.911 368.412 489.806 368.93 489.08 368.649 C 487.95 368.216 485.608 370.666 486.217 371.645 C 486.458 372.038 487.192 372.354 487.853 372.354 C 489.906 372.354 493.448 373.83 492.621 374.344 C 491.767 374.869 492.998 378.37 494.033 378.37 C 494.342 378.37 494.594 378.823 494.594 379.372 C 494.594 379.926 494.895 380.375 495.264 380.375 C 495.633 380.375 495.942 380.752 495.95 381.213 C 495.962 381.67 496.864 383.23 497.955 384.674 C 499.05 386.118 499.948 387.77 499.956 388.347 C 499.964 388.925 500.562 390.152 501.28 391.07 C 501.997 391.989 502.595 392.967 502.603 393.24 C 502.643 394.663 507.018 403.101 507.716 403.101 C 508.161 403.101 508.875 404.156 509.3 405.439 C 509.725 406.726 510.351 407.781 510.688 407.781 C 511.028 407.781 511.305 408.186 511.305 408.683 C 511.305 409.18 512.035 410.957 512.925 412.633 C 513.816 414.31 514.369 415.857 514.152 416.074 C 513.932 416.291 514.108 416.467 514.537 416.467 C 514.966 416.467 515.315 417.221 515.315 418.139 C 515.315 419.058 515.568 419.812 515.877 419.812 C 516.186 419.812 516.787 420.574 517.212 421.508 C 517.637 422.438 518.307 423.565 518.708 424.014 C 519.105 424.459 520.769 427.154 522.409 430.002 C 526.107 436.438 527.47 436.795 528.778 431.674 C 529.271 429.745 529.636 427.788 529.588 427.331 C 529.54 426.87 529.736 426.493 530.029 426.493 C 530.827 426.493 533.297 417.786 533.221 415.236 C 533.185 414.005 533.426 412.802 533.758 412.561 C 534.464 412.052 534.749 411.005 535.066 407.781 C 535.379 404.533 538.37 393.954 539.281 392.855 C 539.694 392.357 539.834 391.752 539.593 391.511 C 538.041 389.955 541.141 391.74 547.253 395.915 C 577.265 416.419 592.103 448.12 593.306 494.334 C 593.856 515.299 589.24 547.297 584.825 553.152 C 584.548 553.517 584.103 554.572 583.83 555.49 C 581.424 563.711 570.207 583.389 565.167 588.241 C 563.831 589.525 561.545 592.103 560.09 593.968 C 557.571 597.196 547.493 606.328 545.841 606.881 C 545.408 607.025 543.347 608.517 541.258 610.198 C 536.999 613.614 523.58 622.385 519.995 624.093 C 518.708 624.707 513.595 627.237 508.63 629.719 C 497.843 635.109 481.521 642.38 480.198 642.38 C 479.239 642.38 471.311 645.187 468.865 646.394 C 467.1 647.26 450.065 653.179 440.793 656.139 C 426.152 660.819 425.494 662.331 430.094 680.81 C 431.373 685.955 432.424 690.667 432.428 691.28 C 432.436 692.379 437.052 696.518 438.271 696.518 C 438.616 696.518 441.431 698.322 444.523 700.528 C 459.93 711.52 462.432 713.229 464.004 713.826 C 464.943 714.183 466.719 715.35 467.954 716.417 C 469.19 717.487 473.356 720.479 477.218 723.066 C 481.076 725.652 485.407 728.708 486.835 729.855 C 488.262 731.002 489.702 731.94 490.031 731.94 C 490.584 731.94 497.358 736.456 509.881 745.182 C 512.689 747.139 516.186 749.317 517.653 750.026 C 519.125 750.736 521.138 751.995 522.125 752.826 C 524.186 754.55 541.101 765.811 544.097 767.455 C 547.068 769.083 558.373 776.249 558.758 776.747 C 559.42 777.597 572.096 785.409 572.818 785.409 C 573.227 785.409 575.417 786.716 577.687 788.312 C 580.454 790.224 583.281 792.047 586.164 793.778 C 589.464 795.76 592.729 797.8 595.957 799.898 C 598.953 801.855 601.812 803.475 602.305 803.499 C 602.803 803.519 605.461 804.987 608.22 806.759 C 610.976 808.532 617.745 812.783 623.259 816.203 C 634.86 823.402 645.857 830.684 652.995 835.894 C 655.75 837.903 658.252 839.547 658.549 839.547 C 658.85 839.547 660.53 840.678 662.287 842.053 C 678.279 854.625 685.109 860.733 703.211 878.647 C 714.468 889.791 725.424 900.065 727.553 901.477 C 747.32 914.595 782.722 873.048 771.389 850.03 L 769.801 846.809 L 767.042 847.299 C 765.469 847.571 763.874 847.702 762.278 847.688 C 759.11 847.531 742.824 839.106 736.211 834.201 C 727.445 827.697 718.791 821.962 707.466 815.153 C 697.881 809.39 691.096 803.872 691.096 801.835 C 691.096 800.864 686.107 798.703 681.74 797.776 C 677.858 796.954 671.338 793.718 666.205 790.069 C 648.098 777.2 637.247 770.711 630.405 768.662 C 628.813 768.185 624.422 765.265 619.794 761.6 C 601.275 746.951 588.121 737.679 580.045 733.576 C 577.594 732.333 570.011 727.565 563.186 722.981 C 556.36 718.394 549.791 714.167 548.584 713.585 C 547.381 713 545.039 711.488 543.387 710.225 C 537.869 706.002 524.042 696.518 523.404 696.518 C 523.059 696.518 522.678 696.289 522.558 696.013 C 522.434 695.736 519.614 693.354 516.294 690.719 C 495.364 674.125 494.598 661.902 513.98 653.893 C 527.258 648.407 553.818 635.362 558.425 632.057 C 560.35 630.678 568.395 625.789 572.349 623.596 C 574.298 622.517 576.155 621.121 587.764 612.018 C 616.345 589.597 633.818 564.657 644.26 531.364 C 659.086 484.116 638.899 415.4 602.638 389.667 C 600.275 388 597.922 386.318 595.58 384.622 C 595.428 384.497 595.841 383.804 596.495 383.082 C 598.636 380.716 594.112 373.485 589.597 372.05 C 588.811 371.801 588.169 371.316 588.169 370.975 C 588.169 370.63 587.764 370.349 587.267 370.349 C 586.774 370.349 585.675 369.748 584.825 369.014 C 583.979 368.28 582.912 367.678 582.455 367.678 C 582.002 367.678 581.452 367.225 581.244 366.676 C 581.002 366.102 580.457 365.714 579.836 365.673 C 579.271 365.673 578.809 365.236 578.809 364.707 C 578.809 364.178 578.176 363.299 577.402 362.754 C 576.628 362.213 576.175 361.471 576.399 361.11 C 576.644 360.713 576.223 360.6 575.357 360.829 C 574.222 361.126 573.997 360.973 574.318 360.131 C 574.595 359.409 574.274 358.912 573.339 358.615 C 572.245 358.266 572.144 358.05 572.874 357.589 C 573.64 357.103 573.628 356.999 572.794 356.983 C 571.122 356.955 562.785 342.394 562.772 339.479 C 562.772 338.857 562.444 338.147 562.047 337.898 C 560.551 336.976 556.035 324.901 556.424 322.872 C 556.565 322.15 556.376 321.561 556.007 321.561 C 555.638 321.561 555.498 321.3 555.694 320.983 C 556.14 320.261 554.167 314.928 552.891 313.416 C 552.37 312.794 552.121 312 552.338 311.651 C 552.747 310.986 551.913 307.95 550.341 304.413 C 549.823 303.258 549.394 301.754 549.386 301.072 C 549.378 300.395 548.813 298.602 548.127 297.09 C 547.359 295.315 546.782 293.462 546.407 291.564 C 546.15 290.032 545.528 288.372 545.027 287.875 C 544.53 287.374 544.289 286.796 544.494 286.588 C 544.891 286.19 542.272 282.136 541.081 281.302 C 539.465 280.167 535.96 280.801 534.38 282.505 M 429.436 305.608 C 427.603 306.35 425.947 307.176 425.763 307.445 C 425.574 307.709 424.215 308.652 422.747 309.538 C 421.275 310.424 419.695 311.519 419.234 311.968 C 418.773 312.417 417.718 312.995 416.892 313.252 C 416.07 313.508 415.244 313.917 415.059 314.162 C 414.322 315.14 408.523 318.144 408.13 317.747 C 407.897 317.514 407.709 317.791 407.709 318.361 C 407.709 319.275 405.543 320.482 404.224 320.302 C 403.959 320.269 403.915 320.687 404.128 321.232 C 404.336 321.781 404.236 322.226 403.903 322.226 C 403.574 322.226 402.712 322.672 401.994 323.213 C 396.46 327.392 394.242 328.912 393.689 328.912 C 393.336 328.912 392.722 329.521 392.325 330.267 C 391.924 331.013 391.339 331.462 391.022 331.266 C 390.705 331.069 390.344 331.137 390.22 331.414 C 390.096 331.691 388.275 333.202 386.174 334.766 C 384.068 336.334 381.738 338.267 380.992 339.069 C 380.247 339.872 379.625 340.244 379.613 339.9 C 379.601 339.555 379.16 340.024 378.634 340.942 C 378.109 341.861 377.668 342.386 377.656 342.109 C 377.64 341.833 376.136 343.048 374.311 344.804 C 372.17 346.869 369.976 348.281 368.128 348.782 C 364.198 349.853 359.217 354.725 358.214 358.483 C 357.312 361.864 357.452 361.603 353.234 367.687 C 349.364 373.269 346.885 377.572 346.885 378.715 C 346.885 379.152 346.144 380.315 345.237 381.293 C 344.327 382.272 343.453 383.896 343.284 384.898 C 343.12 385.905 342.939 386.727 342.879 386.727 C 342.719 386.727 342.205 389.157 341.893 391.403 C 341.452 394.567 340.224 399.155 339.122 401.737 C 337.02 406.67 335.316 409.786 334.722 409.786 C 334.386 409.786 334.281 410.067 334.494 410.408 C 334.702 410.748 334.197 411.506 333.363 412.092 C 332.529 412.673 331.967 413.327 332.112 413.544 C 332.364 413.917 331.262 415.785 329.842 417.385 C 329.473 417.798 328.31 419.411 327.251 420.967 C 326.197 422.522 325.022 423.605 324.645 423.373 C 324.264 423.136 324.151 423.264 324.392 423.653 C 324.633 424.046 323.49 425.747 321.846 427.435 C 320.205 429.123 319.038 430.503 319.251 430.503 C 319.628 430.503 316.584 434.762 315.148 436.246 C 314.475 436.846 313.732 437.363 312.935 437.785 C 312.105 438.227 311.611 438.896 311.844 439.273 C 312.077 439.646 311.635 440.115 310.87 440.316 C 310.1 440.516 309.65 440.97 309.867 441.322 C 310.4 442.185 307.437 445.277 306.583 444.751 C 306.206 444.519 306.113 444.663 306.37 445.08 C 306.635 445.509 305.263 447.346 303.178 449.363 C 301.165 451.304 298.618 454.039 297.515 455.439 C 296.413 456.834 295.298 457.937 295.037 457.885 C 294.78 457.837 294.383 458.053 294.159 458.37 C 293.549 459.224 288.28 463.254 287.771 463.254 C 287.526 463.254 285.914 463.904 284.189 464.702 C 282.024 465.701 278.968 466.302 274.348 466.643 C 270.659 466.916 265.738 467.762 263.408 468.528 C 261.074 469.294 258.901 469.755 258.576 469.551 C 258.251 469.35 257.798 469.663 257.573 470.248 C 257.305 470.95 256.719 471.175 255.861 470.902 C 254.903 470.597 254.458 470.858 254.193 471.884 C 253.988 472.65 253.611 473.28 253.351 473.28 C 253.086 473.28 250.648 475.209 247.929 477.571 C 245.206 479.929 242.704 481.685 242.363 481.477 C 242.022 481.264 241.946 481.421 242.194 481.818 C 242.579 482.447 241.986 483.326 238.697 486.983 C 237.825 487.813 236.906 488.594 235.946 489.321 C 232.04 492.357 229.919 494.29 229.919 494.815 C 229.919 495.677 227.477 497.847 225.965 498.328 C 225.191 498.573 224.698 499.01 224.874 499.294 C 225.05 499.579 224.465 500.205 223.571 500.682 C 222.676 501.163 222.039 501.733 222.151 501.953 C 222.263 502.174 221.802 502.88 221.124 503.525 C 220.447 504.167 219.893 504.58 219.893 504.44 C 219.893 504.299 218.562 505.426 216.934 506.946 C 203.227 519.731 196.758 524.775 195.583 523.604 C 195.355 523.372 195.166 523.685 195.166 524.298 C 195.166 524.912 194.938 525.437 194.665 525.469 L 192.596 525.694 C 191.737 525.79 190.835 526.175 190.59 526.548 C 188.409 529.921 184.647 530.41 160.049 530.486 C 127.874 530.59 128.997 529.872 128.997 550.401 C 128.997 562.031 128.42 565.259 126.627 563.647 C 126.342 563.386 126.314 563.534 126.563 563.972 C 127.08 564.874 124.418 567.661 123.547 567.124 C 123.235 566.931 122.982 567.071 122.982 567.432 C 122.982 567.793 122.152 568.515 121.141 569.032 C 119.622 569.832 118.118 570.661 116.63 571.519 C 109.973 575.365 106.941 576.909 106.941 576.455 C 106.941 576.183 106.111 576.732 105.1 577.679 C 104.09 578.625 102.646 579.587 101.892 579.812 C 100.28 580.297 97.581 585.478 97.581 588.089 C 97.581 589.092 97.068 592.168 96.442 594.923 C 95.821 597.682 95.291 601.215 95.275 602.779 C 95.259 604.339 94.998 605.618 94.702 605.618 C 94.405 605.618 94.369 605.951 94.622 606.36 C 94.874 606.769 94.666 607.366 94.16 607.687 C 93.491 608.108 93.467 608.273 94.072 608.281 C 94.63 608.289 94.91 609.412 94.91 611.633 C 94.91 613.47 94.609 614.974 94.241 614.974 C 93.877 614.969 93.577 615.259 93.571 615.623 C 93.571 615.98 94.024 616.097 94.573 615.884 C 95.239 615.631 95.584 615.916 95.6 616.742 C 95.672 621.158 104.302 623.88 109.84 621.242 C 112.026 620.199 114.292 616.818 114.292 614.593 C 114.292 614.043 114.769 612.864 115.35 611.974 C 115.936 611.084 116.217 610.041 115.98 609.656 C 115.743 609.275 115.828 608.958 116.165 608.958 C 116.501 608.958 116.963 607.422 117.183 605.546 C 117.404 603.669 117.925 601.728 118.338 601.231 C 118.747 600.737 118.924 600.064 118.723 599.743 C 117.436 597.662 125.324 588.161 132.606 583.028 C 142.047 576.371 147.043 573.251 147.043 574.013 C 147.043 574.234 147.645 573.869 148.379 573.203 C 149.113 572.537 149.714 572.193 149.714 572.441 C 149.714 572.866 155.028 569.65 155.73 568.8 C 155.914 568.575 156.969 567.922 158.071 567.344 C 161.155 565.732 166.052 563.306 166.425 563.206 C 169.212 562.472 172.38 561.096 173.443 560.162 C 174.177 559.516 175.456 558.778 176.282 558.53 C 177.112 558.277 177.786 557.792 177.786 557.451 C 177.786 557.106 178.163 556.825 178.624 556.825 C 179.578 556.821 185.497 553.906 186.877 552.759 C 187.382 552.342 188.493 552.173 189.347 552.39 C 190.382 552.647 191.701 552.234 193.285 551.159 C 194.597 550.265 195.884 549.747 196.141 550.008 C 196.401 550.265 196.514 550.052 196.389 549.535 C 196.169 548.596 197.167 547.943 202.184 545.757 C 203.652 545.115 205.653 544.189 206.631 543.692 C 207.606 543.195 208.713 542.789 209.094 542.789 C 209.471 542.789 210.63 542.445 211.664 542.02 C 212.699 541.594 213.846 541.209 214.215 541.169 C 215.787 540.989 217.888 539.978 217.888 539.405 C 217.888 539.06 218.381 538.779 218.987 538.779 C 219.589 538.779 221.469 538.15 223.162 537.38 C 227.049 535.593 230.973 533.888 234.932 532.267 C 236.724 531.54 238.507 530.793 240.281 530.025 C 241.384 529.54 242.587 529.09 242.952 529.026 C 243.321 528.962 243.923 528.838 244.292 528.754 C 244.656 528.669 245.258 528.541 245.627 528.473 C 247.179 528.176 249.032 527.057 250.367 525.618 C 251.153 524.771 252.232 524.078 252.761 524.078 C 253.291 524.078 254.309 523.637 255.023 523.095 C 255.737 522.554 256.727 522.105 257.229 522.093 C 258.436 522.065 268.71 514.004 270.988 511.301 C 272.881 509.051 278.904 504.027 279.706 504.027 C 279.967 504.027 280.973 503.461 281.952 502.775 C 285.93 499.976 299.613 496.307 301.71 497.482 C 302.472 497.907 302.905 497.775 303.194 497.025 C 303.455 496.347 304.052 496.11 304.858 496.363 C 305.548 496.584 306.113 496.471 306.113 496.114 C 306.113 495.753 306.715 495.617 307.453 495.81 C 308.187 496.002 308.788 495.866 308.788 495.509 C 308.788 495.148 309.57 495.003 310.529 495.188 C 311.487 495.368 312.466 495.252 312.702 494.923 C 313.444 493.897 325.828 490.528 333.182 489.353 C 335.023 489.056 339.198 488.322 342.466 487.713 C 345.734 487.107 348.453 486.694 348.514 486.795 C 350.025 489.437 350.908 494.815 351.168 503.024 C 351.2 504.127 351.63 505.446 352.115 505.959 C 352.784 506.665 352.805 507.014 352.211 507.379 C 351.702 507.696 351.662 508.017 352.099 508.285 C 352.472 508.518 352.62 509.308 352.428 510.042 C 352.235 510.776 352.371 511.377 352.728 511.377 C 353.089 511.377 353.302 512.52 353.202 513.912 C 353.101 515.307 353.583 519.141 354.272 522.434 C 354.958 525.726 355.532 529.7 355.548 531.26 C 355.564 532.824 355.892 534.103 356.281 534.103 C 356.67 534.103 356.795 534.416 356.562 534.797 C 356.326 535.178 356.47 537.66 356.887 540.311 C 357.304 542.962 358.246 549.041 358.98 553.818 C 359.718 558.598 360.773 565.219 361.33 568.531 C 361.884 571.844 362.14 575.152 361.9 575.882 C 361.571 576.88 361.627 576.981 362.132 576.275 C 362.61 575.597 362.862 576.467 363.031 579.387 C 363.155 581.617 363.035 583.297 362.758 583.124 C 362.485 582.956 362.257 583.285 362.257 583.854 C 362.257 584.428 362.598 584.897 363.011 584.897 C 363.488 584.897 363.616 585.627 363.359 586.902 C 363.139 588.005 363.243 588.907 363.592 588.907 C 363.937 588.907 364.049 589.36 363.837 589.91 C 363.612 590.495 363.829 590.916 364.358 590.924 C 364.931 590.928 365.008 591.117 364.571 591.426 C 363.728 592.019 364.129 598.933 365.008 598.933 C 365.349 598.933 365.437 599.687 365.204 600.605 C 364.936 601.676 365.068 602.277 365.573 602.277 C 366.054 602.277 366.195 602.795 365.934 603.609 C 365.701 604.343 365.81 605.923 366.179 607.118 C 366.792 609.123 367.45 612.716 368.966 622.328 C 369.287 624.35 369.98 628.709 370.514 632.017 C 371.047 635.326 371.524 639.837 371.58 642.043 C 371.633 644.248 371.977 647.196 372.35 648.596 C 372.719 649.991 373.173 652.999 373.357 655.277 C 373.81 660.835 374.143 664.099 374.259 664.099 C 374.311 664.099 374.48 665.547 374.636 667.311 C 374.793 669.076 375.093 670.796 375.302 671.137 C 375.643 671.686 376.272 678.4 376.533 684.255 C 376.585 685.414 376.818 686.244 377.054 686.099 C 377.287 685.955 377.668 687.563 377.901 689.672 C 378.133 691.782 378.919 697.043 379.649 701.362 L 382.292 717.07 C 383.675 725.291 384.742 735.894 384.441 738.457 C 384.345 739.283 384.538 739.961 384.874 739.961 C 385.211 739.961 385.336 741.316 385.147 742.968 C 384.939 744.817 385.075 745.976 385.5 745.976 C 385.881 745.976 386.037 746.578 385.845 747.312 C 385.652 748.049 385.821 748.651 386.222 748.651 C 386.619 748.651 386.779 749.088 386.575 749.621 C 386.371 750.193 386.408 750.823 386.679 751.366 C 386.944 751.791 387.216 753.235 387.285 754.57 C 387.353 755.909 387.914 758.055 388.528 759.342 C 389.482 761.351 390.998 767.575 390.998 769.5 C 390.998 769.837 390.697 769.929 390.328 769.705 C 388.881 768.806 389.683 773.462 391.227 774.914 C 393.023 776.606 395.365 782.285 394.708 783.356 C 394.463 783.749 394.579 784.073 394.968 784.073 C 395.357 784.073 395.618 784.298 395.55 784.575 C 395.477 784.851 395.686 786.127 396.007 787.414 C 396.328 788.701 396.524 790.357 396.44 791.091 C 396.34 791.965 396.476 792.15 396.837 791.625 C 397.206 791.083 397.663 791.512 398.249 792.964 C 400.578 798.727 402.058 802.119 403.799 805.685 C 404.845 807.83 405.704 810.064 405.704 810.645 C 405.704 811.231 406.205 812.261 406.818 812.939 C 407.432 813.617 407.973 814.712 408.021 815.373 C 408.07 816.035 409.136 818.212 410.392 820.21 C 415.621 828.531 416.912 831.025 416.539 832.124 C 416.367 832.633 416.487 832.906 416.812 832.73 C 417.133 832.553 417.927 832.962 418.568 833.64 C 419.21 834.318 419.511 834.879 419.238 834.891 C 418.961 834.903 419.266 835.22 419.92 835.601 C 420.57 835.978 420.93 836.571 420.714 836.916 C 420.501 837.261 420.762 837.542 421.291 837.542 C 421.821 837.542 422.434 838.071 422.647 838.713 C 423.156 840.225 424.235 841.893 426.966 845.398 C 428.189 846.958 429.035 848.237 428.855 848.237 C 428.526 848.237 429.645 849.653 433.607 854.24 C 434.802 855.624 435.78 857.092 435.78 857.509 C 435.78 857.922 436.153 858.271 436.614 858.279 C 437.076 858.291 438.034 859.566 438.744 861.122 C 439.458 862.674 441.583 865.597 443.468 867.619 C 448.525 873.044 451.677 877.211 451.368 878.061 C 451.22 878.474 451.721 878.976 452.479 879.172 C 453.241 879.373 453.79 879.786 453.698 880.094 C 453.61 880.403 454.576 881.751 455.852 883.094 C 459.096 886.511 461.097 888.945 461.899 890.445 C 463.162 892.803 478.75 908.363 482.187 910.693 C 491.306 916.884 499.459 917.045 499.186 911.029 C 499.102 909.209 498.769 907.721 498.448 907.721 C 498.123 907.721 498.031 907.444 498.24 907.107 C 498.665 906.418 495.902 901.778 495.036 901.734 C 494.302 901.698 491.972 898.894 491.944 898.012 C 491.932 897.635 491.294 896.789 490.528 896.131 C 489.75 895.466 489.305 894.503 489.522 893.946 C 489.73 893.396 489.618 893.124 489.269 893.34 C 488.924 893.553 488.102 892.891 487.448 891.868 C 486.795 890.846 485.924 889.711 485.515 889.342 C 485.106 888.973 483.759 887.169 482.52 885.332 C 481.451 883.728 480.319 882.167 479.127 880.652 C 478.497 879.918 477.888 878.863 477.768 878.314 C 477.651 877.76 477.022 876.914 476.372 876.429 C 475.722 875.944 475.377 875.246 475.61 874.873 C 475.839 874.5 475.281 873.393 474.371 872.411 C 472.314 870.197 467.862 863.669 467.862 862.866 C 467.862 862.542 467.333 862.269 466.691 862.261 C 465.713 862.253 465.681 862.153 466.503 861.631 C 467.321 861.114 467.209 860.773 465.833 859.574 C 464.927 858.784 464.273 857.713 464.381 857.196 C 464.49 856.679 464.245 856.258 463.84 856.258 C 463.435 856.258 463.291 855.957 463.515 855.588 C 463.744 855.223 463.459 854.922 462.89 854.922 C 462.316 854.922 461.847 854.633 461.847 854.281 C 461.847 853.667 459.248 849.432 457.845 847.764 C 457.445 847.246 457.209 846.62 457.167 845.967 C 457.167 845.422 456.882 844.8 456.537 844.584 C 456.192 844.371 455.222 842.775 454.384 841.039 C 453.546 839.298 452.455 837.426 451.958 836.876 C 449.712 834.378 443.705 823.157 444.298 822.564 C 444.515 822.347 444.322 822.171 443.873 822.171 C 443.42 822.171 443.219 821.902 443.424 821.573 C 443.624 821.244 443.324 820.795 442.75 820.575 C 442.177 820.354 441.864 819.921 442.056 819.612 C 442.249 819.303 441.663 817.964 440.761 816.636 C 439.859 815.309 439.121 813.978 439.121 813.685 C 439.125 813.388 438.479 811.792 437.689 810.14 C 436.899 808.488 435.885 806.23 435.431 805.127 L 433.495 800.439 C 432.881 798.967 432.328 797.01 432.263 796.096 C 432.136 795.035 431.706 794.032 431.024 793.209 C 430.307 792.334 429.803 791.304 429.552 790.201 C 429.36 789.222 428.257 785.862 427.102 782.738 C 425.943 779.61 424.905 776.306 424.792 775.383 C 424.619 774.23 424.319 773.099 423.898 772.011 C 423.506 770.911 423.385 769.734 423.545 768.578 C 423.726 767.627 423.557 766.657 423.172 766.42 C 422.787 766.18 422.631 765.566 422.827 765.057 C 423.024 764.543 422.799 763.425 422.334 762.57 C 421.869 761.716 421.287 759.659 421.043 758.007 C 420.561 754.751 419.038 746.674 417.004 736.62 C 416.299 733.127 415.721 729.161 415.725 727.806 C 415.725 726.45 415.432 724.565 415.071 723.619 C 414.217 721.365 412.766 710.345 412.85 706.708 C 412.882 705.148 412.649 703.869 412.332 703.869 C 412.012 703.869 411.931 702.966 412.152 701.864 C 412.441 700.416 412.296 699.854 411.635 699.846 C 410.905 699.838 410.921 699.69 411.719 699.129 C 412.473 698.595 412.513 698.334 411.883 698.082 C 411.426 697.893 411.049 697.448 411.049 697.091 C 411.049 696.73 411.322 696.606 411.655 696.811 C 411.988 697.019 412.104 696.586 411.911 695.848 C 411.719 695.114 411.326 694.513 411.033 694.513 C 410.744 694.513 410.656 693.943 410.837 693.25 C 411.017 692.556 410.853 691.794 410.468 691.557 C 410.083 691.321 409.946 690.667 410.163 690.101 C 410.38 689.536 410.251 688.417 409.878 687.615 C 409.269 686.312 408.102 679.976 405.615 664.436 C 405.169 661.647 404.849 658.84 404.657 656.022 C 404.569 654.154 404.039 650.244 403.478 647.336 C 402.909 644.361 402.422 641.371 402.018 638.369 C 401.793 636.472 401.546 634.578 401.276 632.687 C 401.112 631.584 400.719 628.725 400.41 626.339 C 399.957 623.095 399.425 619.863 398.814 616.646 C 398.249 613.706 397.294 608.293 396.697 604.615 C 396.057 600.71 395.38 596.81 394.667 592.917 C 393.416 586.236 392.125 577.057 392.057 574.37 C 392.025 573.175 391.74 572.201 391.419 572.201 C 391.098 572.201 391.211 571.747 391.668 571.198 C 392.189 570.568 392.233 570.195 391.792 570.195 C 391.355 570.195 391.227 569.297 391.459 567.861 C 391.68 566.506 391.511 565.135 391.062 564.589 C 390.633 564.072 390.328 563.394 390.384 563.081 C 390.44 562.723 390.419 562.357 390.324 562.007 C 390.161 561.235 390.05 560.454 389.991 559.669 C 389.31 552.342 388.752 548.66 387.838 545.464 C 387.26 543.443 386.675 540.736 386.535 539.449 C 386.178 536.132 384.526 525.682 382.998 517.06 C 381.738 509.942 380.716 503.188 380.652 501.564 C 380.627 501.112 380.46 500.68 380.174 500.329 C 379.93 500.084 379.866 499.527 380.034 499.09 C 380.327 498.328 379.513 491.884 378.59 487.649 C 378.305 486.214 378.103 484.764 377.985 483.306 C 377.893 482.018 377.744 480.968 377.652 480.968 C 377.447 480.968 375.839 471.644 375.057 465.929 C 374.602 462.795 374.059 459.673 373.429 456.569 C 371.492 447.234 370.646 439.791 371.464 439.289 C 371.873 439.033 372.755 437.581 373.417 436.061 C 374.985 432.472 382.721 423.874 385.396 422.747 C 388.014 421.648 388.323 420.225 388.323 409.369 L 388.323 401.096 L 384.149 401.108 C 377.7 401.124 373.778 403.903 372.655 409.253 C 372.447 410.243 371.532 411.899 370.63 412.926 L 368.986 414.799 L 368.914 411.454 C 368.874 409.618 368.717 407.436 368.561 406.61 C 368.408 405.784 368.561 405.106 368.906 405.106 C 369.247 405.106 369.511 403.931 369.491 402.495 C 369.471 401.06 369.623 399.612 369.828 399.279 C 370.033 398.95 370.261 396.741 370.333 394.375 C 370.405 392.005 370.682 389.767 370.947 389.398 C 371.216 389.033 371.637 387.878 371.885 386.831 C 372.202 385.5 372.643 385.051 373.353 385.324 C 373.906 385.536 375.394 385.279 376.657 384.754 C 378.085 384.157 381.959 383.715 386.944 383.587 L 394.94 383.383 L 395.309 381.045 C 395.726 378.398 395.337 373.429 394.627 372.282 C 392.658 369.094 395.305 349.877 398.02 347.623 C 399.119 346.709 399.42 343.958 398.349 344.62 C 397.984 344.844 397.683 344.712 397.683 344.323 C 397.683 343.934 398.285 343.617 399.019 343.617 C 399.752 343.617 400.354 343.232 400.354 342.763 C 400.354 342.294 400.883 341.44 401.525 340.87 C 402.167 340.297 403.847 338.524 405.258 336.928 C 407.28 334.638 407.945 334.225 408.423 334.979 C 408.751 335.5 409.028 335.605 409.032 335.208 C 409.04 334.811 409.786 334.089 410.692 333.604 C 411.599 333.118 412.172 332.453 411.972 332.12 C 411.559 331.458 417.237 326.181 419.178 325.423 C 419.852 325.162 420.405 324.633 420.405 324.256 C 420.405 323.875 420.758 323.566 421.191 323.566 C 421.624 323.566 423.421 322.042 425.185 320.181 C 426.95 318.321 428.983 316.757 429.701 316.7 C 430.419 316.648 430.952 316.424 430.888 316.199 C 430.82 315.979 432.043 314.491 433.607 312.891 C 439.522 306.839 437.052 302.52 429.436 305.608 M 343.469 658.585 C 342.165 659.68 339.896 665.739 338.905 670.784 C 337.995 675.412 336.25 681.147 335.428 682.209 C 335.119 682.61 335.035 683.104 335.236 683.308 C 335.44 683.513 334.803 685.221 333.82 687.102 C 332.697 689.243 332.152 691.156 332.352 692.219 C 332.541 693.201 332.272 694.324 331.719 694.878 C 331.189 695.407 330.945 696.141 331.177 696.51 C 331.406 696.883 331.302 697.184 330.945 697.184 C 330.592 697.184 330.46 697.781 330.648 698.515 C 330.84 699.245 330.383 701.727 329.633 704.029 C 328.761 706.745 327.937 709.476 327.163 712.222 C 326.55 714.428 325.743 717.134 325.367 718.237 C 324.86 719.782 324.402 721.343 323.995 722.917 C 323.618 724.389 323.153 726.041 322.96 726.595 C 322.768 727.144 322.664 727.838 322.732 728.135 C 322.796 728.427 322.391 729.125 321.833 729.687 C 320.883 730.633 320.478 732.718 320.707 735.449 C 320.759 736.091 320.49 736.62 320.105 736.62 C 319.72 736.62 319.584 736.913 319.808 737.274 C 320.029 737.635 319.929 738.461 319.58 739.111 C 319.231 739.764 318.858 741.348 318.75 742.636 C 318.637 743.919 318.28 745.338 317.956 745.78 C 316.404 747.885 318.204 768.554 320.378 773.627 C 320.987 775.05 321.489 776.767 321.489 777.436 C 321.489 778.11 321.862 778.9 322.323 779.193 C 323.241 779.782 324.388 781.691 327.468 787.751 C 328.587 789.956 330.195 792.964 331.041 794.432 C 331.887 795.904 332.641 798.001 332.717 799.096 C 332.797 800.186 333.539 801.69 334.365 802.436 C 336.05 803.948 339.535 810.132 339.535 811.608 C 339.535 812.133 340.136 813.208 340.87 813.998 C 341.604 814.784 342.205 816.007 342.205 816.713 C 342.205 817.418 342.667 818.377 343.224 818.842 C 343.786 819.307 344.074 820.218 343.866 820.871 C 343.629 821.613 343.994 822.407 344.828 822.993 C 346.416 824.108 353.835 838.58 353.278 839.479 C 353.065 839.824 353.121 840.205 353.398 840.325 C 353.947 840.57 355.463 843.244 359.309 850.744 C 360.677 853.41 362.048 855.588 362.361 855.588 C 362.67 855.588 362.926 856.342 362.926 857.26 C 362.926 858.179 363.303 858.936 363.761 858.94 C 364.318 858.948 364.262 859.169 363.596 859.598 C 362.806 860.107 362.79 860.248 363.508 860.256 C 364.254 860.268 364.27 860.456 363.58 861.286 C 362.842 862.177 362.437 862.004 360.38 859.951 C 359.085 858.656 357.749 857.593 357.412 857.593 C 357.075 857.593 356.907 857.276 357.035 856.887 C 357.164 856.498 355.307 854.168 352.905 851.706 C 350.182 848.895 347.529 846.018 344.948 843.076 C 342.971 840.786 341.095 839.074 340.778 839.27 C 340.461 839.467 340.2 839.33 340.2 838.969 C 340.2 838.276 334.995 832.312 332.18 829.782 C 328.158 826.169 327.279 825.571 325.383 825.154 C 320.398 824.059 310.942 828.96 311.984 832.096 C 312.125 832.517 311.924 832.866 311.539 832.866 C 311.15 832.866 311.006 833.315 311.218 833.86 C 311.435 834.43 311.142 835.035 310.533 835.268 C 309.943 835.493 309.63 835.946 309.835 836.275 C 310.039 836.607 309.847 836.876 309.414 836.876 C 308.828 836.876 308.816 837.109 309.37 837.77 C 309.779 838.264 309.891 838.893 309.618 839.166 C 309.353 839.423 309.163 839.747 309.069 840.104 C 308.88 841.624 307.754 844.913 306.687 847.042 C 306.005 848.406 305.448 850.094 305.448 850.796 C 305.448 851.493 304.846 852.833 304.108 853.767 C 303.374 854.702 302.773 856.226 302.773 857.152 C 302.773 858.078 302.272 859.333 301.662 859.947 C 301.052 860.557 300.022 863.508 299.376 866.512 C 298.117 872.327 297.259 875.046 295.334 879.316 C 293.854 882.605 290.742 890.746 290.742 891.343 C 290.742 891.58 290.305 892.213 289.768 892.751 C 289.23 893.288 288.966 894.17 289.174 894.716 C 289.364 895.364 289.231 896.063 288.817 896.597 C 288.412 897.086 288.264 897.667 288.488 897.892 C 288.713 898.116 288.48 898.718 287.975 899.223 C 286.784 900.414 287.305 910.476 288.581 910.901 C 289.038 911.053 289.266 911.418 289.082 911.715 C 288.328 912.938 295.891 915.172 300.25 915.016 C 302.62 914.931 304.87 915.052 305.255 915.288 C 305.636 915.529 321.854 915.778 341.291 915.846 C 360.725 915.914 389.077 916.247 404.288 916.584 C 419.503 916.92 432.135 916.945 432.36 916.636 C 432.588 916.331 433.474 916.002 434.337 915.906 C 436.711 915.649 438.403 913.163 438.431 909.907 C 438.451 907.039 436.731 901.706 435.784 901.706 C 435.343 901.706 434.946 900.759 434.453 898.517 C 434.393 898.249 433.767 897.098 433.065 895.963 C 432.364 894.824 431.963 893.717 432.175 893.501 C 432.392 893.288 431.935 892.719 431.165 892.233 C 430.395 891.752 429.765 890.982 429.765 890.517 C 429.765 890.056 429.496 889.675 429.171 889.675 C 428.847 889.675 428.049 888.548 427.399 887.169 C 426.593 885.533 425.647 883.969 424.572 882.497 C 423.669 881.306 423.104 879.878 423.321 879.324 C 423.561 878.695 423.321 878.314 422.687 878.314 C 422.125 878.314 421.849 878.013 422.077 877.644 C 422.306 877.279 422.154 876.978 421.745 876.978 C 421.331 876.978 421.183 876.678 421.408 876.309 C 421.636 875.94 421.484 875.639 421.075 875.639 C 420.666 875.639 420.497 875.362 420.706 875.026 C 420.914 874.689 420.561 873.883 419.916 873.241 C 419.215 872.525 418.596 871.733 418.071 870.879 C 416.907 868.898 415.724 866.929 414.522 864.972 C 412.942 862.373 411.831 859.955 412.056 859.59 C 412.28 859.229 412.072 858.928 411.591 858.92 C 410.953 858.912 410.989 858.732 411.719 858.263 C 412.525 857.741 412.417 857.613 411.178 857.605 C 410.319 857.597 409.818 857.296 410.047 856.927 C 410.275 856.558 410.091 856.258 409.642 856.258 C 409.188 856.258 409.024 856.057 409.269 855.812 C 409.513 855.564 409.229 854.826 408.635 854.172 C 407.424 852.829 400.354 840.233 400.354 839.411 C 400.354 839.118 400.037 838.881 399.648 838.881 C 399.259 838.881 399.127 838.58 399.351 838.212 C 399.58 837.843 399.468 837.542 399.103 837.542 C 398.738 837.542 398.232 836.884 397.976 836.078 C 397.719 835.272 396.568 833.239 395.417 831.567 C 393.035 828.098 389.955 822.082 390.18 821.336 C 390.264 821.06 389.847 820.835 389.258 820.835 C 388.532 820.835 388.319 820.474 388.604 819.728 C 388.885 819.007 388.135 817.563 386.434 815.546 C 385.007 813.853 383.623 811.792 383.363 810.97 C 383.102 810.144 382.609 809.47 382.264 809.47 C 381.923 809.47 381.642 808.889 381.642 808.171 C 381.642 807.457 381.009 806.43 380.231 805.885 C 379.457 805.344 379.023 804.574 379.272 804.173 C 379.521 803.772 379.248 802.974 378.671 802.396 C 378.093 801.815 377.788 801.069 377.997 800.728 C 378.205 800.391 378.129 800.114 377.82 800.114 C 377.516 800.114 375.92 797.484 374.271 794.267 C 372.627 791.051 371.075 788.26 370.823 788.072 C 370.417 787.767 368.97 784.647 368.581 783.239 C 368.487 782.903 368.386 782.569 368.28 782.237 C 368.161 781.85 368.055 781.46 367.963 781.066 C 367.871 780.669 367.758 780.278 367.622 779.895 C 367.503 779.564 367.394 779.23 367.298 778.892 C 366.965 777.709 366.074 775.532 364.879 772.973 C 364.174 771.461 363.596 769.797 363.596 769.272 C 363.596 768.746 362.995 767.134 362.257 765.694 C 361.523 764.251 360.921 762.607 360.921 762.041 C 360.921 761.476 360.324 759.446 359.598 757.53 C 358.868 755.617 358.202 753.11 358.114 751.967 C 358.026 750.82 357.689 749.718 357.36 749.517 C 357.035 749.317 357.176 748.892 357.677 748.575 C 358.279 748.194 358.315 747.997 357.789 747.993 C 357.256 747.985 357.12 747.211 357.376 745.643 C 357.605 744.228 357.48 743.301 357.059 743.301 C 356.678 743.301 356.514 742.748 356.69 742.066 C 356.871 741.384 356.522 740.334 355.916 739.732 C 355.315 739.127 355.03 738.297 355.283 737.887 C 355.537 737.483 355.42 736.948 355.018 736.688 C 354.617 736.44 354.16 734.896 353.996 733.256 C 353.835 731.611 353.238 728.315 352.676 725.925 C 350.013 714.664 347.836 665.755 349.853 662.499 C 350.07 662.142 349.921 661.653 349.524 661.404 C 349.127 661.16 348.979 660.486 349.203 659.908 C 349.969 657.911 345.506 656.881 343.469 658.585" p-id="845"></path>
</svg>