<?xml version="1.0" encoding="UTF-8" standalone="no" ?>
<!DOCTYPE svg PUBLIC "-//W3C//DTD SVG 1.1//EN" "http://www.w3.org/Graphics/SVG/1.1/DTD/svg11.dtd">
<svg xmlns="http://www.w3.org/2000/svg" xmlns:xlink="http://www.w3.org/1999/xlink" version="1.1" width="1080" height="1080" viewBox="0 0 1080 1080" xml:space="preserve">
<desc>Created with Fabric.js 5.2.4</desc>
<defs>
</defs>
<g transform="matrix(1 0 0 1 540 540)" id="7d3f700a-86e7-42b6-a79f-9c89fcf79cf4"  >
<rect style="stroke: none; stroke-width: 1; stroke-dasharray: none; stroke-linecap: butt; stroke-dashoffset: 0; stroke-linejoin: miter; stroke-miterlimit: 4; fill: rgb(255,255,255); fill-rule: nonzero; opacity: 1; visibility: hidden;" vector-effect="non-scaling-stroke"  x="-540" y="-540" rx="0" ry="0" width="1080" height="1080" />
</g>
<g transform="matrix(1 0 0 1 540 540)" id="17503f44-217d-4b6a-8d42-8d029cb8b4db"  >
</g>
<g transform="matrix(1 0 0 1 540 540)"  >
<g style="" vector-effect="non-scaling-stroke"   >
		<g transform="matrix(1 0 0 1 0 -0.01)"  >
<path style="stroke: none; stroke-width: 1; stroke-dasharray: none; stroke-linecap: butt; stroke-dashoffset: 0; stroke-linejoin: miter; stroke-miterlimit: 4; fill: rgb(29,165,122); fill-rule: nonzero; opacity: 0.1;" vector-effect="non-scaling-stroke"  transform=" translate(-599.99, -449.98)" d="M 1188.91 553.07 C 1188.93028511905 572.6985950224448 1186.5560837265216 592.2563728302027 1181.8400000000001 611.3100000000001 Q 1179.46 620.94 1176.3100000000002 630.1700000000001 C 1173.7405970715322 637.7651372887981 1170.76292855746 645.2159849607814 1167.39 652.4900000000001 Q 1164.8400000000001 658.0100000000001 1162 663.3100000000002 C 1162.0310454187493 683.4384071871984 1157.8871102334253 703.3544933819071 1149.83 721.8000000000002 C 1135.2655316806404 754.8942330359924 1109.2943286878312 781.6533025311797 1076.6499999999999 797.2000000000002 C 1056.2395826986433 806.9382623663603 1033.934137090609 812.0596718890989 1011.3199999999998 812.2000000000002 L 234.68 812.2000000000002 C 200.1257824746628 812.2736111169446 166.16824693058132 803.1959565735106 136.25999999999993 785.8900000000002 L 135.79999999999998 785.6300000000002 Q 129.41 781.8900000000002 123.33999999999997 777.7100000000003 C 114.23515250286643 771.4200357141151 105.6810674493126 764.3680172186549 97.76999999999997 756.6300000000002 C 87.0624036643156 746.1662865719817 77.62714639275981 734.4754288427646 69.66000000000003 721.8 C 50.94790578243942 692.0880624127421 41.035243109626315 657.6832524434085 41.07000000000005 622.5699999999998 C 22.119999999999994 589.3199999999999 11.069999999999993 549.4899999999999 11.069999999999993 506.68999999999994 C 11.069999999999993 452.68999999999994 28.629999999999992 403.42999999999995 57.47999999999999 366.13999999999993 C 63.49467349441738 358.3493317640636 70.08301085974446 351.01892900294627 77.19000000000003 344.2099999999999 C 84.20235198712935 337.4721990711177 91.73944551402255 331.302750288013 99.72999999999996 325.75999999999993 C 106.12300609782895 321.32063987927427 112.8044440827342 317.3117770883311 119.72999999999988 313.76 C 122.61999999999999 312.2899999999999 125.52 310.8999999999999 128.47 309.60999999999996 C 131.06 308.46 133.68 307.38999999999993 136.33 306.37999999999994 Q 141.10000000000002 304.56999999999994 145.99 303.04999999999995 Q 150.88 301.53 155.64000000000001 300.38999999999993 Q 162.64000000000001 298.67999999999995 169.88000000000002 297.60999999999996 C 173.88000000000002 297.02 177.88000000000002 296.60999999999996 181.88000000000002 296.29999999999995 C 185.06000000000003 296.05999999999995 188.27 295.92999999999995 191.50000000000003 295.88999999999993 L 193.25000000000003 295.88999999999993 C 196.81000000000003 295.88999999999993 200.35000000000002 296.0299999999999 203.86 296.2699999999999 C 204.23000000000002 295.5299999999999 204.63000000000002 294.7799999999999 205 294.0499999999999 C 206.4 291.3799999999999 207.85 288.7199999999999 209.31 286.1199999999999 C 209.30671716785298 286.09678213438343 209.30671716785298 286.07321786561636 209.31 286.0499999999999 C 209.56 285.5899999999999 209.81 285.1399999999999 210.07 284.6999999999999 C 211.25 282.5699999999999 212.48 280.45999999999987 213.73999999999998 278.3699999999999 C 214.32 277.3699999999999 214.89 276.4299999999999 215.48 275.4899999999999 C 215.6048186549582 275.2563975274883 215.74166913795673 275.0294259947102 215.89 274.8099999999999 Q 216.79 273.3099999999999 217.72 271.8099999999999 Q 222.35 264.4099999999999 227.35 257.26999999999987 L 228.2 256.04999999999984 C 228.72 255.30999999999983 229.2 254.58999999999983 229.78 253.84999999999985 C 231.16 251.91999999999985 232.58 249.97999999999985 234.01 248.07999999999984 C 235.01 246.71999999999983 236.01 245.36999999999983 237.09 244.07999999999984 Q 240.99 239.07999999999984 245.09 234.07999999999984 Q 249.19 229.07999999999984 253.61 224.20999999999984 C 254.01000000000002 223.75999999999985 254.41000000000003 223.31999999999985 254.83 222.87999999999982 L 259.1 218.21999999999983 L 259.1 218.21999999999983 C 259.31 217.99999999999983 259.49 217.79999999999984 259.69 217.59999999999982 L 259.69 217.59999999999982 C 260.2 217.0499999999998 260.69 216.49999999999983 261.24 215.96999999999983 C 263.53000000000003 213.53999999999982 265.88 211.15999999999983 268.24 208.78999999999982 C 280.25050272841435 196.82746058816693 293.0455709618241 185.679381555559 306.53999999999985 175.42 C 307.07 174.99999999999983 307.61 174.59999999999982 308.14000000000004 174.19999999999982 C 310.68000000000006 172.28999999999982 313.26000000000005 170.3999999999998 315.84000000000003 168.53999999999982 C 330.0310658516706 158.35948165863002 344.8653219960204 149.1068607354485 360.2499999999995 140.84000000000012 C 361.31 140.22999999999982 362.39 139.65999999999983 363.48 139.09999999999982 C 377.2726237280232 131.8031171994473 391.4575370546392 125.27318298743016 405.9699999999999 119.53999999999988 C 413.88000000000005 116.40999999999983 421.97 113.46999999999983 430.11 110.77999999999982 C 435.53000000000003 108.99999999999982 440.97 107.30999999999982 446.48 105.71999999999981 Q 459.4 102 472.5 99.05 C 498.22916247940526 93.27684988509411 524.4041848611292 89.71056999515068 550.7400000000001 88.39000000000003 Q 562.74 87.78 575.01 87.76 C 614.4800679058666 87.70774607436515 653.7961848187056 92.6810668462457 692.0099999999998 102.56000000000002 C 692.81310962717 103.77383339921451 694.185035467728 104.48814189471166 695.64 104.45 L 699 104.45 C 700.46 104.85000000000001 701.91 105.25 703.37 105.67 Q 715.6 109.19 727.48 113.36 L 729.48 114.08 C 749.0276976573798 121.03094218271546 768.0472763653336 129.38605495198007 786.3900000000001 139.08000000000004 C 802.9247901392824 147.7975300938782 818.8451388451429 157.63373294593558 834.0399999999997 168.51999999999987 Q 837.55 171.04 840.9599999999999 173.6 Q 845.0999999999999 170.95 849.3799999999999 168.51999999999998 C 860.3990607211722 162.2443713963456 872.1024064702086 157.25501499473523 884.2599999999999 153.65 C 909.6778711625211 146.12818840570253 936.5723057700947 145.0763355184431 962.4999999999998 150.58999999999992 C 995.7499999999999 157.64 1025.85 175.14 1050.1599999999999 200.02999999999997 C 1060.0583410010236 210.21385361640995 1068.8691972423776 221.40085937283433 1076.4499999999998 233.41000000000003 C 1076.9999999999998 234.26999999999998 1077.5499999999997 235.13999999999996 1078.08 236.01999999999998 C 1084.5954257348797 246.64892998268024 1090.1955844118881 257.81244820560585 1094.82 269.39 C 1094.99 269.82 1095.1599999999999 270.21999999999997 1095.31 270.64 C 1099.5791670621738 281.481110695125 1103.0223193109525 292.62956967539355 1105.61 303.9899999999999 C 1105.7299999999998 304.57 1105.87 305.14 1105.99 305.72 C 1108.410243364277 316.7142432716448 1110.0542989969222 327.86508401582586 1110.91 339.08999999999986 C 1110.91 339.49 1110.91 339.90000000000003 1110.99 340.32000000000005 Q 1111.6200000000001 349.03000000000003 1111.63 357.9200000000001 C 1111.63 363.2200000000001 1111.45 368.4800000000001 1111.1200000000001 373.70000000000005 C 1111.1200000000001 374.27000000000004 1111.0400000000002 374.86000000000007 1110.99 375.45000000000005 C 1110.9 376.96000000000004 1110.77 378.45000000000005 1110.64 379.97 C 1118.2773548271518 386.13054193357203 1125.4254521273497 392.8740930348346 1132.0200000000002 400.14 Q 1136.39 404.91 1140.4800000000002 410.04 C 1148.7852849877247 420.4491344754343 1156.0846335100282 431.6224950345748 1162.2800000000002 443.4100000000001 C 1179.19 475.33 1188.91 512.88 1188.91 553.07 Z" stroke-linecap="round" />
</g>
		<g transform="matrix(1 0 0 1 5.86 334.31)"  >
<path style="stroke: none; stroke-width: 1; stroke-dasharray: none; stroke-linecap: butt; stroke-dashoffset: 0; stroke-linejoin: miter; stroke-miterlimit: 4; fill: rgb(29,165,122); fill-rule: nonzero; opacity: 0.1;" vector-effect="non-scaling-stroke"  transform=" translate(-605.86, -784.31)" d="M 1075.91 793.5 C 1075.91 800.33 1052.38 806.73 1011.32 812.23 L 234.68 812.23 C 200.1257824746628 812.3036111169445 166.16824693058132 803.2259565735104 136.25999999999993 785.9200000000001 L 135.79999999999998 785.6600000000001 C 147.6 781.3600000000001 168.89999999999998 777.3500000000001 197.89 773.7300000000001 L 197.89 773.7300000000001 L 199.19 773.5700000000002 C 212.19 771.9800000000001 226.72 770.4700000000001 242.6 769.0400000000002 C 243 769.0400000000002 243.41 768.9800000000002 243.81 768.9300000000002 L 243.81 768.9300000000002 Q 262.71 767.2500000000002 284.02 765.7800000000002 C 284.46999999999997 765.7800000000002 284.90999999999997 765.7000000000002 285.35999999999996 765.6800000000002 Q 293.58 765.0900000000001 302.14 764.5600000000002 L 302.14 764.5600000000002 L 304.34 764.4200000000002 C 345.89 761.8400000000001 393.12 759.7800000000002 444.34 758.4200000000002 L 444.4 758.4200000000002 Q 455.15999999999997 758.1200000000002 466.15 757.8900000000002 Q 478.37 757.6000000000003 490.89 757.3800000000002 C 497.26 757.2400000000002 503.71 757.1400000000002 510.18 757.0400000000002 L 510.33 757.0400000000002 C 539.52 756.6000000000001 569.68 756.3800000000002 600.52 756.3800000000002 C 676.78 756.3800000000002 748.86 757.7700000000002 812.73 760.2700000000002 L 812.91 760.2700000000002 C 822.73 760.6500000000002 832.37 761.0700000000002 841.77 761.5000000000002 L 849.77 761.8800000000002 Q 865.68 762.6400000000002 880.77 763.5100000000002 L 880.77 763.5100000000002 C 999.07 770.24 1075.91 781.17 1075.91 793.5 Z" stroke-linecap="round" />
</g>
		<g transform="matrix(1 0 0 1 80.7 296.24)"  >
<path style="stroke: none; stroke-width: 1; stroke-dasharray: none; stroke-linecap: butt; stroke-dashoffset: 0; stroke-linejoin: miter; stroke-miterlimit: 4; fill: rgb(63,61,86); fill-rule: nonzero; opacity: 0.2;" vector-effect="non-scaling-stroke"  transform=" translate(-680.69, -746.23)" d="M 691.37 751.79 C 691.3380407867162 752.8685652160874 691.2142599464606 753.9424476410077 691 755 Q 680.56 753.34 670 752 C 670 751.72 670 751.43 670 751.14 C 670.0651608392095 748.1414282490479 670.9280920328769 745.2143656401284 672.5 742.66 C 674.56 739.4 677.69 737.36 681.14 737.4699999999999 C 684.5899999999999 737.5799999999998 687.58 739.81 689.43 743.18 C 690.8292576989174 745.8269939019895 691.4988398396996 748.798696083502 691.37 751.79 Z" stroke-linecap="round" />
</g>
		<g transform="matrix(0.03 -1 1 0.03 81.26 284.37)"  >
<ellipse style="stroke: none; stroke-width: 1; stroke-dasharray: none; stroke-linecap: butt; stroke-dashoffset: 0; stroke-linejoin: miter; stroke-miterlimit: 4; fill: rgb(63,61,86); fill-rule: nonzero; opacity: 0.2;" vector-effect="non-scaling-stroke"  cx="0" cy="0" rx="14.01" ry="10.7" />
</g>
		<g transform="matrix(0.03 -1 1 0.03 81.81 267.25)"  >
<ellipse style="stroke: none; stroke-width: 1; stroke-dasharray: none; stroke-linecap: butt; stroke-dashoffset: 0; stroke-linejoin: miter; stroke-miterlimit: 4; fill: rgb(63,61,86); fill-rule: nonzero; opacity: 0.2;" vector-effect="non-scaling-stroke"  cx="0" cy="0" rx="14.01" ry="10.7" />
</g>
		<g transform="matrix(0.03 -1 1 0.03 82.34 250.13)"  >
<ellipse style="stroke: none; stroke-width: 1; stroke-dasharray: none; stroke-linecap: butt; stroke-dashoffset: 0; stroke-linejoin: miter; stroke-miterlimit: 4; fill: rgb(63,61,86); fill-rule: nonzero; opacity: 0.2;" vector-effect="non-scaling-stroke"  cx="0" cy="0" rx="14.01" ry="10.7" />
</g>
		<g transform="matrix(0.03 -1 1 0.03 82.88 233.01)"  >
<ellipse style="stroke: none; stroke-width: 1; stroke-dasharray: none; stroke-linecap: butt; stroke-dashoffset: 0; stroke-linejoin: miter; stroke-miterlimit: 4; fill: rgb(63,61,86); fill-rule: nonzero; opacity: 0.2;" vector-effect="non-scaling-stroke"  cx="0" cy="0" rx="14.01" ry="10.7" />
</g>
		<g transform="matrix(1 0 0 1 85.77 147.47)"  >
<path style="stroke: none; stroke-width: 1; stroke-dasharray: none; stroke-linecap: butt; stroke-dashoffset: 0; stroke-linejoin: miter; stroke-miterlimit: 4; fill: rgb(29,165,122); fill-rule: nonzero; opacity: 0.2;" vector-effect="non-scaling-stroke"  transform=" translate(-685.76, -597.46)" d="M 646.47 564.55 C 645.0617586635552 562.6432552990975 643.7918452646195 560.6381288797252 642.6700000000001 558.55 L 670.9300000000001 554.8199999999999 L 640.5100000000001 554.0899999999999 C 635.0235942878055 541.0764441210697 635.1357106832431 526.3783463449987 640.82 513.4499999999999 L 680.94 535.9 L 644.19 507.06 C 654.2954937071236 490.7155192633131 672.6908404269649 481.3925582825032 691.8473079099746 482.9067601148337 C 711.0037753929843 484.42096194716413 727.7059884257009 496.51817080717126 735.1181699057211 514.2473168476292 C 742.5303513857413 531.9764628880872 739.4083812982622 552.3617439792512 727.0300000000001 567.06 C 729.2203553401962 570.0258484383692 731.081318640936 573.2213403763964 732.58 576.5899999999999 L 695.49 594.3899999999999 L 734.82 582.5599999999998 C 739.8519643105066 599.1633968987444 736.1581096013339 617.1850444666128 725 630.47 C 740.870168321797 652.0022240130709 737.523865492426 682.116199710068 717.3138374524717 699.6391469546242 C 697.1038094125175 717.1620941991803 666.8195304590599 716.2072522361493 647.7535189338043 697.4459591562452 C 628.6875074085488 678.6846660763412 627.2449100506606 648.4196997329234 644.44 627.9300000000001 C 630.3988824299068 608.8737888150093 631.2253502028808 582.683025089465 646.44 564.5500000000001 Z" stroke-linecap="round" />
</g>
		<g transform="matrix(1 0 0 1 84.73 205.24)"  >
<path style="stroke: none; stroke-width: 1; stroke-dasharray: none; stroke-linecap: butt; stroke-dashoffset: 0; stroke-linejoin: miter; stroke-miterlimit: 4; fill: rgb(0,0,0); fill-rule: nonzero; opacity: 0.020000000000000004;" vector-effect="non-scaling-stroke"  transform=" translate(-684.72, -655.24)" d="M 737 599.13 C 736.6499878068764 610.6312572777588 732.4209195932008 621.6761737624751 725 630.47 C 740.870168321797 652.0022240130709 737.523865492426 682.116199710068 717.3138374524717 699.6391469546242 C 697.1038094125175 717.1620941991803 666.8195304590599 716.2072522361493 647.7535189338043 697.4459591562452 C 628.6875074085488 678.6846660763412 627.2449100506606 648.4196997329234 644.44 627.9300000000001 C 637.87 619 737.18 593.38 737 599.13 Z" stroke-linecap="round" />
</g>
		<g transform="matrix(1 0 0 1 -71.3 296.24)"  >
<path style="stroke: none; stroke-width: 1; stroke-dasharray: none; stroke-linecap: butt; stroke-dashoffset: 0; stroke-linejoin: miter; stroke-miterlimit: 4; fill: rgb(63,61,86); fill-rule: nonzero; opacity: 0.2;" vector-effect="non-scaling-stroke"  transform=" translate(-528.69, -746.23)" d="M 539.37 751.79 C 539.3380407867162 752.8685652160874 539.2142599464606 753.9424476410077 539 755 Q 528.56 753.34 518 752 C 518 751.72 518 751.43 518 751.14 C 518.0651608392095 748.1414282490479 518.9280920328769 745.2143656401284 520.5 742.66 C 522.56 739.4 525.69 737.36 529.14 737.4699999999999 C 532.5899999999999 737.5799999999998 535.58 739.81 537.43 743.18 C 538.8292576989174 745.8269939019895 539.4988398396996 748.798696083502 539.37 751.79 Z" stroke-linecap="round" />
</g>
		<g transform="matrix(0.03 -1 1 0.03 -70.75 284.37)"  >
<ellipse style="stroke: none; stroke-width: 1; stroke-dasharray: none; stroke-linecap: butt; stroke-dashoffset: 0; stroke-linejoin: miter; stroke-miterlimit: 4; fill: rgb(63,61,86); fill-rule: nonzero; opacity: 0.2;" vector-effect="non-scaling-stroke"  cx="0" cy="0" rx="14.01" ry="10.7" />
</g>
		<g transform="matrix(0.03 -1 1 0.03 -70.21 267.25)"  >
<ellipse style="stroke: none; stroke-width: 1; stroke-dasharray: none; stroke-linecap: butt; stroke-dashoffset: 0; stroke-linejoin: miter; stroke-miterlimit: 4; fill: rgb(63,61,86); fill-rule: nonzero; opacity: 0.2;" vector-effect="non-scaling-stroke"  cx="0" cy="0" rx="14.01" ry="10.7" />
</g>
		<g transform="matrix(0.03 -1 1 0.03 -69.67 250.13)"  >
<ellipse style="stroke: none; stroke-width: 1; stroke-dasharray: none; stroke-linecap: butt; stroke-dashoffset: 0; stroke-linejoin: miter; stroke-miterlimit: 4; fill: rgb(63,61,86); fill-rule: nonzero; opacity: 0.2;" vector-effect="non-scaling-stroke"  cx="0" cy="0" rx="14.01" ry="10.7" />
</g>
		<g transform="matrix(0.03 -1 1 0.03 -69.13 233.01)"  >
<ellipse style="stroke: none; stroke-width: 1; stroke-dasharray: none; stroke-linecap: butt; stroke-dashoffset: 0; stroke-linejoin: miter; stroke-miterlimit: 4; fill: rgb(63,61,86); fill-rule: nonzero; opacity: 0.2;" vector-effect="non-scaling-stroke"  cx="0" cy="0" rx="14.01" ry="10.7" />
</g>
		<g transform="matrix(1 0 0 1 -66.23 147.47)"  >
<path style="stroke: none; stroke-width: 1; stroke-dasharray: none; stroke-linecap: butt; stroke-dashoffset: 0; stroke-linejoin: miter; stroke-miterlimit: 4; fill: rgb(29,165,122); fill-rule: nonzero; opacity: 0.2;" vector-effect="non-scaling-stroke"  transform=" translate(-533.76, -597.46)" d="M 494.47 564.55 C 493.0617586635552 562.6432552990975 491.79184526461944 560.6381288797252 490.67 558.55 L 518.9300000000001 554.8199999999999 L 488.51000000000005 554.0899999999999 C 483.0235942878055 541.0764441210697 483.1357106832431 526.3783463449987 488.82000000000005 513.4499999999999 L 528.94 535.9 L 492.19000000000005 507.06 C 502.29549370712357 490.7155192633131 520.6908404269649 481.3925582825032 539.8473079099746 482.9067601148337 C 559.0037753929843 484.42096194716413 575.7059884257009 496.51817080717126 583.1181699057211 514.2473168476292 C 590.5303513857413 531.9764628880872 587.4083812982622 552.3617439792512 575.0300000000001 567.06 C 577.2203553401962 570.0258484383692 579.081318640936 573.2213403763964 580.58 576.5899999999999 L 543.49 594.3899999999999 L 582.82 582.5599999999998 C 587.8519643105066 599.1633968987444 584.1581096013339 617.1850444666128 573 630.47 C 588.870168321797 652.0022240130709 585.523865492426 682.116199710068 565.3138374524717 699.6391469546242 C 545.1038094125174 717.1620941991803 514.8195304590599 716.2072522361492 495.75351893380434 697.4459591562452 C 476.68750740854875 678.6846660763412 475.24491005066045 648.4196997329234 492.43999999999994 627.9300000000001 C 478.3988824299068 608.8737888150093 479.2253502028807 582.683025089465 494.44 564.5500000000001 Z" stroke-linecap="round" />
</g>
		<g transform="matrix(1 0 0 1 -67.27 205.24)"  >
<path style="stroke: none; stroke-width: 1; stroke-dasharray: none; stroke-linecap: butt; stroke-dashoffset: 0; stroke-linejoin: miter; stroke-miterlimit: 4; fill: rgb(0,0,0); fill-rule: nonzero; opacity: 0.020000000000000004;" vector-effect="non-scaling-stroke"  transform=" translate(-532.72, -655.24)" d="M 585 599.13 C 584.6499878068764 610.6312572777588 580.4209195932008 621.6761737624751 573 630.47 C 588.870168321797 652.0022240130709 585.523865492426 682.116199710068 565.3138374524717 699.6391469546242 C 545.1038094125174 717.1620941991803 514.8195304590599 716.2072522361492 495.75351893380434 697.4459591562452 C 476.68750740854875 678.6846660763412 475.24491005066045 648.4196997329234 492.43999999999994 627.9300000000001 C 485.87 619 585.18 593.38 585 599.13 Z" stroke-linecap="round" />
</g>
		<g transform="matrix(1 0 0 1 333.98 301.95)"  >
<path style="stroke: none; stroke-width: 1; stroke-dasharray: none; stroke-linecap: butt; stroke-dashoffset: 0; stroke-linejoin: miter; stroke-miterlimit: 4; fill: rgb(63,61,86); fill-rule: nonzero; opacity: 0.2;" vector-effect="non-scaling-stroke"  transform=" translate(-933.97, -751.95)" d="M 954.57 762.73 C 954.4937215190319 764.7732492719629 954.2495655945846 766.806767108455 953.84 768.8100000000001 Q 933.74 765.6 913.35 763.07 C 913.35 762.5300000000001 913.35 761.98 913.35 761.4200000000001 C 913.4769226126185 755.6450509034421 915.140686850551 750.0082728940152 918.1700000000001 745.09 C 922.1700000000001 738.82 928.1700000000001 734.89 934.8000000000001 735.09 C 941.4300000000001 735.2900000000001 947.2 739.6 950.8000000000001 746.09 C 953.5147832008379 751.2024484840807 954.81621525369 756.9467003035654 954.57 762.73 Z" stroke-linecap="round" />
</g>
		<g transform="matrix(0.03 -1 1 0.03 335.07 279.16)"  >
<ellipse style="stroke: none; stroke-width: 1; stroke-dasharray: none; stroke-linecap: butt; stroke-dashoffset: 0; stroke-linejoin: miter; stroke-miterlimit: 4; fill: rgb(63,61,86); fill-rule: nonzero; opacity: 0.2;" vector-effect="non-scaling-stroke"  cx="0" cy="0" rx="26.98" ry="20.61" />
</g>
		<g transform="matrix(0.03 -1 1 0.03 336.11 246.2)"  >
<ellipse style="stroke: none; stroke-width: 1; stroke-dasharray: none; stroke-linecap: butt; stroke-dashoffset: 0; stroke-linejoin: miter; stroke-miterlimit: 4; fill: rgb(63,61,86); fill-rule: nonzero; opacity: 0.2;" vector-effect="non-scaling-stroke"  cx="0" cy="0" rx="26.98" ry="20.61" />
</g>
		<g transform="matrix(0.03 -1 1 0.03 337.16 213.24)"  >
<ellipse style="stroke: none; stroke-width: 1; stroke-dasharray: none; stroke-linecap: butt; stroke-dashoffset: 0; stroke-linejoin: miter; stroke-miterlimit: 4; fill: rgb(63,61,86); fill-rule: nonzero; opacity: 0.2;" vector-effect="non-scaling-stroke"  cx="0" cy="0" rx="26.98" ry="20.61" />
</g>
		<g transform="matrix(0.03 -1 1 0.03 337.01 178.81)"  >
<ellipse style="stroke: none; stroke-width: 1; stroke-dasharray: none; stroke-linecap: butt; stroke-dashoffset: 0; stroke-linejoin: miter; stroke-miterlimit: 4; fill: rgb(63,61,86); fill-rule: nonzero; opacity: 0.2;" vector-effect="non-scaling-stroke"  cx="0" cy="0" rx="26.98" ry="20.61" />
</g>
		<g transform="matrix(1 0 0 1 343.77 15.7)"  >
<path style="stroke: none; stroke-width: 1; stroke-dasharray: none; stroke-linecap: butt; stroke-dashoffset: 0; stroke-linejoin: miter; stroke-miterlimit: 4; fill: rgb(29,165,122); fill-rule: nonzero; opacity: 0.2;" vector-effect="non-scaling-stroke"  transform=" translate(-943.76, -465.7)" d="M 868.12 402.27 C 865.4216322320336 398.59896891246177 862.9791913769627 394.74652800152234 860.8100000000001 390.74 L 915.21 383.56 L 856.6600000000001 382.15 C 846.0902726494978 357.0990407782711 846.3000447627456 328.80150605326133 857.2400000000001 303.90999999999997 L 934.4900000000001 347.11999999999995 L 863.75 291.6 C 883.2458990613769 260.2109469756707 918.6388680930843 242.33738280591774 955.4723336006365 245.27992400010928 C 992.3057991081887 248.2224651943008 1024.4122276642233 271.4884016333511 1038.677462509245 305.5745543172774 C 1052.9426973542668 339.6607070012036 1046.9781141342135 378.8595628521176 1023.22 407.1600000000001 C 1027.4328572905808 412.87444088403583 1031.0169274872603 419.02670356963614 1033.91 425.51000000000005 L 962.5 459.8 L 1038.21 437 C 1047.903678822525 468.92531138528267 1040.8209327732727 503.5867584611511 1019.38 529.15 C 1049.9261675046002 570.6030616339426 1043.480627085837 628.572024715158 1004.5748108854544 662.3027545298032 C 965.6689946850719 696.0334843444483 907.3717611677131 694.1954864598586 870.6680302271873 658.0809353330338 C 833.9642992866615 621.9663842062091 831.1832266028168 563.70652403878 864.28 524.26 C 837.2646351403855 487.5762713714157 838.8511252309546 437.1721591189609 868.12 402.26 Z" stroke-linecap="round" />
</g>
		<g transform="matrix(1 0 0 1 341.83 126.85)"  >
<path style="stroke: none; stroke-width: 1; stroke-dasharray: none; stroke-linecap: butt; stroke-dashoffset: 0; stroke-linejoin: miter; stroke-miterlimit: 4; fill: rgb(0,0,0); fill-rule: nonzero; opacity: 0.020000000000000004;" vector-effect="non-scaling-stroke"  transform=" translate(-941.82, -576.84)" d="M 1042.42 468.83 C 1041.7638507783174 490.9588623457178 1033.6600662695396 512.2189648352684 1019.4200000000001 529.17 C 1049.9661675046002 570.6230616339426 1043.520627085837 628.592024715158 1004.6148108854545 662.3227545298032 C 965.708994685072 696.0534843444483 907.4117611677132 694.2154864598585 870.7080302271874 658.1009353330338 C 834.0042992866615 621.9863842062091 831.2232266028169 563.72652403878 864.32 524.28 C 851.58 507.07 1042.77 457.76 1042.42 468.83 Z" stroke-linecap="round" />
</g>
		<g transform="matrix(1 0 0 1 -316.5 -7.19)"  >
<polygon style="stroke: none; stroke-width: 1; stroke-dasharray: none; stroke-linecap: butt; stroke-dashoffset: 0; stroke-linejoin: miter; stroke-miterlimit: 4; fill: rgb(241,192,192); fill-rule: nonzero; opacity: 1;" vector-effect="non-scaling-stroke"  points="-114.58,321.68 -104.09,321.65 -89.3,321.65 -70.6,17.87 114.59,-291.16 106.54,-299.8 106.54,-321.68 -93.74,10.71 -114.58,321.68 " />
</g>
		<g transform="matrix(1 0 0 1 -310.69 3.74)"  >
<polygon style="stroke: none; stroke-width: 1; stroke-dasharray: none; stroke-linecap: butt; stroke-dashoffset: 0; stroke-linejoin: miter; stroke-miterlimit: 4; fill: rgb(0,0,0); fill-rule: nonzero; opacity: 0.1;" vector-effect="non-scaling-stroke"  points="-108.78,310.73 -95.11,310.73 -76.41,6.94 108.78,-302.09 100.73,-310.73 -90.29,2.31 -108.78,310.73 " />
</g>
		<g transform="matrix(1 0 0 1 10.51 324.78)"  >
<polygon style="stroke: none; stroke-width: 1; stroke-dasharray: none; stroke-linecap: butt; stroke-dashoffset: 0; stroke-linejoin: miter; stroke-miterlimit: 4; fill: rgb(241,192,192); fill-rule: nonzero; opacity: 1;" vector-effect="non-scaling-stroke"  points="-472.5,-7.75 7.35,28.97 7.76,29 472.15,0.44 472.5,0.41 472.5,-19.19 -39.2,-28.59 -466.11,-29 -469.23,-29 -469.57,-26.79 -472.5,-7.75 " />
</g>
		<g transform="matrix(1 0 0 1 10.51 324.78)"  >
<polygon style="stroke: none; stroke-width: 1; stroke-dasharray: none; stroke-linecap: butt; stroke-dashoffset: 0; stroke-linejoin: miter; stroke-miterlimit: 4; fill: rgb(0,0,0); fill-rule: nonzero; opacity: 0.1;" vector-effect="non-scaling-stroke"  points="-472.5,-7.75 7.35,28.97 7.76,29 472.15,0.44 472.5,0.06 472.5,-18.78 472.09,-18.78 7.35,-3.26 -466.11,-29 -466.18,-29 -467.02,-28.44 -469.57,-26.79 -472.5,-7.75 " />
</g>
		<g transform="matrix(1 0 0 1 -222.07 325.04)"  >
<polygon style="stroke: none; stroke-width: 1; stroke-dasharray: none; stroke-linecap: butt; stroke-dashoffset: 0; stroke-linejoin: miter; stroke-miterlimit: 4; fill: rgb(0,0,0); fill-rule: nonzero; opacity: 0.1;" vector-effect="non-scaling-stroke"  points="-239.93,-8.02 239.92,28.7 239.92,-3.53 -234.45,-28.71 -237,-27.06 -239.93,-8.02 " />
</g>
		<g transform="matrix(1 0 0 1 122.76 -3.68)"  >
<polygon style="stroke: none; stroke-width: 1; stroke-dasharray: none; stroke-linecap: butt; stroke-dashoffset: 0; stroke-linejoin: miter; stroke-miterlimit: 4; fill: rgb(241,192,192); fill-rule: nonzero; opacity: 1;" vector-effect="non-scaling-stroke"  points="-332.78,-303.72 -121.24,-76.66 -127.77,322.74 -109.8,324.92 -109.5,324.95 -91.53,324.95 -89.38,-59.5 306.75,72.81 313.42,308.42 327.88,310.04 332.79,310.58 321.44,56.47 -92.65,-88.91 -319.71,-324.95 -332.78,-324.95 -332.78,-303.72 " />
</g>
		<g transform="matrix(1 0 0 1 241.2 117.91)"  >
<polygon style="stroke: none; stroke-width: 1; stroke-dasharray: none; stroke-linecap: butt; stroke-dashoffset: 0; stroke-linejoin: miter; stroke-miterlimit: 4; fill: rgb(0,0,0); fill-rule: nonzero; opacity: 0.1;" vector-effect="non-scaling-stroke"  points="-209.45,-188.44 -207.82,-181.09 188.31,-48.77 194.99,186.83 209.45,188.45 198.11,-53.67 -209.45,-188.44 " />
</g>
		<g transform="matrix(1 0 0 1 -96.08 -3.7)"  >
<polygon style="stroke: none; stroke-width: 1; stroke-dasharray: none; stroke-linecap: butt; stroke-dashoffset: 0; stroke-linejoin: miter; stroke-miterlimit: 4; fill: rgb(0,0,0); fill-rule: nonzero; opacity: 0.1;" vector-effect="non-scaling-stroke"  points="-113.94,-303.7 97.61,-76.64 91.07,322.76 109.04,324.94 113.94,-89.71 -113.94,-324.94 -113.94,-303.7 " />
</g>
		<g transform="matrix(1 0 0 1 238.25 116.16)"  >
<polygon style="stroke: none; stroke-width: 1; stroke-dasharray: none; stroke-linecap: butt; stroke-dashoffset: 0; stroke-linejoin: miter; stroke-miterlimit: 4; fill: rgb(241,192,192); fill-rule: nonzero; opacity: 1;" vector-effect="non-scaling-stroke"  points="-205.73,-26.4 -60.44,2.21 -60.39,2.22 194.08,52.35 205.73,47.68 205.69,46.86 204.93,30.61 -205.58,-52.34 -205.73,-26.4 " />
</g>
		<g transform="matrix(1 0 0 1 310.92 143.44)"  >
<polygon style="stroke: none; stroke-width: 1; stroke-dasharray: none; stroke-linecap: butt; stroke-dashoffset: 0; stroke-linejoin: miter; stroke-miterlimit: 4; fill: rgb(0,0,0); fill-rule: nonzero; opacity: 0.1;" vector-effect="non-scaling-stroke"  points="-133.06,-25.06 121.41,25.06 133.06,20.4 133.02,19.57 -133.06,-25.06 " />
</g>
		<g transform="matrix(1 0 0 1 205.14 151.99)"  >
<polygon style="stroke: none; stroke-width: 1; stroke-dasharray: none; stroke-linecap: butt; stroke-dashoffset: 0; stroke-linejoin: miter; stroke-miterlimit: 4; fill: rgb(241,192,192); fill-rule: nonzero; opacity: 1;" vector-effect="non-scaling-stroke"  points="-17.56,-163.67 -13.63,52.67 -11.6,163.66 6.29,163.06 17.55,162.68 14.05,-160.54 6.29,-163.12 4.59,-163.67 -17.56,-163.67 " />
</g>
		<g transform="matrix(1 0 0 1 199.59 151.96)"  >
<polygon style="stroke: none; stroke-width: 1; stroke-dasharray: none; stroke-linecap: butt; stroke-dashoffset: 0; stroke-linejoin: miter; stroke-miterlimit: 4; fill: rgb(0,0,0); fill-rule: nonzero; opacity: 0.1;" vector-effect="non-scaling-stroke"  points="-11.85,-163.69 -11.85,-163.64 -8.08,52.7 -6.04,163.69 11.85,163.09 11.85,-163.69 -11.85,-163.69 " />
</g>
		<g transform="matrix(1 0 0 1 -100.45 52.35)"  >
<path style="stroke: none; stroke-width: 1; stroke-dasharray: none; stroke-linecap: butt; stroke-dashoffset: 0; stroke-linejoin: miter; stroke-miterlimit: 4; fill: rgb(63,61,86); fill-rule: nonzero; opacity: 1;" vector-effect="non-scaling-stroke"  transform=" translate(-499.54, -502.34)" d="M 507.35 493.57 C 508.3995589014871 494.14037359297265 509.40264960529123 494.7923825504453 510.35 495.52 C 511.4702179016344 496.5006896382551 512.4765467796882 497.6042969745207 513.35 498.81 C 517.64 504.36 521.6 510.81 521.1800000000001 517.81 C 521.1981066612852 519.8670238619484 520.3955504578432 521.846422569989 518.95 523.31 C 517.1800000000001 524.8199999999999 514.6400000000001 524.89 512.32 524.89 C 509.80000000000007 524.89 507.15000000000003 524.89 504.97 523.59 C 502.79 522.2900000000001 500.97 519.76 498.39000000000004 519.82 C 498.0258080161722 519.8802456208392 497.65419198382784 519.8802456208392 497.29 519.82 C 496.40000000000003 519.5300000000001 496.22 518.36 495.64000000000004 517.62 C 494.64000000000004 516.29 492.53000000000003 516.62 490.96000000000004 517.2 C 489.39000000000004 517.7800000000001 487.65000000000003 518.6500000000001 486.1 517.98 C 485.2001835504902 517.5052634542775 484.4647365457225 516.7698164495099 483.99 515.87 C 480.28000000000003 509.87 479.49 502.66 478.79 495.69 C 478.36 491.45 475.08000000000004 476.99 484.13 480.28 C 488.13 481.71999999999997 491.87 484.59999999999997 495.51 486.71 Z" stroke-linecap="round" />
</g>
		<g transform="matrix(1 0 0 1 -90.24 57.5)"  >
<path style="stroke: none; stroke-width: 1; stroke-dasharray: none; stroke-linecap: butt; stroke-dashoffset: 0; stroke-linejoin: miter; stroke-miterlimit: 4; fill: rgb(63,61,86); fill-rule: nonzero; opacity: 1;" vector-effect="non-scaling-stroke"  transform=" translate(-509.75, -507.5)" d="M 498.41 495 C 500.07329394053676 496.19639928628874 502.33777199415374 496.10565517485054 503.90000000000003 494.78 C 505.3890371173619 493.4344957604267 506.3380000756819 491.5934365379182 506.57000000000005 489.59999999999997 C 507.57000000000005 489.28999999999996 508.08000000000004 490.59999999999997 508.72 491.4 C 509.84000000000003 492.76 512.12 492.73999999999995 513.14 494.19 C 513.85 495.19 513.6899999999999 496.58 514.1899999999999 497.71 C 514.8399999999999 499.16999999999996 516.4499999999999 499.93 517.55 501.10999999999996 C 518.5887261987353 502.3992378471941 519.3389234913743 503.8962224447781 519.75 505.49999999999994 L 521.39 510.41999999999996 C 522.1747032533816 512.466056859263 522.6792702143166 514.6087845533668 522.89 516.79 C 523.0989157328456 518.9926487762696 522.4143367571511 521.1869045457327 520.99 522.88 C 518.79 525.25 515.1800000000001 525.5 511.99 525.43 C 510.9246601401922 525.4526441835678 509.8612928148614 525.3281359840829 508.83 525.06 C 506 524.18 504.19 521.3299999999999 503.44 518.4599999999999 C 502.69 515.5899999999999 502.77 512.5799999999999 502.33 509.63999999999993 C 501.8547572235889 506.75210204885934 501.0147043282138 503.93624474356216 499.83 501.25999999999993 C 498.95 499.17999999999995 496.53 496.0799999999999 496.57 493.86999999999995 C 497.29 493.87 497.81 494.53 498.41 495 Z" stroke-linecap="round" />
</g>
		<g transform="matrix(1 0 0 1 -102.42 35.9)"  >
<path style="stroke: none; stroke-width: 1; stroke-dasharray: none; stroke-linecap: butt; stroke-dashoffset: 0; stroke-linejoin: miter; stroke-miterlimit: 4; fill: rgb(190,111,114); fill-rule: nonzero; opacity: 1;" vector-effect="non-scaling-stroke"  transform=" translate(-497.57, -485.89)" d="M 502 484.87 C 501.5324991195525 483.4500856299882 501.26000886313057 481.97325572172633 501.19 480.48 C 501.19 477.48 502.56 474.66 503.94 471.98 L 492.51 473.53000000000003 C 491.13 473.72 489.59 474.00000000000006 488.81 475.15000000000003 C 488.2087744892384 476.30653005796944 488.2087744892384 477.6834699420306 488.81 478.84000000000003 C 489.38299845615205 479.9809007436336 489.83866884773954 481.17703552155064 490.17 482.41 C 490.1959235549684 483.48899319548605 490.31976530327717 484.5634040389218 490.54 485.62 C 490.8957029187519 486.3961660518023 491.3943931926791 487.098403376312 492.01000000000005 487.69 C 495.28000000000003 491.31 497.7300000000001 495.58 500.1700000000001 499.81 C 500.1000000000001 499.69 507.06000000000006 494.3 506.7800000000001 492.54 C 506.62000000000006 491.54 504.61000000000007 490.34000000000003 503.9700000000001 489.38 C 503.08594439914515 487.98658377602777 502.4215070519244 486.465460712086 502 484.87 Z" stroke-linecap="round" />
</g>
		<g transform="matrix(1 0 0 1 -103.8 19.83)"  >
<polygon style="stroke: none; stroke-width: 1; stroke-dasharray: none; stroke-linecap: butt; stroke-dashoffset: 0; stroke-linejoin: miter; stroke-miterlimit: 4; fill: rgb(241,192,192); fill-rule: nonzero; opacity: 1;" vector-effect="non-scaling-stroke"  points="103.8,-24.02 103.8,-14.18 -64.87,18.73 -73.62,24.02 -103.81,24.02 -103.81,18.48 61.91,-21.56 103.8,-24.02 " />
</g>
		<g transform="matrix(1 0 0 1 -103.8 24.75)"  >
<polygon style="stroke: none; stroke-width: 1; stroke-dasharray: none; stroke-linecap: butt; stroke-dashoffset: 0; stroke-linejoin: miter; stroke-miterlimit: 4; fill: rgb(0,0,0); fill-rule: nonzero; opacity: 0.1;" vector-effect="non-scaling-stroke"  points="103.8,-19.1 -64.87,13.8 -73.62,19.1 -103.81,19.1 63.14,-16.63 103.8,-19.1 " />
</g>
		<g transform="matrix(1 0 0 1 -147.64 286.12)"  >
<path style="stroke: none; stroke-width: 1; stroke-dasharray: none; stroke-linecap: butt; stroke-dashoffset: 0; stroke-linejoin: miter; stroke-miterlimit: 4; fill: rgb(29,165,122); fill-rule: nonzero; opacity: 1;" vector-effect="non-scaling-stroke"  transform=" translate(-452.35, -736.12)" d="M 464.58 725.42 C 460.71042910353526 720.7336846713683 454.12123932905143 719.3329638262265 448.68 722.04 C 448.1143791898583 722.30631929619 447.6155234865923 722.6958367631238 447.22 723.18 C 446.22 724.5799999999999 446.86 726.51 446.95000000000005 728.2399999999999 C 447.18000000000006 732.4599999999999 443.82000000000005 735.8899999999999 440.80000000000007 738.8399999999999 C 439.18000000000006 740.42 437.5300000000001 742.1099999999999 436.80000000000007 744.2599999999999 C 436.07000000000005 746.4099999999999 436.61000000000007 749.1399999999999 438.57000000000005 750.2599999999999 C 439.4253413940243 750.6887903176882 440.35599245835647 750.9469271092548 441.31000000000006 751.0199999999999 C 444.50640485926806 751.6435345762804 447.783859031478 751.7347626821049 451.01000000000005 751.2899999999998 C 454.20000000000005 750.6799999999998 457.33000000000004 748.8699999999999 458.71000000000004 745.9299999999998 C 458.97623891324054 745.1328974543721 459.4169414321423 744.4052258533948 460 743.8 C 461.76 742.41 464.46 744.04 466.46 743.05 C 468.10999999999996 742.2299999999999 468.18 740.9399999999999 468.2 739.24 C 468.26 734.54 467.56 729.22 464.58 725.42 Z" stroke-linecap="round" />
</g>
		<g transform="matrix(1 0 0 1 -121.43 278.96)"  >
<path style="stroke: none; stroke-width: 1; stroke-dasharray: none; stroke-linecap: butt; stroke-dashoffset: 0; stroke-linejoin: miter; stroke-miterlimit: 4; fill: rgb(29,165,122); fill-rule: nonzero; opacity: 1;" vector-effect="non-scaling-stroke"  transform=" translate(-478.56, -728.96)" d="M 488.58 725.24 C 489.81 728.48 489.97999999999996 732.01 490.14 735.47 C 490.22999999999996 737.47 490.28999999999996 739.61 489.21 741.3000000000001 C 488.13 742.9900000000001 486.02 743.8800000000001 484 744.3000000000001 C 479.83 745.1600000000001 475 744.35 472.31 741.0400000000001 C 470.25 738.5100000000001 469.82 735.0400000000001 470.2 731.7600000000001 C 470.52 729.07 471.2 725.9200000000001 469.27 724.0100000000001 C 468.77 723.5000000000001 468.12 723.1400000000001 467.65999999999997 722.5900000000001 C 466.65999999999997 721.3700000000001 466.82 719.5300000000002 467.35999999999996 718.0300000000002 C 468.0632806299438 716.5954756687469 468.5904432822521 715.0811421898229 468.92999999999995 713.5200000000002 C 469.00999999999993 712.7800000000002 482.46999999999997 714.0400000000002 483.7099999999999 714.6500000000002 C 485.3999999999999 715.4800000000002 485.13999999999993 716.8700000000002 485.6499999999999 718.5500000000002 C 486.36 720.89 487.72 723 488.58 725.24 Z" stroke-linecap="round" />
</g>
		<g transform="matrix(1 0 0 1 -139.07 203.63)"  >
<path style="stroke: none; stroke-width: 1; stroke-dasharray: none; stroke-linecap: butt; stroke-dashoffset: 0; stroke-linejoin: miter; stroke-miterlimit: 4; fill: rgb(63,61,86); fill-rule: nonzero; opacity: 1;" vector-effect="non-scaling-stroke"  transform=" translate(-460.92, -653.62)" d="M 491.05 581.58 C 493.69 583.2900000000001 494.71000000000004 586.6500000000001 495.12 589.7700000000001 C 496.25 598.32 494.27 606.9600000000002 494.12 615.5900000000001 C 493.98 627.6800000000002 497.48 639.9900000000001 494.49 651.7000000000002 C 492.7 658.7000000000002 494.22 666.7000000000002 492.54 673.7700000000002 C 492.04 675.8700000000002 491.12 677.8500000000003 490.64000000000004 679.9500000000002 C 489.64000000000004 684.5000000000001 490.69000000000005 689.2600000000001 492.1 693.7100000000002 C 492.5501686338482 694.9093355084603 492.8360924804765 696.1640366236644 492.95000000000005 697.4400000000002 C 492.88220217591964 699.4042289009589 492.3837924734851 701.3295924089938 491.49000000000007 703.0800000000002 L 485.49000000000007 717.2700000000002 C 484.82000000000005 718.8600000000002 482.18000000000006 719.1200000000002 480.49000000000007 719.3300000000002 C 477.31000000000006 719.7100000000002 473.76000000000005 719.9800000000001 471.2300000000001 718.0100000000001 C 468.7000000000001 716.0400000000001 468.0900000000001 712.7400000000001 467.7000000000001 709.6600000000001 C 466.95197315727285 703.747195608231 466.6178268173493 697.7893663673933 466.7000000000001 691.8300000000002 C 466.80991257414587 690.2746880102163 466.6715138189033 688.7117947497945 466.2900000000001 687.2 C 465.74000000000007 685.49 464.5300000000001 684.01 464.2000000000001 682.2 C 463.7800000000001 679.86 464.9700000000001 677.5600000000001 465.4100000000001 675.2 C 465.71176028553276 673.0444672921282 465.67802754454965 670.8552124023237 465.31000000000006 668.71 C 464.9200000000001 665.51 464.4700000000001 662.3100000000001 463.96000000000004 659.13 C 463.24 654.68 464.27000000000004 650.29 464.96000000000004 645.83 C 465.61 641.64 464.78000000000003 637.37 463.96000000000004 633.21 C 464.0308937450068 636.5863348397545 463.60981020571535 639.9550031540858 462.71000000000004 643.21 C 462.18000000000006 644.8000000000001 461.42 646.32 460.96000000000004 647.94 C 458.91 655.21 463.28000000000003 662.84 462.66 670.37 C 462.37 673.89 460.99 677.37 461.38000000000005 680.84 C 461.65000000000003 683.38 462.83000000000004 685.71 463.64000000000004 688.13 C 464.45000000000005 690.55 464.87000000000006 693.32 463.64000000000004 695.58 C 460.39000000000004 701.72 462.82000000000005 710.07 465.73 716.37 C 466.3206687247072 717.4873355299586 466.8351736349996 718.6433011076285 467.27000000000004 719.83 C 468.13000000000005 722.6700000000001 467.41 725.72 467.64000000000004 728.6800000000001 C 465.9429176004113 728.9578023231126 464.21254228558604 728.4375828787835 462.95000000000005 727.2700000000001 C 462.51000000000005 726.8100000000001 462.15000000000003 726.2700000000001 461.72 725.7900000000001 C 460.5185379972653 724.6449467123379 459.09624163986194 723.7568621446769 457.54 723.1800000000001 C 456.6262642571816 722.6686118618999 455.58533922077066 722.4291991035253 454.54 722.49 C 453.4410212998601 722.7969971410402 452.45236813246726 723.4110027923683 451.69 724.26 C 450.70097030823484 725.1296762135572 449.65168734763193 725.9283342631882 448.55 726.65 C 448.0807337374309 727.010564667319 447.53221580019084 727.2539695019693 446.95 727.36 C 446.3495921807628 727.4528029544568 445.757249520339 727.1505873113836 445.47999999999996 726.61 C 445.41751549819327 726.44314868016 445.3804355545948 726.2678616740579 445.36999999999995 726.09 C 444.9985897950575 723.0705281483417 444.80159618322404 720.0321521014181 444.78 716.99 C 444.78 711.76 438.52 708.16 437.72999999999996 702.99 C 437.09999999999997 698.82 438.27 694.57 437.87999999999994 690.37 C 437.68999999999994 688.21 437.0899999999999 686.09 437.12999999999994 683.93 C 437.12999999999994 682.53 437.44999999999993 681.16 437.55999999999995 679.77 C 437.65167922440077 678.2270698456664 437.62828113607054 676.6794534318211 437.48999999999995 675.14 L 437.17999999999995 670.31 C 436.87999999999994 665.54 436.54999999999995 660.67 434.66999999999996 656.31 C 432.4406444459793 651.2189788679143 431.12068140469455 645.7766697130788 430.77 640.2299999999999 C 430.57 636.7299999999999 430.7 633.2299999999999 430.29999999999995 629.7199999999999 C 429.93999999999994 626.55 429.13999999999993 623.3999999999999 429.36999999999995 620.2199999999999 C 429.55999999999995 617.7599999999999 430.36999999999995 615.3799999999999 430.55999999999995 612.92 C 430.94999999999993 608.1899999999999 429.1499999999999 603.5899999999999 427.73999999999995 599.06 C 426.33 594.53 425.28999999999996 589.51 427.13999999999993 585.14 C 427.40438000659884 584.4226995051146 427.8444783898727 583.7831815419197 428.4199999999999 583.28 C 429.12931706063915 582.810635068415 429.93654613035795 582.5096343983504 430.7799999999999 582.4 C 447.937491966033 578.7958081155333 465.52367543562895 577.674360567587 483 579.07 C 485.84898630363216 579.2315458973084 488.61407265577157 580.0937032567953 491.05 581.58 Z" stroke-linecap="round" />
</g>
		<g transform="matrix(1 0 0 1 -165.71 9.35)"  >
<circle style="stroke: none; stroke-width: 1; stroke-dasharray: none; stroke-linecap: butt; stroke-dashoffset: 0; stroke-linejoin: miter; stroke-miterlimit: 4; fill: rgb(190,111,114); fill-rule: nonzero; opacity: 1;" vector-effect="non-scaling-stroke"  cx="0" cy="0" r="16.02" />
</g>
		<g transform="matrix(1 0 0 1 -158.46 30.04)"  >
<path style="stroke: none; stroke-width: 1; stroke-dasharray: none; stroke-linecap: butt; stroke-dashoffset: 0; stroke-linejoin: miter; stroke-miterlimit: 4; fill: rgb(190,111,114); fill-rule: nonzero; opacity: 1;" vector-effect="non-scaling-stroke"  transform=" translate(-441.53, -480.04)" d="M 431.18 479.36 C 431.410286170475 480.27574416120643 431.410286170475 481.23425583879356 431.18 482.15000000000003 C 430.92808498760115 482.78988546366946 430.5734230214722 483.38436647356184 430.13 483.91 C 428.57924713860154 485.9103511027446 426.86321495018564 487.7769124304952 425 489.49 C 425.94918042367016 491.61005870654986 427.6581457278422 493.2976173472041 429.79 494.22 C 431.90668199934 495.1209658511468 434.1269765620258 495.7558155823838 436.40000000000003 496.11 C 437.53455758833655 496.4083025959475 438.7152333697426 496.4897285119065 439.88000000000005 496.35 C 440.95345505816715 496.0802099395583 441.96963280294926 495.6195426952571 442.88000000000005 494.99 L 451.78000000000003 489.66 C 453.1228863121385 488.9326018961518 454.3664568676345 488.03521449529387 455.48 486.99 C 457.11229561209484 485.3122811252145 458.0361698588781 483.07063275898844 458.06 480.73 C 458.1014464037398 480.31075039944415 457.98758038477666 479.89086945451754 457.74 479.55 C 457.39886178373365 479.25306187428777 456.9709750498577 479.0741911904544 456.52 479.04 C 453.39 478.35 450.91999999999996 475.81 449.52 472.93 C 448.25441168084654 469.97772836049245 447.4354332568094 466.85347733546183 447.09 463.66 L 437.59999999999997 468.66 C 436.18999999999994 469.41 434.78999999999996 470.16 433.33 470.81 C 432.4 471.23 430.52 471.58 429.85999999999996 472.43 C 428.6 474 430.85 477.47 431.18 479.36 Z" stroke-linecap="round" />
</g>
		<g transform="matrix(1 0 0 1 -146.59 80.8)"  >
<path style="stroke: none; stroke-width: 1; stroke-dasharray: none; stroke-linecap: butt; stroke-dashoffset: 0; stroke-linejoin: miter; stroke-miterlimit: 4; fill: rgb(63,61,86); fill-rule: nonzero; opacity: 1;" vector-effect="non-scaling-stroke"  transform=" translate(-453.4, -530.8)" d="M 425.06 486.58 C 423.7088014845796 487.68776927287615 422.65389078477887 489.1137886227697 421.99 490.72999999999996 C 421.37 492.72999999999996 421.99 494.84 422.55 496.81999999999994 C 425.17455878600526 505.25930425132003 427.17988207714455 513.8788521977339 428.55 522.6099999999999 C 429.39 528.6099999999999 429.7 534.6999999999999 430.11 540.7699999999999 C 430.95 553.1499999999999 432.17 572.8899999999999 433.8 585.1899999999998 C 439.8 585.4599999999998 445.65000000000003 583.7099999999998 451.6 583.0699999999998 C 462.72 581.8899999999999 474.17 584.5899999999998 485.06 582.0699999999998 C 482.42 571.6399999999999 479.78000000000003 553.8299999999998 477.14 543.4099999999999 C 475.9717734033036 539.3045567936014 475.1620685003252 535.1054673174118 474.71999999999997 530.8599999999999 C 474.48999999999995 527.81 474.63 524.7499999999999 474.66999999999996 521.68 C 474.75999999999993 515.68 474.42999999999995 509.67999999999995 474.09999999999997 503.67999999999995 C 473.71999999999997 496.67999999999995 473.34 489.67999999999995 471.67999999999995 482.8299999999999 C 471.564361567967 481.95716113628043 471.1552947612013 481.14960683671706 470.5199999999999 480.5399999999999 C 469.5199999999999 479.8099999999999 468.2199999999999 480.0699999999999 467.0299999999999 480.2299999999999 C 463.3863319900416 480.69277083130953 459.69844881152613 479.8187638352452 456.6499999999999 477.7699999999999 C 455.3299999999999 476.86999999999995 453.55999999999995 475.7699999999999 452.3299999999999 476.7699999999999 C 451.8051072926835 477.37321181385863 451.4588066084867 478.11083227119775 451.3299999999999 478.8999999999999 C 450.2289173337736 481.76198606387493 447.9476300432371 484.0104752943239 445.06999999999994 485.06999999999994 C 442.2202473641935 486.10203221815794 439.23581984583416 486.7150861779112 436.2099999999999 486.88999999999993 C 435.28402816933027 487.08878248812044 434.31847960910164 486.9799388322401 433.4599999999999 486.5799999999999 C 432.0399999999999 485.7099999999999 431.93999999999994 482.5799999999999 430.1499999999999 482.36999999999995 C 428.58 482.19 426.12 485.57 425.06 486.58 Z" stroke-linecap="round" />
</g>
		<g transform="matrix(1 0 0 1 -151.03 84.94)"  >
<path style="stroke: none; stroke-width: 1; stroke-dasharray: none; stroke-linecap: butt; stroke-dashoffset: 0; stroke-linejoin: miter; stroke-miterlimit: 4; fill: rgb(29,165,122); fill-rule: nonzero; opacity: 1;" vector-effect="non-scaling-stroke"  transform=" translate(-448.96, -534.94)" d="M 448.72 511 C 445.03000000000003 507.47 443.41 502.35 440.72 498 C 438.88826968693974 495.07490060878365 436.54808303378513 492.50103395697835 433.81 490.4 C 432.4335244940623 489.4909668781492 431.17115891329684 488.41997054765943 430.05 487.21 C 429.1 486.03999999999996 428.38 484.47999999999996 426.94 484.03 C 425.73208780375967 483.7671743973842 424.4721560916262 484.1148706858958 423.57 484.96 C 422.68845735708686 485.8000904462408 421.8538597383242 486.68810231260426 421.07 487.62 C 416.83 492.01 409.38 492.62 406.02 497.7 C 405.11352971347725 498.7770444480589 404.4973661726114 500.0678898549007 404.22999999999996 501.45 C 403.2626096537131 508.8437638842888 405.17446086537495 516.326477428059 409.56999999999994 522.35 C 410.4210769930453 523.7462308367344 411.7280045979336 524.8059018677249 413.2699999999999 525.35 C 413.06087984653203 527.2145899226787 413.30796814450986 529.1020699766759 413.98999999999995 530.85 C 415.84156250693997 537.1790134661651 418.11669663414625 543.3763318302879 420.79999999999995 549.3999999999999 C 420.1584239674431 551.756209642998 419.71026892097746 554.1608624669442 419.46 556.59 C 418.76 562.7 419.40999999999997 568.9 418.75 575.02 C 418.21 580.02 416.75 584.89 416.7 589.9 C 416.7 590.6999999999999 416.77 591.65 417.46 592.06 C 417.82705650506995 592.2485790437092 418.23808858631827 592.3349303212824 418.65 592.31 L 430.95 592.68 C 438.09 592.89 445.3 593.0999999999999 452.33 591.78 C 453.26615477152734 591.641483954884 454.17422667376974 591.3545467367034 455.02 590.93 C 457.4 589.5999999999999 458.19 586.5999999999999 458.57 583.93 C 459.0662707583778 580.4667049134091 459.263665254748 576.9671346896256 459.15999999999997 573.4699999999999 C 460.65 578.18 462.41999999999996 583.05 466.91999999999996 585.0899999999999 C 469.29999999999995 586.17 472.02 586.0899999999999 474.62999999999994 586.0199999999999 C 480.2554844436433 585.7694810603442 485.86162587276493 585.1918381376295 491.42 584.2899999999998 C 492.1146031240635 584.3762625696055 492.80900883163474 584.1283807080024 493.29197150562385 583.6217627193689 C 493.77493417961296 583.1151447307354 493.9893531942335 582.4096880062026 493.86999999999995 581.7199999999998 L 493.92999999999995 576.2599999999998 C 494.04999999999995 565.1699999999997 491.29999999999995 554.5699999999997 490.22999999999996 543.5299999999997 C 489.89 540.0499999999997 489.91999999999996 536.5299999999997 489.06999999999994 533.1199999999998 C 488.7199999999999 531.6899999999998 488.2099999999999 530.2899999999997 487.8999999999999 528.8499999999998 C 487.633167576966 527.4401895078713 487.4660864919039 526.0133170414409 487.3999999999999 524.5799999999998 L 486.61999999999995 513.5799999999998 C 486.24999999999994 508.48999999999984 485.71999999999997 503.5799999999998 485.3299999999999 498.49999999999983 C 485.1156708468519 493.5534053645836 484.39864581240823 488.64144882021697 483.18999999999994 483.83999999999975 C 482.31999999999994 480.8399999999998 480.50999999999993 477.4399999999998 477.37999999999994 477.0699999999998 C 475.7099999999999 476.8799999999998 474.0899999999999 477.60999999999984 472.49999999999994 478.11999999999983 C 468.59193168279523 479.3503388615446 464.397679976895 479.33286281277003 460.49999999999994 478.0699999999998 C 459.2957544686507 477.5945051044462 458.04085624660996 477.25897082047805 456.75999999999993 477.0699999999998 C 455.44726026037057 476.89134014553423 454.14013077162633 477.4340664244865 453.3399999999999 478.48999999999984 C 452.95194822680804 479.27127494744946 452.76953454107627 480.13860039658937 452.80999999999995 481.0099999999998 C 452.34 491 451.47 501.29 448.72 511 Z" stroke-linecap="round" />
</g>
		<g transform="matrix(1 0 0 1 -167.29 66.19)"  >
<path style="stroke: none; stroke-width: 1; stroke-dasharray: none; stroke-linecap: butt; stroke-dashoffset: 0; stroke-linejoin: miter; stroke-miterlimit: 4; fill: rgb(63,61,86); fill-rule: nonzero; opacity: 1;" vector-effect="non-scaling-stroke"  transform=" translate(-432.7, -516.19)" d="M 432.63 511.3 C 428.02 506.44 423.29 501.49 417.35 498.40000000000003 C 415.01000000000005 497.18 412.35 496.26000000000005 409.76000000000005 496.72 C 407.1700000000001 497.18 404.76000000000005 499.43 404.88000000000005 502.06 C 404.96000000000004 503.69 405.95000000000005 505.13 406.26000000000005 506.73 C 406.62000000000006 508.53000000000003 406.1 510.45000000000005 406.66 512.19 C 407.1150540699828 513.3365778958481 407.79508825117773 514.3804303639823 408.66 515.2600000000001 L 415.74 523.6500000000001 C 418.74 527.1500000000001 421.74 530.7 425.6 533.1200000000001 C 429.46000000000004 535.5400000000002 434.46000000000004 536.6700000000001 438.70000000000005 534.9500000000002 C 441.7166774176348 533.5478577845586 444.2249605410306 531.2456870626673 445.88000000000005 528.3600000000001 C 447.64000000000004 525.5600000000002 448.88000000000005 522.5000000000001 450.53000000000003 519.6100000000001 C 453.09806468160576 514.9922696730714 456.4868531885666 510.8816692141279 460.53000000000003 507.48000000000013 C 458.45000000000005 506.9400000000001 455.84000000000003 506.1800000000001 454.53000000000003 504.48000000000013 C 454.15713572791975 503.9395536173774 453.8389052090034 503.363388888392 453.58000000000004 502.7600000000001 L 451.96000000000004 499.2600000000001 C 450.8461933737599 499.2019498651703 449.75872919274974 499.6115613733508 448.96000000000004 500.3900000000001 C 448.26530886776857 501.19296223823824 447.5204862715607 501.9511448810149 446.73 502.6600000000001 C 445.32 503.7200000000001 443.41 504.0100000000001 442.13 505.2200000000001 C 441.634747353624 505.7394602369345 441.18633875129376 506.3016441562739 440.79 506.9000000000001 C 438.8314229734096 509.47435237006147 435.8570886492888 511.07816009385203 432.63 511.3 Z" stroke-linecap="round" />
</g>
		<g transform="matrix(1 0 0 1 -135.7 35.71)"  >
<path style="stroke: none; stroke-width: 1; stroke-dasharray: none; stroke-linecap: butt; stroke-dashoffset: 0; stroke-linejoin: miter; stroke-miterlimit: 4; fill: rgb(190,111,114); fill-rule: nonzero; opacity: 1;" vector-effect="non-scaling-stroke"  transform=" translate(-464.29, -485.71)" d="M 460.9 490.39 C 464.37 484.06 464.21 476.46999999999997 465.2 469.32 C 465.3072160394885 467.4265068240924 465.9717203318822 465.6069479501557 467.11 464.09 C 469.11 461.83 472.64 461.79999999999995 475.66 462.09 C 476.55 462.19 477.66 462.60999999999996 477.61 463.5 C 477.53987241825143 463.8189043047725 477.38431940609917 464.1127266610602 477.16 464.35 C 474.23288199574966 468.12786100440076 472.5114551636312 472.69974765164665 472.22 477.47 C 473.79 478.56 476.22 476.32000000000005 477.73 477.47 C 478.73 478.31 478.27000000000004 479.97 477.67 481.17 Q 475.58000000000004 485.34000000000003 473.36 489.45 C 472.17858902369903 491.86507379609054 470.63773513923246 494.08700532752044 468.79 496.03999999999996 C 467.52000000000004 497.26 466.03000000000003 498.21999999999997 464.74 499.41999999999996 C 461.74 502.22999999999996 459.93 506.19999999999993 456.83 508.93999999999994 C 456.56810040016614 509.22374573783964 456.21346176217247 509.4046114432164 455.83 509.44999999999993 C 455.43559549033574 509.42178161859664 455.06378310273914 509.25535131176764 454.78 508.9799999999999 C 453.2314125504627 507.72038776439024 451.94683575154033 506.16734121119566 451 504.4099999999999 C 449.82 502.2299999999999 450 501.5899999999999 451.86 500.0499999999999 C 455.34 497.3 458.73 494.35 460.9 490.39 Z" stroke-linecap="round" />
</g>
		<g transform="matrix(1 0 0 1 -179.68 50.61)"  >
<path style="stroke: none; stroke-width: 1; stroke-dasharray: none; stroke-linecap: butt; stroke-dashoffset: 0; stroke-linejoin: miter; stroke-miterlimit: 4; fill: rgb(29,165,122); fill-rule: nonzero; opacity: 1;" vector-effect="non-scaling-stroke"  transform=" translate(-420.31, -500.61)" d="M 426.83 507 C 427.43 507.37 428.16999999999996 507.79 428.83 507.48 C 429.09969595093395 507.31689414904747 429.32879829092917 507.09463068487304 429.5 506.83000000000004 C 430.6432084066086 505.30440771819633 431.59686003947076 503.6455911455417 432.34 501.89000000000004 C 432.4678972603581 501.64198976964644 432.53959587786665 501.3688521791376 432.54999999999995 501.09000000000003 C 432.54999999999995 500.45000000000005 431.97999999999996 499.98 431.44999999999993 499.61 C 428.610097158987 497.8000143731706 425.55682793868186 496.34895573381766 422.35999999999996 495.29 C 419.71999999999997 494.29 416.96 493.42 414.15999999999997 493.67 C 412.0340760004942 493.8127648869438 410.05845852163594 494.8168264209887 408.68999999999994 496.45 C 406.68999999999994 499.02 410.03999999999996 499.8 412.13999999999993 500.72999999999996 C 417 502.94 422.26 504.22 426.83 507 Z" stroke-linecap="round" />
</g>
		<g transform="matrix(1 0 0 1 -174.65 70.1)"  >
<path style="stroke: none; stroke-width: 1; stroke-dasharray: none; stroke-linecap: butt; stroke-dashoffset: 0; stroke-linejoin: miter; stroke-miterlimit: 4; fill: rgb(0,0,0); fill-rule: nonzero; opacity: 0.1;" vector-effect="non-scaling-stroke"  transform=" translate(-425.34, -520.09)" d="M 423.68 524 C 423.6114674267901 524.4629095500236 423.76742821141795 524.9307919039071 424.1 525.26 C 424.39000000000004 523.84 424.01000000000005 522.34 424.31 520.91 C 424.75 518.76 426.84 517.14 427.02 514.98 C 423.19 514.23 423.71 521.68 423.68 524 Z" stroke-linecap="round" />
</g>
		<g transform="matrix(1 0 0 1 -20.94 1.96)"  >
<polygon style="stroke: none; stroke-width: 1; stroke-dasharray: none; stroke-linecap: butt; stroke-dashoffset: 0; stroke-linejoin: miter; stroke-miterlimit: 4; fill: rgb(0,0,0); fill-rule: nonzero; opacity: 0.2;" vector-effect="non-scaling-stroke"  points="20.95,-6.16 20.95,3.69 -19.71,6.16 -20.94,-3.7 20.95,-6.16 " />
</g>
		<g transform="matrix(1 0 0 1 -167.52 0.14)"  >
<path style="stroke: none; stroke-width: 1; stroke-dasharray: none; stroke-linecap: butt; stroke-dashoffset: 0; stroke-linejoin: miter; stroke-miterlimit: 4; fill: rgb(63,61,86); fill-rule: nonzero; opacity: 1;" vector-effect="non-scaling-stroke"  transform=" translate(-432.47, -450.14)" d="M 419.86 461.73 C 422.40000000000003 459.66 420.93 455.32 422.65000000000003 452.54 C 423.65000000000003 451.02000000000004 425.34000000000003 450.22 427.00000000000006 449.54 C 429.0034368659376 448.6025907765292 431.1498505771784 448.00767925971286 433.3500000000001 447.78000000000003 C 435.5820579434398 447.56555286800005 437.79033857118947 448.3789362325545 439.3500000000001 449.99 C 440.00000000000006 450.73 440.44000000000005 451.63 441.05000000000007 452.40000000000003 C 442.58910449141746 454.2302298578202 445.0088714647737 455.0675460486006 447.3500000000001 454.58000000000004 C 448.68000000000006 454.28000000000003 450.06000000000006 453.27000000000004 449.9700000000001 451.91 C 449.8197976725206 451.08282091448234 449.39741985445295 450.3295804722616 448.7700000000001 449.77000000000004 L 445.9100000000001 446.6 C 442.6600000000001 443 439.05000000000007 439.18 434.2800000000001 438.28000000000003 C 430.9600000000001 437.65000000000003 427.56000000000006 438.54 424.36000000000007 439.61 C 423.07000000000005 440.04 421.62000000000006 440.68 421.26000000000005 441.99 C 421.02000000000004 442.89 421.38000000000005 443.87 421.1700000000001 444.78000000000003 C 420.76000000000005 446.59000000000003 418.44000000000005 447.20000000000005 417.36000000000007 448.72 C 416.2800000000001 450.24 416.61000000000007 452.04 416.30000000000007 453.72 C 415.99000000000007 455.40000000000003 415.0900000000001 457.04 414.9800000000001 458.78000000000003 C 414.9100000000001 459.83000000000004 415.44000000000005 461.78000000000003 416.62000000000006 462.16 C 417.80000000000007 462.54 419.13 460.48 419.86 461.73 Z" stroke-linecap="round" />
</g>
		<g transform="matrix(1 0 0 1 -168.43 -6.61)"  >
<path style="stroke: none; stroke-width: 1; stroke-dasharray: none; stroke-linecap: butt; stroke-dashoffset: 0; stroke-linejoin: miter; stroke-miterlimit: 4; fill: rgb(254,210,83); fill-rule: nonzero; opacity: 1;" vector-effect="non-scaling-stroke"  transform=" translate(-431.56, -443.38)" d="M 449 450.47 C 448.1568088870917 446.070300261277 446.33899075771126 441.9152873941217 443.68 438.31 C 441.31569708827305 434.9414871041048 438.0265822718108 432.3296451379172 434.21 430.79 C 430.34473934348125 429.27956390154435 426.00064372738416 429.62222793233065 422.41999999999996 431.72 C 419.7963288629723 433.5927682957458 417.7546899550913 436.16821432045816 416.53 439.15000000000003 C 413.94 444.73 412.97999999999996 451.55 415.98999999999995 456.91 C 417.18999999999994 455.45000000000005 419.24999999999994 456.11 421.06999999999994 455.58000000000004 C 423.3499999999999 454.93000000000006 425.2799999999999 453.41 427.44999999999993 452.46000000000004 C 434 449.57 442 451.91 449 450.47 Z" stroke-linecap="round" />
</g>
		<g transform="matrix(1 0 0 1 -180.75 -2.45)"  >
<path style="stroke: none; stroke-width: 1; stroke-dasharray: none; stroke-linecap: butt; stroke-dashoffset: 0; stroke-linejoin: miter; stroke-miterlimit: 4; fill: rgb(0,0,0); fill-rule: nonzero; opacity: 0.1;" vector-effect="non-scaling-stroke"  transform=" translate(-419.24, -447.54)" d="M 417.52 450.16 C 417.28999999999996 448.36 417.14 446.27000000000004 418.41999999999996 444.99 C 418.5490029810728 444.8309859764089 418.74539281159474 444.74205473239897 418.94999999999993 444.75 C 419.1303224980834 444.8085739191966 419.2785977926669 444.93876686078215 419.35999999999996 445.11 C 420.09881832879904 446.2760615472887 420.7281671868908 447.50797846100016 421.23999999999995 448.79 C 419.7150450341777 448.438557990583 418.1299711577772 449.0527741176882 417.23999999999995 450.34000000000003" stroke-linecap="round" />
</g>
		<g transform="matrix(1 0 0 1 -157.14 -7.18)"  >
<path style="stroke: none; stroke-width: 1; stroke-dasharray: none; stroke-linecap: butt; stroke-dashoffset: 0; stroke-linejoin: miter; stroke-miterlimit: 4; fill: rgb(0,0,0); fill-rule: nonzero; opacity: 0.1;" vector-effect="non-scaling-stroke"  transform=" translate(-442.85, -442.82)" d="M 440.89 445.08 L 440.53 441.51 C 440.4719449097547 441.2158119854361 440.49616661704346 440.9113105223774 440.59999999999997 440.63 C 440.9122485365952 440.1422191669339 441.5427381620822 439.96948228323885 442.05999999999995 440.23 C 442.55196642830407 440.5026116040991 442.95738839590086 440.9080335716959 443.22999999999996 441.40000000000003 C 444.06241474024876 442.6778416838167 444.75315550126703 444.04255765340133 445.28999999999996 445.47 C 443.6793792205371 445.15971250976776 442.02248737254035 445.1801259616938 440.41999999999996 445.53000000000003" stroke-linecap="round" />
</g>
		<g transform="matrix(1 0 0 1 -171.72 144.28)"  >
<polygon style="stroke: none; stroke-width: 1; stroke-dasharray: none; stroke-linecap: butt; stroke-dashoffset: 0; stroke-linejoin: miter; stroke-miterlimit: 4; fill: rgb(0,0,0); fill-rule: nonzero; opacity: 0.1;" vector-effect="non-scaling-stroke"  points="21.56,-4.31 21.56,3.85 14.68,4.31 -21.56,4.31 -21.56,-4.31 21.56,-4.31 " />
</g>
		<g transform="matrix(1 0 0 1 -229.01 73.44)"  >
<polygon style="stroke: none; stroke-width: 1; stroke-dasharray: none; stroke-linecap: butt; stroke-dashoffset: 0; stroke-linejoin: miter; stroke-miterlimit: 4; fill: rgb(241,192,192); fill-rule: nonzero; opacity: 1;" vector-effect="non-scaling-stroke"  points="78.86,66.54 78.86,75.16 35.73,75.16 -78.85,-68.37 -78.85,-75.15 -54.83,-75.15 78.86,66.54 " />
</g>
		<g transform="matrix(1 0 0 1 -229.01 73.44)"  >
<polygon style="stroke: none; stroke-width: 1; stroke-dasharray: none; stroke-linecap: butt; stroke-dashoffset: 0; stroke-linejoin: miter; stroke-miterlimit: 4; fill: rgb(0,0,0); fill-rule: nonzero; opacity: 0.1;" vector-effect="non-scaling-stroke"  points="78.86,66.54 78.86,75.16 35.73,75.16 -78.85,-68.37 -78.85,-75.15 -54.83,-75.15 78.86,66.54 " />
</g>
		<g transform="matrix(1 0 0 1 -229.01 73.44)"  >
<polygon style="stroke: none; stroke-width: 1; stroke-dasharray: none; stroke-linecap: butt; stroke-dashoffset: 0; stroke-linejoin: miter; stroke-miterlimit: 4; fill: rgb(0,0,0); fill-rule: nonzero; opacity: 0.1;" vector-effect="non-scaling-stroke"  points="78.86,66.54 78.86,75.16 35.73,75.16 -78.85,-68.37 -78.85,-75.15 36.35,66.54 78.86,66.54 " />
</g>
		<g transform="matrix(1 0 0 1 -287.39 288.74)"  >
<path style="stroke: none; stroke-width: 1; stroke-dasharray: none; stroke-linecap: butt; stroke-dashoffset: 0; stroke-linejoin: miter; stroke-miterlimit: 4; fill: rgb(29,165,122); fill-rule: nonzero; opacity: 1;" vector-effect="non-scaling-stroke"  transform=" translate(-312.6, -738.73)" d="M 307.15 733.83 C 307.3023903419078 734.6499857109935 307.106551354795 735.4963995195872 306.6094811140742 736.1661162942987 C 306.1124108733534 736.8358330690103 305.35898026120555 737.268397002932 304.53 737.36 C 301.75 738.3000000000001 298.79999999999995 739.23 296.83 741.36 C 294.86 743.49 294.46999999999997 747.44 296.83 749.17 C 298.0363430294347 749.8974996595755 299.42134928530885 750.2749138643012 300.83 750.26 C 305.35999999999996 750.5699999999999 310.08 750.51 314.19 748.59 C 317.13 747.23 319.9 744.9100000000001 323.13 745.12 C 324.8 745.22 326.58 746 328.07 745.24 C 329.56 744.48 329.98 742.36 329.99 740.59 C 330.0279512221804 736.8949763185391 329.47082398140225 733.217936529403 328.34000000000003 729.7 C 328.19000000000005 729.22 321.83000000000004 728.85 321.07000000000005 728.7 L 313.36000000000007 727.7 C 311.9000000000001 727.51 308.75000000000006 726.4100000000001 307.6000000000001 727.63 C 306.4500000000001 728.8499999999999 307.15 732.38 307.15 733.83 Z" stroke-linecap="round" />
</g>
		<g transform="matrix(1 0 0 1 -237.99 257.89)"  >
<path style="stroke: none; stroke-width: 1; stroke-dasharray: none; stroke-linecap: butt; stroke-dashoffset: 0; stroke-linejoin: miter; stroke-miterlimit: 4; fill: rgb(29,165,122); fill-rule: nonzero; opacity: 1;" vector-effect="non-scaling-stroke"  transform=" translate(-362, -707.89)" d="M 353.16 708.87 C 353.4864054253849 710.6708946976524 354.0164751399649 712.4288474219559 354.74 714.11 C 355.81 716.83 357.18 719.72 359.8 721.04 C 362.18 722.23 365.1 721.8 367.52000000000004 720.67 C 368.5300220774796 720.251681856984 369.41516395858935 719.5800761495271 370.09000000000003 718.7199999999999 C 370.87065481675575 717.3592596742885 371.2193933502031 715.7934236591097 371.09000000000003 714.2299999999999 C 371.09000000000003 710.3599999999999 370.86 706.3599999999999 369.09000000000003 702.92 C 367.57000000000005 699.92 364.92 697.3399999999999 364.88000000000005 694.02 L 355.77000000000004 695.78 C 355.2823194945346 695.8268871084937 354.81781031087564 696.0106108900901 354.43000000000006 696.31 C 354.1413474903079 696.6139771821762 353.94085169343316 696.9907710073373 353.8500000000001 697.4 C 352.877308577401 701.1422443333706 352.6429436299074 705.0381370112713 353.16 708.87 Z" stroke-linecap="round" />
</g>
		<g transform="matrix(1 0 0 1 -347.21 162.26)"  >
<path style="stroke: none; stroke-width: 1; stroke-dasharray: none; stroke-linecap: butt; stroke-dashoffset: 0; stroke-linejoin: miter; stroke-miterlimit: 4; fill: rgb(29,165,122); fill-rule: nonzero; opacity: 1;" vector-effect="non-scaling-stroke"  transform=" translate(-252.78, -612.26)" d="M 244.37 613.87 C 243.99 617.09 244.15 620.54 245.83 623.32 C 247.51000000000002 626.1000000000001 251.05 627.94 254.11 626.83 C 254.42673268246577 626.7491120775804 254.69726069526413 626.5435107878536 254.86 626.26 C 254.94142184999095 625.9220383805899 254.8951252254624 625.5659104996012 254.73000000000002 625.26 C 253.37909940210784 621.654762809272 253.49034219148777 617.664376299902 255.04000000000002 614.14 C 255.24 613.68 255.67000000000002 613.14 256.14000000000004 613.3199999999999 C 256.336585867965 613.4195638956619 256.49478019462555 613.5812736518038 256.59000000000003 613.78 C 257.0741017375149 614.6175546522928 257.3164162474532 615.572966148621 257.29 616.54 C 257.1488375911179 617.416156021274 257.12194647470625 618.3069242524111 257.21000000000004 619.1899999999999 C 257.40000000000003 620.05 258.32000000000005 620.8599999999999 259.12000000000006 620.4899999999999 C 259.5873873217602 620.2029716115685 259.91638574377356 619.7365892331101 260.0300000000001 619.1999999999999 C 262.2600000000001 612.7499999999999 261.2500000000001 605.6999999999999 260.2300000000001 598.9499999999999 C 260.2472533123268 598.6362423753882 260.12440913123726 598.3310012849688 259.89462423279286 598.1166641107897 C 259.6648393343485 597.9023269366104 259.35180057519494 597.8009881415929 259.0400000000001 597.8399999999999 C 254.32000000000008 597.3699999999999 251.74000000000007 596.2399999999999 249.04000000000008 600.6299999999999 C 246.72 604.33 244.37 609.42 244.37 613.87 Z" stroke-linecap="round" />
</g>
		<g transform="matrix(1 0 0 1 -265.39 215.33)"  >
<path style="stroke: none; stroke-width: 1; stroke-dasharray: none; stroke-linecap: butt; stroke-dashoffset: 0; stroke-linejoin: miter; stroke-miterlimit: 4; fill: rgb(63,61,86); fill-rule: nonzero; opacity: 1;" vector-effect="non-scaling-stroke"  transform=" translate(-334.6, -665.32)" d="M 299.55 597.46 C 298.15000000000003 603.2800000000001 296.74 609.1700000000001 296.65000000000003 615.1500000000001 C 296.6746016591567 618.8748663174719 296.95526340368724 622.5936344325024 297.49 626.2800000000001 L 298.54 634.94 C 298.90000000000003 637.86 299.25 640.7700000000001 299.76000000000005 643.6600000000001 C 300.0853449864588 645.1488735351994 300.26287300063484 646.6662356186287 300.29 648.19 C 300.19190853152105 649.6921487265503 299.95421672794936 651.1819072137249 299.58000000000004 652.6400000000001 C 298.9511716168244 655.7021372278965 298.59974862565184 658.8147408639961 298.53000000000003 661.94 C 298.42 666.94 299.04 671.94 299.43 676.94 C 300.20857982025564 686.9037233647297 300.09144337474936 696.9172160777252 299.08 706.86 C 298.6762004798423 709.5437648087586 299.2588503925804 712.282929947302 300.71999999999997 714.57 C 301.31291965817326 715.2911489132478 301.801069117822 716.0923873366712 302.16999999999996 716.95 C 302.91999999999996 719.24 301.16999999999996 721.5300000000001 300.71999999999997 723.88 C 300.12065579937683 727.695650121553 302.7251334834161 731.2756881752151 306.53999999999996 731.88 C 314.53999999999996 732.83 322.76 732.4 329.96999999999997 736.06 C 330.72999999999996 733.8399999999999 329.07 731.3199999999999 329.83 729.06 C 330.31 727.66 331.63 726.75 332.53 725.5699999999999 C 333.73909171803916 723.7720797805691 334.34175789937 721.634717160733 334.25 719.4699999999999 C 334.28533450800944 716.6444418798053 333.78308149523133 713.8379334908359 332.77 711.1999999999999 C 331.91999999999996 708.9999999999999 330.7 706.8299999999999 330.77 704.4699999999999 C 330.77 703.31 331.18 702.0899999999999 330.71 701.0199999999999 C 330.3876753414939 700.405279155221 329.94965324983514 699.8586004206703 329.41999999999996 699.4099999999999 C 326.4313106359809 696.1358639959761 324.5947227479168 691.9745702151808 324.18999999999994 687.5599999999998 C 323.800055455325 683.1790763073398 323.9410782114942 678.7670786500469 324.60999999999996 674.4199999999998 C 325.09999999999997 670.2799999999999 325.75999999999993 665.9099999999999 328.38999999999993 662.6799999999998 C 327.1703765701432 652.8859199444149 327.8872926611991 642.94762816082 330.49999999999994 633.4299999999998 C 330.75999999999993 632.5499999999998 331.16999999999996 631.5299999999999 332.06999999999994 631.3199999999998 C 332.7955637820745 631.245640657845 333.51189906623614 631.5291900411589 333.98999999999995 632.0799999999998 C 335.55999999999995 633.5499999999998 336.30999999999995 635.6799999999998 336.98999999999995 637.7199999999998 C 337.73999999999995 639.9299999999998 338.49999999999994 642.2899999999998 337.92999999999995 644.5499999999998 C 337.68999999999994 645.5499999999998 337.2099999999999 646.4299999999998 336.92999999999995 647.3899999999999 C 336.3216471169256 649.3191795555014 336.4281401199006 651.4028926470456 337.22999999999996 653.2599999999999 C 337.62083894065444 653.9386862793555 337.86604522865224 654.6913333577933 337.95 655.4699999999999 C 337.857268896398 656.1387129426784 337.6545309106637 656.7874744970283 337.34999999999997 657.3899999999999 C 336.59988836589724 659.7831653257916 336.9016074191875 662.3823113872681 338.17999999999995 664.5399999999998 C 339.45458229815705 666.6635387213694 341.0272750029626 668.5932023613128 342.84999999999997 670.2699999999999 C 341.9791395092042 674.1081121412386 342.2043675507195 678.1137062334193 343.49999999999994 681.8299999999998 C 343.68883498990255 682.1681146528862 343.73559839143843 682.5674021583078 343.62999999999994 682.9399999999998 C 343.44999999999993 683.3199999999998 342.98999999999995 683.4599999999998 342.62999999999994 683.7299999999998 C 341.62999999999994 684.5499999999998 342.24999999999994 686.0999999999998 342.91999999999996 687.1699999999998 C 344.75627334273247 690.1068925617897 346.7839956946405 692.9196474552107 348.98999999999995 695.5899999999998 C 350.98999999999995 697.9799999999998 350.80999999999995 702.5899999999998 353.78999999999996 703.4499999999998 C 355.0422299577217 703.7204551570734 356.33777004227824 703.7204551570734 357.59 703.4499999999998 C 360.53 702.9999999999998 363.81 702.1499999999999 365.25 699.5499999999998 C 365.84 698.4799999999998 366.08 697.1799999999998 367 696.3799999999999 C 367.92 695.5799999999999 369.11 695.4399999999998 369.62 694.4799999999999 C 370.13 693.52 369.56 692.2599999999999 369.73 691.1499999999999 C 369.90000000000003 690.0399999999998 370.87 689.1499999999999 371.18 687.9799999999999 C 371.92 685.2799999999999 368.77 683.06 368.34000000000003 680.3 C 367.72 676.3 372.76000000000005 673.3 372.55 669.3 C 372.11 660.6099999999999 371.83 651.88 371.38 643.1899999999999 C 370.8152426933433 635.4058454663096 370.7350880150576 627.5941041117144 371.14 619.8 C 371.49 614.9499999999999 372.14 609.87 370.36 605.3599999999999 C 367.8 598.9999999999999 360.74 595.43 353.91 594.7499999999999 C 347.08000000000004 594.0699999999998 340.27000000000004 595.6899999999999 333.5 596.7499999999999 C 322.2640585929463 598.4816159955878 310.8485127247486 598.7203505336267 299.55 597.46 Z" stroke-linecap="round" />
</g>
		<g transform="matrix(1 0 0 1 -280.14 35.86)"  >
<circle style="stroke: none; stroke-width: 1; stroke-dasharray: none; stroke-linecap: butt; stroke-dashoffset: 0; stroke-linejoin: miter; stroke-miterlimit: 4; fill: rgb(251,190,190); fill-rule: nonzero; opacity: 1;" vector-effect="non-scaling-stroke"  cx="0" cy="0" r="16.02" />
</g>
		<g transform="matrix(1 0 0 1 -273.45 60.21)"  >
<path style="stroke: none; stroke-width: 1; stroke-dasharray: none; stroke-linecap: butt; stroke-dashoffset: 0; stroke-linejoin: miter; stroke-miterlimit: 4; fill: rgb(251,190,190); fill-rule: nonzero; opacity: 1;" vector-effect="non-scaling-stroke"  transform=" translate(-326.54, -510.21)" d="M 313.33 504.87 C 312.21599799752823 507.46386280786106 309.6210064791179 509.10510552930583 306.8 509 C 306.22 511.4 307.61 513.82 309.2 515.71 C 315.9229329145922 523.5333291427696 326.3505977629538 527.1099493310375 336.46 525.0600000000001 C 338.3919972044716 524.7140912840507 340.22487942408566 523.9495370620889 341.83 522.82 C 343.9938691223863 521.0131441431184 345.4466744201805 518.4973105786456 345.93 515.72 C 346.3902534472579 512.9619368160702 346.52117111096413 510.1589560674875 346.32 507.37 C 346.3761011562277 506.81924879299453 346.21859595898866 506.26798060265793 345.88 505.83 C 345.480090527564 505.52028399629427 344.9856713641463 505.357831985457 344.48 505.37 C 341.1 505.07 337.57 504.94 334.6 503.28000000000003 C 331.63000000000005 501.62000000000006 329.52000000000004 497.87 330.95000000000005 494.79 C 330.72 495.27000000000004 324.88000000000005 495.5 324.11000000000007 495.6 C 321.70000000000005 495.94 319.2900000000001 496.32000000000005 316.89000000000004 496.76000000000005 C 315.73676978684193 496.8233059434516 314.5969332941639 497.0384963137507 313.50000000000006 497.40000000000003 C 312.05000000000007 498.15000000000003 312.59000000000003 497.78000000000003 312.93000000000006 499.14000000000004 C 313.44 501.22 314.19 502.71 313.33 504.87 Z" stroke-linecap="round" />
</g>
		<g transform="matrix(1 0 0 1 -293.39 102.63)"  >
<path style="stroke: none; stroke-width: 1; stroke-dasharray: none; stroke-linecap: butt; stroke-dashoffset: 0; stroke-linejoin: miter; stroke-miterlimit: 4; fill: rgb(63,61,86); fill-rule: nonzero; opacity: 1;" vector-effect="non-scaling-stroke"  transform=" translate(-306.6, -552.63)" d="M 325.52 514.61 C 323.36241078100045 514.6348823604086 321.2098436399845 514.3964544867547 319.10999999999996 513.9 C 316.9898217658916 513.4047570118538 315.12105039384295 512.1577251647262 313.84999999999997 510.39 C 313.10999999999996 509.27 312.62999999999994 507.86 311.45 507.22999999999996 C 309.52 506.22999999999996 307.32 507.91999999999996 305.78 509.46999999999997 C 304.3778442443003 510.99863079948744 302.75285062448415 512.3067169498789 300.96 513.35 C 298.82 514.48 296.32 514.88 294.29999999999995 516.21 C 292.72192362070564 517.4023833486638 291.3676496139212 518.864999275991 290.29999999999995 520.5300000000001 L 276.12999999999994 539.83 C 270.43999999999994 547.59 265.48999999999995 555.9200000000001 260.41999999999996 564.11 C 256.03 571.2 253.72999999999996 579.36 250.41999999999996 587.01 C 250.1578299489033 587.4781605609121 250.04938961473778 588.0168641564442 250.10999999999996 588.55 C 250.22999999999996 589.0699999999999 250.85999999999996 589.49 251.29999999999995 589.1899999999999 C 249.80999999999995 590.67 251.11999999999995 593.1899999999999 250.76999999999995 595.27 C 250.3721240637922 596.7254060760857 249.54228168030707 598.0259573745728 248.38999999999996 599 C 250.59104959984117 598.7128956482537 252.8255517626358 598.8178495377183 254.98999999999995 599.31 C 257.22694140222615 599.9439862241348 259.3378505983842 600.9588464145954 261.22999999999996 602.31 C 262.43999999999994 602.1199999999999 262.33 599.9699999999999 263.22999999999996 599.17 C 263.77 598.6999999999999 264.56999999999994 598.76 265.28 598.62 C 267.95 598.1 269.01 594.89 271.05999999999995 593.08 C 272.7699999999999 591.57 275.18999999999994 591.08 276.99999999999994 589.6600000000001 C 279.93999999999994 587.3500000000001 280.56999999999994 583.2400000000001 282.10999999999996 579.83 C 283.41999999999996 576.94 285.47999999999996 574.4200000000001 286.62999999999994 571.46 C 287.37999999999994 569.5400000000001 287.73999999999995 567.46 288.80999999999995 565.69 C 290.5199999999999 562.83 293.73999999999995 561.3100000000001 296.80999999999995 559.94 C 298.74999999999994 559.07 300.80999999999995 558.1700000000001 302.8999999999999 558.3100000000001 C 302.7899999999999 562.96 302.19999999999993 567.5400000000001 303.2099999999999 572.08 C 303.55999999999995 573.6800000000001 304.0499999999999 575.24 304.4699999999999 576.83 C 306.37999999999994 583.99 306.8299999999999 591.45 306.9199999999999 598.83 C 311.51450850231845 597.7786907824424 316.2072024920159 597.2155675036787 320.9199999999999 597.1500000000001 C 324.6299999999999 597.0400000000001 328.3299999999999 597.5200000000001 332.0399999999999 597.45 C 336.4399999999999 597.37 340.7899999999999 596.5200000000001 345.1899999999999 596.22 C 349.58999999999986 595.92 354.1899999999999 596.22 358.07999999999987 598.22 C 357.7641495531788 591.882500356674 357.9413498396164 585.5300372579673 358.60999999999984 579.22 L 359.66999999999985 569.28 C 359.9092077666839 566.3920674272919 360.35366407637065 563.5248229632982 361 560.7 C 361.58 558.4200000000001 362.42 556.22 363.06 553.95 C 365.31 545.95 364.9 537.4100000000001 364.47 529.08 C 364.25 524.8000000000001 362.6 520.59 360.66 516.7800000000001 C 359.9578258798458 515.3647744401038 359.1557989245645 514.0013286161255 358.26000000000005 512.7 C 353.4949179092077 506.1346788499537 345.69514271821765 502.47263531884994 337.6 503 C 337.09129946835634 503.01567739934893 336.5897384607185 503.124123022622 336.12 503.32 C 335.27593570754505 503.8604468217228 334.6166429014984 504.6453192098736 334.23 505.57 C 332.16102283481786 509.2886247459677 329.15915058060943 512.4042303921266 325.52 514.61 Z" stroke-linecap="round" />
</g>
		<g transform="matrix(1 0 0 1 -282.14 33.97)"  >
<path style="stroke: none; stroke-width: 1; stroke-dasharray: none; stroke-linecap: butt; stroke-dashoffset: 0; stroke-linejoin: miter; stroke-miterlimit: 4; fill: rgb(63,61,86); fill-rule: nonzero; opacity: 1;" vector-effect="non-scaling-stroke"  transform=" translate(-317.85, -483.97)" d="M 305.76 491.17 C 306.21 490.17 307.42 489.8 308.15999999999997 489 C 309.58 487.48 308.93999999999994 485.05 309.15999999999997 483 C 309.52 480 312.01 477.49 314.85999999999996 476.42 C 317.76643121900435 475.4872238411987 320.8591120477787 475.29135405537636 323.85999999999996 475.85 C 325.3045279859993 475.95543547997 326.69996116119944 476.4194341958617 327.91999999999996 477.20000000000005 C 328.43999999999994 477.58000000000004 328.91999999999996 478.07000000000005 329.40999999999997 478.4200000000001 C 331.2675696408026 479.5427196264166 333.6815636762074 478.9791585188865 334.84999999999997 477.1500000000001 C 331.30999999999995 472.8900000000001 327.39 468.3900000000001 322.01 467.0800000000001 C 320.16433157983636 466.70323931195037 318.28357188091087 466.52555613183796 316.4 466.5500000000001 C 313.90999999999997 466.5000000000001 311.34 466.46000000000015 309.03999999999996 467.41000000000014 C 305.90999999999997 468.70000000000016 303.71 471.67000000000013 302.58 474.8700000000001 C 301.5918072979314 478.11355953118436 301.0633284594398 481.47966678272314 301.01 484.8700000000001 C 300.8049979731005 487.1320314647146 300.8049979731005 489.40796853528565 301.01 491.67000000000013 C 301.39657201568355 494.7591505866588 302.5442523168506 497.7039470480364 304.34999999999997 500.2400000000001 C 304.59413353011524 500.6338775841527 304.9394714212867 500.9550418229422 305.34999999999997 501.17000000000013 C 309.91 503.17 305.39 492 305.76 491.17 Z" stroke-linecap="round" />
</g>
		<g transform="matrix(1 0 0 1 -284.06 21.33)"  >
<path style="stroke: none; stroke-width: 1; stroke-dasharray: none; stroke-linecap: butt; stroke-dashoffset: 0; stroke-linejoin: miter; stroke-miterlimit: 4; fill: rgb(254,210,83); fill-rule: nonzero; opacity: 1;" vector-effect="non-scaling-stroke"  transform=" translate(-315.93, -471.32)" d="M 334.33 474.68 C 333.78 469.97 330.41999999999996 466.08 326.84999999999997 462.95 C 323.9725912018324 460.23600032817535 320.5450750822588 458.17266972883004 316.79999999999995 456.9 C 313.03 455.78999999999996 308.68999999999994 456.03 305.46 458.28 C 302.85999999999996 460.09 301.21 462.96999999999997 299.94 465.86999999999995 C 298.2716283568192 469.29224761649004 297.4453419153996 473.0636795067869 297.53 476.86999999999995 C 297.78 480.6499999999999 299.61999999999995 484.47999999999996 302.9 486.38999999999993 C 304.08 484.6499999999999 306.13 483.74999999999994 308.09999999999997 483.0399999999999 C 316.68616899731046 479.78233464215253 325.44229864363956 476.9915895470969 334.3299999999998 474.68000000000006 Z" stroke-linecap="round" />
</g>
		<g transform="matrix(1 0 0 1 -295.14 25.14)"  >
<path style="stroke: none; stroke-width: 1; stroke-dasharray: none; stroke-linecap: butt; stroke-dashoffset: 0; stroke-linejoin: miter; stroke-miterlimit: 4; fill: rgb(0,0,0); fill-rule: nonzero; opacity: 0.1;" vector-effect="non-scaling-stroke"  transform=" translate(-304.85, -475.14)" d="M 304 472.72 C 304.32 472.72 304.53 473.05 304.69 473.32000000000005 C 305.5042049459149 474.5885438372785 306.20364273305273 475.92718075046093 306.78 477.32000000000005 C 305.60999999999996 477.57000000000005 303.59999999999997 477.85 303.02 476.82000000000005 C 302.71 476.3 303.08 472.67 304 472.72 Z" stroke-linecap="round" />
</g>
		<g transform="matrix(1 0 0 1 -271.5 18.03)"  >
<path style="stroke: none; stroke-width: 1; stroke-dasharray: none; stroke-linecap: butt; stroke-dashoffset: 0; stroke-linejoin: miter; stroke-miterlimit: 4; fill: rgb(0,0,0); fill-rule: nonzero; opacity: 0.1;" vector-effect="non-scaling-stroke"  transform=" translate(-328.49, -468.02)" d="M 326.79 470.46 C 326.55 470.69 326.27000000000004 470.21999999999997 326.27000000000004 469.88 L 326.27000000000004 466 C 326.26347202764447 465.8921200330906 326.2877490926466 465.78460731665257 326.34000000000003 465.69 C 326.4237948358348 465.5941797880336 326.54287193896886 465.53644543499894 326.67 465.53 C 327.48 465.44 328.15000000000003 466.13 328.67 466.78999999999996 C 329.4591169503473 467.8596245915399 330.1454952694263 469.00135633205656 330.72 470.2 L 326.49 470.07" stroke-linecap="round" />
</g>
		<g transform="matrix(1 0 0 1 -226.27 78.82)"  >
<path style="stroke: none; stroke-width: 1; stroke-dasharray: none; stroke-linecap: butt; stroke-dashoffset: 0; stroke-linejoin: miter; stroke-miterlimit: 4; fill: rgb(63,61,86); fill-rule: nonzero; opacity: 1;" vector-effect="non-scaling-stroke"  transform=" translate(-373.72, -528.81)" d="M 379.58 534.71 C 380.5002795597581 533.8364558243092 381.4828713233339 533.0309979500854 382.52 532.3000000000001 C 385.28999999999996 530.45 388.64 529.72 391.75 528.5400000000001 C 394.86 527.3600000000001 398.02 525.45 399.23 522.35 C 399.835726144833 520.4115383129031 400.0332109288942 518.3685922708906 399.81 516.35 C 399.8390328307933 515.5048594338517 399.689088597335 514.6631270323926 399.37 513.88 C 398.98934388727986 513.1879285168772 398.44734468742985 512.5979040714708 397.79 512.16 C 393.57 509.03999999999996 387.91 508.78999999999996 382.67 509.10999999999996 C 371.1174763047866 509.82641167622455 359.7939193788974 512.6530643180059 349.25999999999993 517.4499999999999 C 348.7029233318526 517.6340441472422 348.2147693289526 517.982725577885 347.86 518.4499999999999 C 347.6549118717941 518.8833771999889 347.56206637324254 519.361359581421 347.59000000000003 519.8399999999999 C 347.4036761112915 522.788965129367 347.78733674521436 525.7462077147371 348.72 528.55 C 350.1 532.1099999999999 352.94000000000005 534.9799999999999 354.13000000000005 538.6099999999999 C 354.6700000000001 540.2399999999999 354.8500000000001 541.9699999999999 355.32000000000005 543.6099999999999 C 355.7055858851692 545.3037233558026 356.7071415151457 546.7935819085789 358.13000000000005 547.7899999999998 C 362.08000000000004 550.1499999999999 365.81000000000006 546.9799999999999 368.55000000000007 544.5199999999999 Z" stroke-linecap="round" />
</g>
		<g transform="matrix(1 0 0 1 -269.09 101.71)"  >
<path style="stroke: none; stroke-width: 1; stroke-dasharray: none; stroke-linecap: butt; stroke-dashoffset: 0; stroke-linejoin: miter; stroke-miterlimit: 4; fill: rgb(29,165,122); fill-rule: nonzero; opacity: 1;" vector-effect="non-scaling-stroke"  transform=" translate(-330.9, -551.71)" d="M 327.85 548.56 L 322.78000000000003 537.5 C 322.0366234646543 535.9672963271639 321.39522917817135 534.3871947776511 320.86 532.77 C 320.28000000000003 530.84 320 528.84 319.46000000000004 526.9 C 317.68000000000006 520.4399999999999 313.19000000000005 515.06 311.00000000000006 508.72999999999996 C 310.86153576430354 508.15844711337917 310.57926755578586 507.63177594382785 310.18000000000006 507.2 C 309.53288931690156 506.742269981682 308.7158573826422 506.59571716836194 307.95000000000005 506.8 C 304.89000000000004 507.33 302.50000000000006 509.66 299.70000000000005 510.98 C 298.40000000000003 511.58000000000004 297.00000000000006 511.98 295.70000000000005 512.6700000000001 C 294.3850920671891 513.2927670947473 293.40666250046775 514.457390347673 293.02000000000004 515.8600000000001 C 292.71000000000004 517.3900000000001 293.47 518.8600000000001 294.11 520.3500000000001 C 296.83000000000004 526.4900000000001 297.45 533.3500000000001 297.57 540.0700000000002 C 297.65999999999997 544.5900000000001 297.43 549.4400000000002 294.76 553.0700000000002 C 289.63 560.0700000000002 292.90999999999997 570.3500000000001 294.83 578.8200000000002 C 295.06 579.8200000000002 295.33 580.9000000000002 295.49 581.9600000000002 C 295.6592064539675 583.2863980869149 295.7360581428989 584.6229491987656 295.72 585.9600000000002 C 295.72 590.4500000000002 295.47 595.0800000000002 293.59000000000003 599.1500000000002 C 295.44609764842176 600.1375270889492 297.4917499163332 600.7171285648575 299.59000000000003 600.8500000000003 Q 308.3 601.9600000000003 317.08000000000004 602.4100000000002 C 318.913915824138 602.5824405377892 320.76314406270643 602.4881265292648 322.57000000000005 602.1300000000002 C 326.9841620220128 600.9370621457686 330.0269062845683 596.9020291588885 329.96000000000004 592.3300000000003 C 330.28000000000003 595.1000000000003 330.87000000000006 598.1100000000002 332.88000000000005 600.0300000000003 C 334.89000000000004 601.9500000000004 337.82000000000005 602.2400000000004 340.55000000000007 602.3900000000003 C 348.2549046730784 602.7986320483575 355.98026521800693 602.5812517732837 363.6500000000001 601.7400000000004 C 364.1395516582072 601.7179125171141 364.62087743989514 601.6060551171444 365.0700000000001 601.4100000000003 C 366.5500000000001 600.6700000000003 366.6300000000001 598.6300000000003 366.5100000000001 596.9900000000004 C 366.2900000000001 593.9200000000003 366.0600000000001 590.8500000000004 365.6900000000001 587.8000000000003 C 365.3762854555079 585.8555917563995 365.21579182576664 583.8895447920686 365.2100000000001 581.9200000000003 C 365.36248848402414 579.8940294924588 365.69717434730666 577.8859143127636 366.2100000000001 575.9200000000003 C 367.55000000000007 569.6800000000003 368.61000000000007 563.3100000000003 368.1600000000001 556.9200000000003 C 367.98215559804913 555.3634091986285 367.9186521118801 553.7958757768761 367.9700000000001 552.2300000000002 C 368.2300000000001 548.7000000000003 370.0900000000001 545.3400000000003 369.74000000000007 541.8300000000003 C 368.74000000000007 531.5100000000002 367.93000000000006 520.9200000000003 365.05000000000007 510.96000000000026 C 364.5300000000001 509.1800000000003 363.87000000000006 507.27000000000027 362.32000000000005 506.2500000000003 C 360.32000000000005 504.9100000000003 357.51000000000005 505.6100000000003 355.22 504.7600000000003 C 354.14548697368394 504.25994530080584 353.123726904075 503.6535893250707 352.17 502.9500000000003 C 350.0977623693855 501.65401977914405 347.72234757001655 500.9231229177998 345.28000000000003 500.83000000000027 C 343.44000000000005 500.7600000000003 341.39000000000004 501.17000000000024 340.28000000000003 502.65000000000026 C 339.7660002732898 503.48326401056363 339.42584730224985 504.4118816215027 339.28000000000003 505.3800000000003 C 337.83000000000004 511.4800000000003 336.13000000000005 517.5100000000003 334.43 523.5400000000003 L 332.8 529.3200000000003 L 328.43 544.8400000000003 C 328 546.49 328.29 547 327.85 548.56 Z" stroke-linecap="round" />
</g>
		<g transform="matrix(1 0 0 1 -207.75 93.15)"  >
<polyline style="stroke: none; stroke-width: 1; stroke-dasharray: none; stroke-linecap: butt; stroke-dashoffset: 0; stroke-linejoin: miter; stroke-miterlimit: 4; fill: rgb(241,192,192); fill-rule: nonzero; opacity: 1;" vector-effect="non-scaling-stroke"  points="-38.82,-55.13 57.91,46.51 57.91,55.13 14.78,55.13 -57.91,-39.74 " />
</g>
		<g transform="matrix(1 0 0 1 -207.75 93.15)"  >
<polyline style="stroke: none; stroke-width: 1; stroke-dasharray: none; stroke-linecap: butt; stroke-dashoffset: 0; stroke-linejoin: miter; stroke-miterlimit: 4; fill: rgb(0,0,0); fill-rule: nonzero; opacity: 0.1;" vector-effect="non-scaling-stroke"  points="-38.82,-55.13 57.91,46.51 57.91,55.13 14.78,55.13 -57.91,-39.74 " />
</g>
		<g transform="matrix(1 0 0 1 -207.75 100.18)"  >
<polygon style="stroke: none; stroke-width: 1; stroke-dasharray: none; stroke-linecap: butt; stroke-dashoffset: 0; stroke-linejoin: miter; stroke-miterlimit: 4; fill: rgb(0,0,0); fill-rule: nonzero; opacity: 0.1;" vector-effect="non-scaling-stroke"  points="-56.37,-48.1 -56.06,-47.99 15.4,39.49 57.91,39.49 57.91,48.11 14.78,48.11 -57.91,-46.76 -56.37,-48.1 " />
</g>
		<g transform="matrix(1 0 0 1 -246.35 58.12)"  >
<path style="stroke: none; stroke-width: 1; stroke-dasharray: none; stroke-linecap: butt; stroke-dashoffset: 0; stroke-linejoin: miter; stroke-miterlimit: 4; fill: rgb(29,165,122); fill-rule: nonzero; opacity: 1;" vector-effect="non-scaling-stroke"  transform=" translate(-353.64, -508.11)" d="M 347 504.21 C 343.5 505.73999999999995 339.61 507.7 338.56 511.38 C 338.3527015224042 512.0258028794617 338.3080469842934 512.7127957734737 338.43 513.38 C 338.95362374076205 514.9861216127834 340.4128972106332 516.103439991622 342.1 516.1899999999999 C 343.7467377538629 516.2299062853047 345.3840584688033 515.9303548863135 346.91 515.31 L 367.56 508.48999999999995 C 368.12 508.30999999999995 368.76 508.03999999999996 368.9 507.48999999999995 C 368.93595659107143 507.14411303992637 368.86622414563266 506.7954508127327 368.7 506.48999999999995 C 368.06 504.92999999999995 367.43 501.73999999999995 366.09 500.65 C 364.98999999999995 499.77 362.81 500.08 361.47999999999996 500.09999999999997 C 356.36 500.14 351.55 502.21 347 504.21 Z" stroke-linecap="round" />
</g>
		<g transform="matrix(1 0 0 1 -219.85 60.1)"  >
<path style="stroke: none; stroke-width: 1; stroke-dasharray: none; stroke-linecap: butt; stroke-dashoffset: 0; stroke-linejoin: miter; stroke-miterlimit: 4; fill: rgb(63,61,86); fill-rule: nonzero; opacity: 1;" vector-effect="non-scaling-stroke"  transform=" translate(-380.14, -510.1)" d="M 365.41 509.3 C 368.8888564851131 509.2898657254408 372.34770193950106 509.8264085812922 375.66 510.89 C 378.98713605766767 511.97020156670897 381.93397850677286 513.9833565967219 384.15000000000003 516.6899999999999 C 384.79534955382064 517.4465658721413 385.2543007956788 518.3439183002521 385.49 519.31 C 385.69 520.31 388.95 520.91 388.23 521.5899999999999 C 390.42 521.2399999999999 389.90000000000003 522.2699999999999 392.12 522.2499999999999 C 394.34 522.2299999999999 396.74 521.6599999999999 398.07 519.8899999999999 C 398.99403650278384 518.4359278286827 399.40583099806344 516.7148380150782 399.24 514.9999999999999 C 399.2691495005279 513.8128061752226 399.04411924323074 512.6331020990891 398.58 511.5399999999999 C 397.58 509.4399999999999 395.28 508.3099999999999 393.15999999999997 507.3399999999999 L 375.29999999999995 499.1699999999999 C 374.2639422543449 498.61888437531786 373.1518263674515 498.22458874269205 372 498 C 371.03063534795126 497.90844591888276 370.05384135377926 497.93194268162915 369.09 498.07 L 361 499 C 364.59950843310935 501.3293974630311 366.7019257917435 505.3859604316797 366.53 509.67" stroke-linecap="round" />
</g>
</g>
</g>
<g transform="matrix(1 0 0 1 517.1 121.21)" style="" id="d35c6c8e-c59c-4013-82dd-049580cf4078"  >
		<text xml:space="preserve" font-family="Raleway" font-size="105" font-style="normal" font-weight="900" style="stroke: none; stroke-width: 1; stroke-dasharray: none; stroke-linecap: butt; stroke-dashoffset: 0; stroke-linejoin: miter; stroke-miterlimit: 4; fill: rgb(0,0,0); fill-rule: nonzero; opacity: 1; white-space: pre;" ><tspan x="-315" y="32.98" ></tspan></text>
</g>
</svg>